{
.appVersion = "895";
DisplayStrings = (
"/uni05D0/uni05D1/uni05D2/uni05D3/uni05D4/uni05D5/uni05D6/uni05D7/uni05D8/uni05D9/uni05DB/uni05DA/uni05DC \012/uni05DE/uni05DD/uni05E0/uni05DF/uni05E1/uni05E2/uni05E4/uni05E3/uni05E6/uni05E5/uni05E7/uni05E8/uni05E9/uni05EA"
);
copyright = "Copyright (c) 2000 by Tamirp. All rights reserved.";
customParameters = (
{
name = description;
value = "Copyright (c) 2000 by Tamirp. All rights reserved.";
},
{
name = vendorID;
value = "MS  ";
},
{
name = panose;
value = (
2,
1,
4,
1,
1,
1,
1,
1,
1,
1
);
},
{
name = unicodeRanges;
value = (
11,
12,
62
);
},
{
name = codePageRanges;
value = (
1255
);
},
{
name = glyphOrder;
value = (
.notdef,
NULL,
uni000D,
space,
exclam,
quotedbl,
numbersign,
dollar,
percent,
ampersand,
quotesingle,
parenleft,
parenright,
asterisk,
plus,
comma,
hyphen,
period,
slash,
zero,
one,
two,
three,
four,
five,
six,
seven,
eight,
nine,
colon,
semicolon,
less,
equal,
greater,
question,
at,
bracketleft,
backslash,
bracketright,
asciicircum,
underscore,
braceleft,
bar,
braceright,
asciitilde,
cent,
sterling,
section,
copyright,
guillemotleft,
paragraph,
guillemotright,
onequarter,
onehalf,
threequarters,
multiply,
divide,
endash,
emdash,
quoteleft,
quoteright,
quotedblleft,
quotedblright,
middot.001,
bullet,
uni2039,
uni203A,
uni0591,
uni0592,
uni0593,
uni0594,
uni0595,
uni0596,
uni0597,
uni0598,
uni0599,
uni059A,
uni059B,
uni059C,
uni059D,
uni059E,
uni059F,
uni05A0,
uni05A1,
uni05A3,
uni05A4,
uni05A5,
uni05A6,
uni05A7,
uni05A8,
uni05A9,
uni05AA,
uni05AB,
uni05AC,
uni05AD,
uni05AE,
uni05AF,
uni05B0,
uni05B1,
uni05B2,
uni05B3,
uni05B4,
uni05B5,
uni05B6,
uni05B7,
uni05B8,
uni05B9,
uni05BB,
uni05BC,
uni05BD,
uni05BE,
uni05BF,
uni05C0,
uni05C1,
uni05C2,
uni05C3,
uni05C4,
uni05D0,
uni05D1,
uni05D2,
uni05D3,
uni05D4,
uni05D5,
uni05D6,
uni05D7,
uni05D8,
uni05D9,
uni05DA,
uni05DB,
uni05DC,
uni05DD,
uni05DE,
uni05DF,
uni05E0,
uni05E1,
uni05E2,
uni05E3,
uni05E4,
uni05E5,
uni05E6,
uni05E7,
uni05E8,
uni05E9,
uni05EA,

glyphs = (
{
glyphname = .notdef;
lastChange = "2017-07-24 05:49:16 +0000";
layers = (
{
layerId = "6CFB2232-83DA-4DC4-BCB5-DDBFA820FE35";
paths = (
{
closed = 1;
nodes = (
"897 1528 LINE",
"129 1528 LINE",
"129 0 LINE",
"897 0 LINE"
);
},
{
closed = 1;
nodes = (
"768 1401 LINE",
"768 129 LINE",
"256 129 LINE",
"256 1401 LINE"
);
}
);
width = 1024;
}
);
note = .notdef;
},
{
glyphname = exclam;
lastChange = "2017-07-24 05:49:16 +0000";
layers = (
{
layerId = "6CFB2232-83DA-4DC4-BCB5-DDBFA820FE35";
paths = (
{
closed = 1;
nodes = (
"457 74 OFFCURVE",
"446 58 OFFCURVE",
"435 43 CURVE",
"436 45 OFFCURVE",
"436 47 OFFCURVE",
"437 50 CURVE",
"438 52 OFFCURVE",
"438 54 OFFCURVE",
"439 56 CURVE",
"439 58 LINE",
"440 60 OFFCURVE",
"442 63 OFFCURVE",
"443 66 CURVE SMOOTH",
"444 69 OFFCURVE",
"445 71 OFFCURVE",
"446 74 CURVE",
"447 79 OFFCURVE",
"439 82 OFFCURVE",
"436 78 CURVE",
"425 59 OFFCURVE",
"412 44 OFFCURVE",
"397 31 CURVE SMOOTH",
"381 18 OFFCURVE",
"363 7 OFFCURVE",
"343 0 CURVE",
"348 2 OFFCURVE",
"352 5 OFFCURVE",
"356 8 CURVE SMOOTH",
"368 17 LINE",
"370 18 OFFCURVE",
"372 20 OFFCURVE",
"374 22 CURVE",
"375 24 OFFCURVE",
"377 26 OFFCURVE",
"379 27 CURVE",
"382 29 OFFCURVE",
"385 33 OFFCURVE",
"389 38 CURVE",
"406 51 OFFCURVE",
"420 68 OFFCURVE",
"429 88 CURVE",
"430 91 OFFCURVE",
"431 93 OFFCURVE",
"432 96 CURVE SMOOTH",
"433 99 OFFCURVE",
"434 101 OFFCURVE",
"435 103 CURVE",
"436 106 OFFCURVE",
"437 109 OFFCURVE",
"438 112 CURVE",
"438 114 OFFCURVE",
"438 116 OFFCURVE",
"439 119 CURVE SMOOTH",
"440 122 OFFCURVE",
"440 125 OFFCURVE",
"440 128 CURVE SMOOTH",
"440 130 OFFCURVE",
"440 132 OFFCURVE",
"441 135 CURVE",
"441 138 OFFCURVE",
"441 142 OFFCURVE",
"441 145 CURVE SMOOTH",
"441 148 OFFCURVE",
"441 151 OFFCURVE",
"440 154 CURVE",
"440 155 LINE",
"440 156 LINE",
"439 157 LINE",
"438 161 LINE",
"438 162 OFFCURVE",
"437 163 OFFCURVE",
"434 163 CURVE SMOOTH",
"431 163 OFFCURVE",
"429 162 OFFCURVE",
"428 161 CURVE",
"428 160 OFFCURVE",
"428 160 OFFCURVE",
"428 160 CURVE",
"427 159 OFFCURVE",
"427 159 OFFCURVE",
"427 158 CURVE SMOOTH",
"427 157 LINE",
"426 156 OFFCURVE",
"426 156 OFFCURVE",
"426 155 CURVE",
"425 151 OFFCURVE",
"423 147 OFFCURVE",
"423 143 CURVE",
"422 145 OFFCURVE",
"422 147 OFFCURVE",
"422 150 CURVE",
"421 153 LINE",
"421 155 LINE SMOOTH",
"421 156 OFFCURVE",
"421 156 OFFCURVE",
"420 156 CURVE",
"418 163 LINE",
"417 164 OFFCURVE",
"415 165 OFFCURVE",
"412 165 CURVE SMOOTH",
"409 165 OFFCURVE",
"407 164 OFFCURVE",
"407 163 CURVE SMOOTH",
"407 159 LINE",
"408 159 OFFCURVE",
"408 158 OFFCURVE",
"408 157 CURVE SMOOTH",
"408 155 LINE",
"408 154 LINE",
"408 147 LINE",
"408 140 LINE SMOOTH",
"408 139 OFFCURVE",
"408 138 OFFCURVE",
"408 137 CURVE",
"407 136 OFFCURVE",
"407 134 OFFCURVE",
"407 133 CURVE SMOOTH",
"407 130 LINE SMOOTH",
"407 129 OFFCURVE",
"407 129 OFFCURVE",
"407 129 CURVE",
"406 128 OFFCURVE",
"405 128 OFFCURVE",
"405 125 CURVE",
"402 122 OFFCURVE",
"401 118 OFFCURVE",
"400 114 CURVE",
"399 113 OFFCURVE",
"398 111 OFFCURVE",
"398 109 CURVE",
"397 107 OFFCURVE",
"396 105 OFFCURVE",
"395 103 CURVE",
"395 108 LINE",
"396 109 OFFCURVE",
"396 110 OFFCURVE",
"396 112 CURVE",
"397 115 OFFCURVE",
"388 118 OFFCURVE",
"387 115 CURVE",
"384 118 OFFCURVE",
"380 120 OFFCURVE",
"379 117 CURVE",
"376 114 OFFCURVE",
"375 112 OFFCURVE",
"374 110 CURVE",
"377 116 LINE",
"378 119 OFFCURVE",
"379 121 OFFCURVE",
"380 123 CURVE SMOOTH",
"381 125 LINE",
"382 127 LINE",
"382 129 LINE",
"384 135 LINE",
"385 136 OFFCURVE",
"375 142 OFFCURVE",
"374 138 CURVE SMOOTH",
"372 131 LINE",
"369 125 LINE",
"369 124 OFFCURVE",
"369 123 OFFCURVE",
"369 123 CURVE SMOOTH",
"368 123 OFFCURVE",
"368 122 OFFCURVE",
"367 121 CURVE",
"365 118 LINE",
"364 117 OFFCURVE",
"364 117 OFFCURVE",
"364 117 CURVE",
"364 116 OFFCURVE",
"364 116 OFFCURVE",
"363 115 CURVE",
"361 112 LINE",
"361 113 OFFCURVE",
"361 114 OFFCURVE",
"362 115 CURVE",
"362 115 OFFCURVE",
"362 115 OFFCURVE",
"362 116 CURVE SMOOTH",
"362 121 LINE",
"361 122 OFFCURVE",
"361 123 OFFCURVE",
"361 125 CURVE",
"369 137 OFFCURVE",
"373 151 OFFCURVE",
"373 167 CURVE SMOOTH",
"373 169 OFFCURVE",
"373 171 OFFCURVE",
"373 173 CURVE",
"372 175 OFFCURVE",
"372 177 OFFCURVE",
"372 179 CURVE",
"374 179 OFFCURVE",
"375 180 OFFCURVE",
"375 181 CURVE",
"382 196 OFFCURVE",
"382 212 OFFCURVE",
"375 228 CURVE",
"378 227 OFFCURVE",
"382 224 OFFCURVE",
"387 220 CURVE",
"392 209 OFFCURVE",
"395 198 OFFCURVE",
"398 185 CURVE",
"399 182 OFFCURVE",
"407 183 OFFCURVE",
"408 186 CURVE SMOOTH",
"409 189 OFFCURVE",
"410 193 OFFCURVE",
"410 196 CURVE SMOOTH",
"410 199 OFFCURVE",
"410 203 OFFCURVE",
"410 206 CURVE",
"413 196 LINE",
"413 195 OFFCURVE",
"415 194 OFFCURVE",
"418 194 CURVE SMOOTH",
"421 194 OFFCURVE",
"423 195 OFFCURVE",
"423 197 CURVE SMOOTH",
"423 198 LINE SMOOTH",
"423 201 OFFCURVE",
"423 203 OFFCURVE",
"423 206 CURVE SMOOTH",
"423 209 OFFCURVE",
"422 212 OFFCURVE",
"421 215 CURVE",
"420 216 OFFCURVE",
"420 218 OFFCURVE",
"420 219 CURVE SMOOTH",
"420 220 OFFCURVE",
"420 222 OFFCURVE",
"419 223 CURVE",
"418 225 OFFCURVE",
"417 227 OFFCURVE",
"416 230 CURVE",
"417 231 OFFCURVE",
"418 233 OFFCURVE",
"418 234 CURVE",
"414 254 OFFCURVE",
"404 271 OFFCURVE",
"388 286 CURVE SMOOTH",
"387 287 OFFCURVE",
"386 289 OFFCURVE",
"385 290 CURVE",
"384 293 OFFCURVE",
"381 296 OFFCURVE",
"378 298 CURVE",
"377 299 OFFCURVE",
"375 300 OFFCURVE",
"374 301 CURVE",
"369 305 OFFCURVE",
"364 309 OFFCURVE",
"357 312 CURVE",
"354 316 OFFCURVE",
"350 318 OFFCURVE",
"346 321 CURVE",
"341 326 OFFCURVE",
"328 331 OFFCURVE",
"321 334 CURVE",
"320 335 LINE",
"318 336 LINE",
"313 337 LINE",
"312 338 OFFCURVE",
"310 338 OFFCURVE",
"309 338 CURVE SMOOTH",
"308 338 OFFCURVE",
"306 338 OFFCURVE",
"305 339 CURVE",
"300 340 LINE",
"299 340 LINE",
"298 340 LINE",
"295 341 LINE",
"291 342 LINE",
"280 342 LINE",
"273 342 LINE",
"265 342 LINE SMOOTH",
"263 342 OFFCURVE",
"261 342 OFFCURVE",
"259 342 CURVE SMOOTH",
"256 342 OFFCURVE",
"254 342 OFFCURVE",
"251 341 CURVE",
"220 344 OFFCURVE",
"186 333 OFFCURVE",
"159 313 CURVE",
"132 296 OFFCURVE",
"112 273 OFFCURVE",
"97 242 CURVE",
"95 239 OFFCURVE",
"93 235 OFFCURVE",
"92 230 CURVE",
"91 227 OFFCURVE",
"89 223 OFFCURVE",
"88 219 CURVE",
"87 213 LINE",
"86 210 LINE",
"85 209 LINE",
"85 206 LINE",
"84 199 OFFCURVE",
"83 194 OFFCURVE",
"83 191 CURVE",
"82 190 OFFCURVE",
"82 188 OFFCURVE",
"82 187 CURVE SMOOTH",
"82 186 OFFCURVE",
"82 184 OFFCURVE",
"81 183 CURVE",
"81 180 LINE",
"80 174 LINE",
"80 173 LINE",
"80 167 LINE",
"80 166 LINE",
"80 164 LINE",
"81 158 LINE",
"81 153 OFFCURVE",
"81 149 OFFCURVE",
"82 146 CURVE",
"82 134 LINE SMOOTH",
"82 132 OFFCURVE",
"82 130 OFFCURVE",
"83 128 CURVE",
"83 126 OFFCURVE",
"83 124 OFFCURVE",
"83 122 CURVE",
"84 117 OFFCURVE",
"85 113 OFFCURVE",
"85 110 CURVE",
"88 105 OFFCURVE",
"89 100 OFFCURVE",
"89 99 CURVE",
"96 70 OFFCURVE",
"110 44 OFFCURVE",
"130 21 CURVE",
"131 20 OFFCURVE",
"133 18 OFFCURVE",
"134 15 CURVE",
"139 10 LINE SMOOTH",
"141 8 OFFCURVE",
"143 6 OFFCURVE",
"145 4 CURVE",
"146 2 OFFCURVE",
"148 0 OFFCURVE",
"150 -1 CURVE",
"157 -8 OFFCURVE",
"165 -15 OFFCURVE",
"174 -20 CURVE",
"182 -27 OFFCURVE",
"190 -30 OFFCURVE",
"201 -34 CURVE",
"204 -36 OFFCURVE",
"208 -38 OFFCURVE",
"215 -39 CURVE",
"216 -40 OFFCURVE",
"218 -41 OFFCURVE",
"219 -41 CURVE SMOOTH",
"220 -41 OFFCURVE",
"221 -41 OFFCURVE",
"222 -42 CURVE SMOOTH",
"223 -43 OFFCURVE",
"225 -43 OFFCURVE",
"226 -43 CURVE SMOOTH",
"227 -43 OFFCURVE",
"229 -43 OFFCURVE",
"230 -44 CURVE",
"231 -44 OFFCURVE",
"233 -44 OFFCURVE",
"234 -44 CURVE",
"237 -45 OFFCURVE",
"240 -46 OFFCURVE",
"242 -46 CURVE SMOOTH",
"243 -46 OFFCURVE",
"244 -46 OFFCURVE",
"246 -47 CURVE",
"253 -47 OFFCURVE",
"259 -48 OFFCURVE",
"266 -49 CURVE",
"271 -49 LINE",
"272 -49 LINE",
"276 -49 LINE",
"278 -48 LINE",
"279 -48 LINE",
"280 -48 LINE",
"287 -48 LINE",
"291 -48 LINE",
"294 -47 OFFCURVE",
"296 -47 OFFCURVE",
"299 -47 CURVE SMOOTH",
"301 -47 OFFCURVE",
"303 -47 OFFCURVE",
"306 -46 CURVE",
"321 -43 LINE",
"322 -42 OFFCURVE",
"324 -42 OFFCURVE",
"325 -42 CURVE SMOOTH",
"327 -42 OFFCURVE",
"330 -41 OFFCURVE",
"332 -40 CURVE",
"333 -39 OFFCURVE",
"334 -39 OFFCURVE",
"335 -39 CURVE",
"338 -38 OFFCURVE",
"340 -37 OFFCURVE",
"343 -36 CURVE",
"345 -36 OFFCURVE",
"347 -35 OFFCURVE",
"349 -34 CURVE",
"352 -35 OFFCURVE",
"354 -35 OFFCURVE",
"356 -34 CURVE SMOOTH",
"358 -33 OFFCURVE",
"360 -31 OFFCURVE",
"362 -30 CURVE SMOOTH",
"364 -29 OFFCURVE",
"366 -28 OFFCURVE",
"369 -27 CURVE",
"373 -24 OFFCURVE",
"377 -22 OFFCURVE",
"380 -18 CURVE",
"425 -1 OFFCURVE",
"464 41 OFFCURVE",
"476 89 CURVE",
"477 96 OFFCURVE",
"469 96 OFFCURVE",
"466 91 CURVE"
);
},
{
closed = 1;
nodes = (
"697 1532 OFFCURVE",
"688 1530 OFFCURVE",
"687 1525 CURVE",
"682 1506 OFFCURVE",
"678 1488 OFFCURVE",
"674 1469 CURVE",
"674 1474 OFFCURVE",
"673 1478 OFFCURVE",
"672 1483 CURVE",
"672 1484 LINE",
"672 1502 LINE SMOOTH",
"672 1505 OFFCURVE",
"671 1507 OFFCURVE",
"668 1507 CURVE SMOOTH",
"665 1507 OFFCURVE",
"662 1506 OFFCURVE",
"661 1503 CURVE",
"653 1459 OFFCURVE",
"645 1414 OFFCURVE",
"638 1370 CURVE",
"638 1381 OFFCURVE",
"638 1393 OFFCURVE",
"639 1404 CURVE",
"639 1415 OFFCURVE",
"639 1426 OFFCURVE",
"639 1437 CURVE",
"644 1461 OFFCURVE",
"648 1486 OFFCURVE",
"652 1511 CURVE",
"655 1538 OFFCURVE",
"657 1561 OFFCURVE",
"657 1588 CURVE SMOOTH",
"657 1602 LINE SMOOTH",
"657 1607 OFFCURVE",
"649 1608 OFFCURVE",
"646 1603 CURVE",
"643 1595 OFFCURVE",
"641 1586 OFFCURVE",
"638 1577 CURVE",
"637 1609 LINE",
"637 1612 OFFCURVE",
"636 1613 OFFCURVE",
"633 1613 CURVE SMOOTH",
"630 1613 OFFCURVE",
"628 1612 OFFCURVE",
"627 1609 CURVE",
"626 1603 OFFCURVE",
"625 1597 OFFCURVE",
"625 1591 CURVE SMOOTH",
"625 1584 OFFCURVE",
"624 1578 OFFCURVE",
"623 1572 CURVE",
"623 1565 OFFCURVE",
"622 1558 OFFCURVE",
"621 1551 CURVE",
"620 1551 OFFCURVE",
"620 1550 OFFCURVE",
"620 1549 CURVE",
"614 1513 LINE",
"614 1525 LINE",
"613 1528 OFFCURVE",
"612 1529 OFFCURVE",
"609 1529 CURVE SMOOTH",
"606 1529 OFFCURVE",
"604 1528 OFFCURVE",
"603 1525 CURVE",
"600 1528 OFFCURVE",
"595 1527 OFFCURVE",
"595 1523 CURVE",
"594 1520 OFFCURVE",
"592 1516 OFFCURVE",
"591 1509 CURVE",
"594 1525 OFFCURVE",
"596 1541 OFFCURVE",
"599 1557 CURVE",
"599 1564 OFFCURVE",
"591 1564 OFFCURVE",
"588 1559 CURVE",
"587 1554 OFFCURVE",
"587 1549 OFFCURVE",
"586 1544 CURVE",
"585 1535 OFFCURVE",
"583 1523 OFFCURVE",
"581 1514 CURVE SMOOTH",
"580 1509 OFFCURVE",
"578 1504 OFFCURVE",
"577 1499 CURVE",
"577 1507 OFFCURVE",
"576 1514 OFFCURVE",
"575 1523 CURVE",
"584 1568 OFFCURVE",
"590 1600 OFFCURVE",
"592 1620 CURVE",
"574 1527 LINE",
"574 1530 OFFCURVE",
"574 1532 OFFCURVE",
"573 1533 CURVE",
"575 1556 OFFCURVE",
"575 1580 OFFCURVE",
"573 1604 CURVE",
"573 1607 OFFCURVE",
"572 1608 OFFCURVE",
"569 1608 CURVE SMOOTH",
"566 1608 OFFCURVE",
"565 1607 OFFCURVE",
"564 1605 CURVE",
"559 1581 OFFCURVE",
"556 1559 OFFCURVE",
"553 1536 CURVE",
"549 1536 OFFCURVE",
"547 1535 OFFCURVE",
"546 1532 CURVE",
"539 1504 OFFCURVE",
"534 1475 OFFCURVE",
"530 1446 CURVE",
"529 1435 LINE",
"528 1462 OFFCURVE",
"527 1487 OFFCURVE",
"527 1514 CURVE SMOOTH",
"527 1517 OFFCURVE",
"527 1521 OFFCURVE",
"527 1524 CURVE",
"526 1527 OFFCURVE",
"526 1530 OFFCURVE",
"527 1533 CURVE",
"527 1553 LINE SMOOTH",
"527 1566 OFFCURVE",
"528 1578 OFFCURVE",
"530 1590 CURVE SMOOTH",
"535 1620 LINE",
"538 1627 OFFCURVE",
"526 1629 OFFCURVE",
"525 1622 CURVE",
"519 1592 LINE",
"512 1549 LINE",
"510 1538 LINE",
"508 1527 LINE",
"504 1504 LINE",
"503 1507 OFFCURVE",
"502 1510 OFFCURVE",
"501 1514 CURVE",
"500 1517 OFFCURVE",
"500 1519 OFFCURVE",
"499 1522 CURVE",
"498 1524 OFFCURVE",
"498 1526 OFFCURVE",
"497 1529 CURVE SMOOTH",
"496 1532 OFFCURVE",
"491 1534 OFFCURVE",
"488 1531 CURVE SMOOTH",
"483 1526 OFFCURVE",
"480 1520 OFFCURVE",
"479 1514 CURVE SMOOTH",
"478 1508 OFFCURVE",
"477 1502 OFFCURVE",
"476 1496 CURVE",
"467 1473 OFFCURVE",
"459 1450 OFFCURVE",
"454 1427 CURVE",
"453 1421 OFFCURVE",
"451 1415 OFFCURVE",
"450 1410 CURVE",
"447 1398 OFFCURVE",
"444 1386 OFFCURVE",
"443 1374 CURVE",
"442 1368 OFFCURVE",
"442 1362 OFFCURVE",
"441 1357 CURVE",
"441 1355 LINE",
"420 1271 OFFCURVE",
"398 1191 OFFCURVE",
"375 1108 CURVE SMOOTH",
"354 1024 OFFCURVE",
"332 942 OFFCURVE",
"315 858 CURVE SMOOTH",
"314 853 OFFCURVE",
"323 851 OFFCURVE",
"326 856 CURVE",
"333 893 OFFCURVE",
"341 929 OFFCURVE",
"350 965 CURVE SMOOTH",
"367 1036 OFFCURVE",
"386 1108 OFFCURVE",
"405 1179 CURVE SMOOTH",
"414 1214 OFFCURVE",
"424 1250 OFFCURVE",
"433 1286 CURVE",
"433 1271 LINE",
"426 1237 OFFCURVE",
"418 1203 OFFCURVE",
"410 1169 CURVE SMOOTH",
"394 1101 OFFCURVE",
"376 1032 OFFCURVE",
"357 965 CURVE SMOOTH",
"348 931 OFFCURVE",
"338 897 OFFCURVE",
"329 863 CURVE",
"328 860 OFFCURVE",
"331 858 OFFCURVE",
"334 858 CURVE",
"332 848 LINE",
"332 849 LINE",
"331 852 OFFCURVE",
"330 853 OFFCURVE",
"328 853 CURVE SMOOTH",
"325 853 OFFCURVE",
"323 852 OFFCURVE",
"322 850 CURVE",
"303 795 OFFCURVE",
"294 741 OFFCURVE",
"283 685 CURVE",
"263 621 OFFCURVE",
"244 558 OFFCURVE",
"232 490 CURVE",
"231 486 OFFCURVE",
"239 482 OFFCURVE",
"242 487 CURVE",
"243 492 OFFCURVE",
"244 496 OFFCURVE",
"247 501 CURVE",
"246 498 OFFCURVE",
"246 495 OFFCURVE",
"245 493 CURVE",
"244 490 OFFCURVE",
"244 487 OFFCURVE",
"243 484 CURVE",
"242 477 OFFCURVE",
"252 475 OFFCURVE",
"253 482 CURVE",
"258 509 OFFCURVE",
"265 535 OFFCURVE",
"274 560 CURVE SMOOTH",
"283 585 OFFCURVE",
"291 611 OFFCURVE",
"300 636 CURVE",
"300 628 LINE",
"281 579 OFFCURVE",
"263 529 OFFCURVE",
"255 478 CURVE",
"252 471 OFFCURVE",
"263 469 OFFCURVE",
"264 476 CURVE",
"271 511 OFFCURVE",
"280 544 OFFCURVE",
"291 577 CURVE",
"290 570 OFFCURVE",
"289 564 OFFCURVE",
"288 558 CURVE SMOOTH",
"287 551 OFFCURVE",
"286 545 OFFCURVE",
"285 539 CURVE",
"281 527 OFFCURVE",
"278 514 OFFCURVE",
"276 501 CURVE",
"273 494 OFFCURVE",
"283 492 OFFCURVE",
"286 499 CURVE",
"287 505 OFFCURVE",
"289 511 OFFCURVE",
"291 518 CURVE",
"292 524 OFFCURVE",
"294 530 OFFCURVE",
"295 537 CURVE",
"300 559 OFFCURVE",
"306 580 OFFCURVE",
"313 599 CURVE",
"310 583 OFFCURVE",
"309 567 OFFCURVE",
"310 551 CURVE",
"301 503 LINE",
"300 500 OFFCURVE",
"302 499 OFFCURVE",
"305 498 CURVE SMOOTH",
"311 496 OFFCURVE",
"311 501 OFFCURVE",
"314 506 CURVE",
"313 503 OFFCURVE",
"313 501 OFFCURVE",
"313 498 CURVE",
"312 495 OFFCURVE",
"312 492 OFFCURVE",
"311 489 CURVE",
"310 484 OFFCURVE",
"318 482 OFFCURVE",
"321 486 CURVE",
"330 503 OFFCURVE",
"338 518 OFFCURVE",
"345 537 CURVE",
"344 533 OFFCURVE",
"344 529 OFFCURVE",
"344 525 CURVE",
"343 521 OFFCURVE",
"342 517 OFFCURVE",
"341 514 CURVE",
"340 507 OFFCURVE",
"350 505 OFFCURVE",
"351 512 CURVE",
"358 543 OFFCURVE",
"364 572 OFFCURVE",
"373 603 CURVE",
"374 606 LINE",
"373 595 OFFCURVE",
"371 584 OFFCURVE",
"370 572 CURVE",
"369 567 OFFCURVE",
"377 565 OFFCURVE",
"380 570 CURVE",
"381 575 OFFCURVE",
"383 580 OFFCURVE",
"385 585 CURVE",
"386 589 OFFCURVE",
"388 594 OFFCURVE",
"389 599 CURVE",
"388 593 LINE",
"387 589 OFFCURVE",
"386 585 OFFCURVE",
"385 581 CURVE",
"384 576 OFFCURVE",
"383 572 OFFCURVE",
"382 567 CURVE",
"373 540 OFFCURVE",
"364 512 OFFCURVE",
"360 483 CURVE",
"360 480 OFFCURVE",
"361 478 OFFCURVE",
"364 478 CURVE",
"359 452 LINE",
"359 454 OFFCURVE",
"359 456 OFFCURVE",
"360 459 CURVE",
"361 461 OFFCURVE",
"361 464 OFFCURVE",
"362 467 CURVE",
"362 470 OFFCURVE",
"363 473 OFFCURVE",
"364 478 CURVE",
"367 478 OFFCURVE",
"369 479 OFFCURVE",
"369 480 CURVE",
"384 505 OFFCURVE",
"395 532 OFFCURVE",
"403 559 CURVE",
"403 551 OFFCURVE",
"404 544 OFFCURVE",
"405 537 CURVE",
"400 517 OFFCURVE",
"395 497 OFFCURVE",
"392 477 CURVE SMOOTH",
"391 470 OFFCURVE",
"398 469 OFFCURVE",
"401 473 CURVE",
"406 482 OFFCURVE",
"410 490 OFFCURVE",
"414 499 CURVE",
"410 484 LINE",
"410 480 OFFCURVE",
"417 476 OFFCURVE",
"420 481 CURVE",
"420 482 LINE",
"425 497 OFFCURVE",
"430 510 OFFCURVE",
"434 525 CURVE",
"436 525 OFFCURVE",
"437 526 OFFCURVE",
"438 527 CURVE",
"447 551 OFFCURVE",
"454 574 OFFCURVE",
"461 598 CURVE",
"467 613 OFFCURVE",
"472 628 OFFCURVE",
"476 645 CURVE",
"495 682 OFFCURVE",
"505 723 OFFCURVE",
"516 763 CURVE",
"531 792 OFFCURVE",
"543 823 OFFCURVE",
"552 855 CURVE",
"573 912 OFFCURVE",
"589 970 OFFCURVE",
"600 1031 CURVE",
"605 1046 OFFCURVE",
"609 1058 OFFCURVE",
"612 1073 CURVE",
"621 1098 OFFCURVE",
"627 1122 OFFCURVE",
"632 1149 CURVE",
"655 1217 OFFCURVE",
"663 1288 OFFCURVE",
"670 1360 CURVE",
"673 1360 OFFCURVE",
"674 1361 OFFCURVE",
"674 1364 CURVE SMOOTH",
"674 1391 LINE",
"677 1402 OFFCURVE",
"679 1413 OFFCURVE",
"682 1424 CURVE SMOOTH",
"685 1435 OFFCURVE",
"687 1445 OFFCURVE",
"689 1456 CURVE SMOOTH",
"694 1479 OFFCURVE",
"697 1501 OFFCURVE",
"697 1525 CURVE SMOOTH"
);
}
);
width = 703;
}
);
note = exclam;
unicode = 0021;
},
{
glyphname = quotedbl;
lastChange = "2017-07-24 05:49:16 +0000";
layers = (
{
layerId = "6CFB2232-83DA-4DC4-BCB5-DDBFA820FE35";
paths = (
{
closed = 1;
nodes = (
"1006 1212 OFFCURVE",
"996 1282 OFFCURVE",
"977 1333 CURVE",
"809 1333 LINE",
"733 1115 OFFCURVE",
"623 947 OFFCURVE",
"478 829 CURVE",
"527 729 LINE",
"650 729 LINE",
"774 824 OFFCURVE",
"893 955 OFFCURVE",
"1006 1122 CURVE"
);
},
{
closed = 1;
nodes = (
"559 1224 OFFCURVE",
"547 1297 OFFCURVE",
"522 1346 CURVE",
"362 1346 LINE",
"324 1223 OFFCURVE",
"214 1061 OFFCURVE",
"31 860 CURVE",
"78 737 LINE",
"188 741 LINE",
"319 849 OFFCURVE",
"443 978 OFFCURVE",
"559 1128 CURVE"
);
}
);
width = 1128;
}
);
note = quotedbl;
unicode = 0022;
},
{
glyphname = numbersign;
lastChange = "2017-07-24 05:49:16 +0000";
layers = (
{
layerId = "6CFB2232-83DA-4DC4-BCB5-DDBFA820FE35";
paths = (
{
closed = 1;
nodes = (
"793 872 LINE",
"846 1186 LINE",
"719 1186 LINE",
"664 872 LINE",
"446 872 LINE",
"502 1186 LINE",
"373 1186 LINE",
"313 872 LINE",
"133 872 LINE",
"133 743 LINE",
"295 743 LINE",
"244 471 LINE",
"31 471 LINE",
"31 342 LINE",
"215 342 LINE",
"152 -31 LINE",
"276 -31 LINE",
"344 342 LINE",
"571 342 LINE",
"504 -31 LINE",
"627 -31 LINE",
"694 342 LINE",
"883 342 LINE",
"883 471 LINE",
"713 471 LINE",
"768 743 LINE",
"956 743 LINE",
"956 872 LINE"
);
},
{
closed = 1;
nodes = (
"369 471 LINE",
"422 743 LINE",
"643 743 LINE",
"590 471 LINE"
);
}
);
width = 1063;
}
);
note = numbersign;
unicode = 0023;
},
{
glyphname = dollar;
lastChange = "2017-07-24 05:49:16 +0000";
layers = (
{
layerId = "6CFB2232-83DA-4DC4-BCB5-DDBFA820FE35";
paths = (
{
closed = 1;
nodes = (
"1027 1352 OFFCURVE",
"926 1381 OFFCURVE",
"809 1395 CURVE",
"842 1554 LINE",
"686 1518 LINE",
"657 1393 LINE",
"544 1362 OFFCURVE",
"448 1315 OFFCURVE",
"369 1253 CURVE SMOOTH",
"266 1176 OFFCURVE",
"215 1088 OFFCURVE",
"215 989 CURVE SMOOTH",
"215 840 OFFCURVE",
"298 787 OFFCURVE",
"498 664 CURVE",
"406 238 LINE",
"329 257 OFFCURVE",
"268 294 OFFCURVE",
"221 350 CURVE",
"31 190 LINE",
"106 81 OFFCURVE",
"212 18 OFFCURVE",
"350 0 CURVE",
"313 -178 LINE",
"459 -141 LINE",
"492 -4 LINE",
"587 -4 OFFCURVE",
"677 25 OFFCURVE",
"762 82 CURVE SMOOTH",
"931 197 OFFCURVE",
"995 363 OFFCURVE",
"995 467 CURVE SMOOTH",
"995 587 OFFCURVE",
"888 700 OFFCURVE",
"674 805 CURVE",
"766 1174 LINE",
"848 1174 OFFCURVE",
"928 1151 OFFCURVE",
"1006 1106 CURVE",
"1110 1309 LINE"
);
},
{
closed = 1;
nodes = (
"474 914 OFFCURVE",
"446 939 OFFCURVE",
"446 1008 CURVE SMOOTH",
"446 1059 OFFCURVE",
"499 1106 OFFCURVE",
"606 1149 CURVE",
"545 879 LINE"
);
},
{
closed = 1;
nodes = (
"756 337 OFFCURVE",
"660 270 OFFCURVE",
"551 246 CURVE",
"625 584 LINE",
"712 536 OFFCURVE",
"756 487 OFFCURVE",
"756 436 CURVE SMOOTH"
);
}
);
width = 1223;
}
);
note = dollar;
unicode = 0024;
},
{
glyphname = percent;
lastChange = "2017-07-24 05:49:16 +0000";
layers = (
{
layerId = "6CFB2232-83DA-4DC4-BCB5-DDBFA820FE35";
paths = (
{
closed = 1;
nodes = (
"209 0 LINE",
"360 0 LINE",
"1282 1479 LINE",
"1149 1481 LINE"
);
},
{
closed = 1;
nodes = (
"723 1386 OFFCURVE",
"647 1468 OFFCURVE",
"496 1468 CURVE SMOOTH",
"236 1468 OFFCURVE",
"31 1119 OFFCURVE",
"31 846 CURVE SMOOTH",
"31 729 OFFCURVE",
"132 645 OFFCURVE",
"252 645 CURVE SMOOTH",
"495 645 OFFCURVE",
"723 966 OFFCURVE",
"723 1223 CURVE SMOOTH"
);
},
{
closed = 1;
nodes = (
"541 1076 OFFCURVE",
"439 876 OFFCURVE",
"338 792 CURVE",
"252 792 OFFCURVE",
"209 829 OFFCURVE",
"209 903 CURVE SMOOTH",
"209 1054 OFFCURVE",
"307 1239 OFFCURVE",
"424 1339 CURVE",
"502 1339 OFFCURVE",
"541 1294 OFFCURVE",
"541 1204 CURVE SMOOTH"
);
},
{
closed = 1;
nodes = (
"1450 764 OFFCURVE",
"1374 846 OFFCURVE",
"1223 846 CURVE SMOOTH",
"963 846 OFFCURVE",
"758 496 OFFCURVE",
"758 223 CURVE SMOOTH",
"758 106 OFFCURVE",
"859 23 OFFCURVE",
"979 23 CURVE SMOOTH",
"1100 23 OFFCURVE",
"1211 89 OFFCURVE",
"1311 221 CURVE SMOOTH",
"1404 346 OFFCURVE",
"1450 472 OFFCURVE",
"1450 600 CURVE SMOOTH"
);
},
{
closed = 1;
nodes = (
"1268 453 OFFCURVE",
"1166 254 OFFCURVE",
"1065 170 CURVE",
"979 170 OFFCURVE",
"936 207 OFFCURVE",
"936 281 CURVE SMOOTH",
"936 430 OFFCURVE",
"1034 616 OFFCURVE",
"1151 717 CURVE",
"1229 717 OFFCURVE",
"1268 672 OFFCURVE",
"1268 582 CURVE SMOOTH"
);
}
);
width = 1591;
}
);
note = percent;
unicode = 0025;
},
{
glyphname = ampersand;
lastChange = "2017-07-24 05:49:16 +0000";
layers = (
{
layerId = "6CFB2232-83DA-4DC4-BCB5-DDBFA820FE35";
paths = (
{
closed = 1;
nodes = (
"1234 669 OFFCURVE",
"1142 662 OFFCURVE",
"1073 662 CURVE SMOOTH",
"1025 662 OFFCURVE",
"964 666 OFFCURVE",
"891 674 CURVE",
"836 588 LINE",
"881 569 OFFCURVE",
"903 547 OFFCURVE",
"903 522 CURVE SMOOTH",
"903 499 OFFCURVE",
"868 462 OFFCURVE",
"797 412 CURVE",
"738 468 OFFCURVE",
"696 529 OFFCURVE",
"670 596 CURVE",
"843 699 OFFCURVE",
"944 822 OFFCURVE",
"971 965 CURVE SMOOTH",
"974 982 OFFCURVE",
"975 994 OFFCURVE",
"975 1001 CURVE SMOOTH",
"975 1053 OFFCURVE",
"961 1096 OFFCURVE",
"932 1130 CURVE",
"898 1167 OFFCURVE",
"860 1186 OFFCURVE",
"817 1186 CURVE SMOOTH",
"793 1186 LINE SMOOTH",
"612 1186 OFFCURVE",
"418 949 OFFCURVE",
"418 750 CURVE SMOOTH",
"418 715 OFFCURVE",
"424 682 OFFCURVE",
"436 651 CURVE",
"165 520 OFFCURVE",
"29 376 OFFCURVE",
"29 219 CURVE SMOOTH",
"29 178 OFFCURVE",
"38 137 OFFCURVE",
"55 96 CURVE SMOOTH",
"88 20 OFFCURVE",
"157 -18 OFFCURVE",
"264 -18 CURVE SMOOTH",
"402 -18 OFFCURVE",
"560 43 OFFCURVE",
"737 164 CURVE",
"824 70 OFFCURVE",
"894 13 OFFCURVE",
"946 -6 CURVE",
"1174 104 LINE",
"1147 164 LINE",
"1137 160 LINE",
"1080 160 OFFCURVE",
"998 203 OFFCURVE",
"891 289 CURVE",
"1034 448 OFFCURVE",
"1165 528 OFFCURVE",
"1284 528 CURVE",
"1350 682 LINE"
);
},
{
closed = 1;
nodes = (
"809 874 OFFCURVE",
"742 805 OFFCURVE",
"608 743 CURVE",
"600 768 OFFCURVE",
"596 792 OFFCURVE",
"596 815 CURVE SMOOTH",
"596 884 OFFCURVE",
"620 938 OFFCURVE",
"668 977 CURVE SMOOTH",
"698 1002 OFFCURVE",
"725 1014 OFFCURVE",
"750 1014 CURVE SMOOTH",
"789 1014 OFFCURVE",
"809 993 OFFCURVE",
"809 950 CURVE SMOOTH"
);
},
{
closed = 1;
nodes = (
"495 219 OFFCURVE",
"394 178 OFFCURVE",
"330 178 CURVE SMOOTH",
"257 178 OFFCURVE",
"221 202 OFFCURVE",
"221 250 CURVE SMOOTH",
"221 315 OFFCURVE",
"315 397 OFFCURVE",
"502 496 CURVE",
"557 409 OFFCURVE",
"600 344 OFFCURVE",
"633 301 CURVE"
);
}
);
width = 1468;
}
);
note = ampersand;
unicode = 0026;
},
{
glyphname = quotesingle;
lastChange = "2017-07-24 05:49:16 +0000";
layers = (
{
layerId = "6CFB2232-83DA-4DC4-BCB5-DDBFA820FE35";
paths = (
{
closed = 1;
nodes = (
"559 1224 OFFCURVE",
"547 1297 OFFCURVE",
"522 1346 CURVE",
"362 1346 LINE",
"324 1223 OFFCURVE",
"214 1061 OFFCURVE",
"31 860 CURVE",
"78 737 LINE",
"188 741 LINE",
"319 849 OFFCURVE",
"443 978 OFFCURVE",
"559 1128 CURVE"
);
}
);
width = 698;
}
);
note = quotesingle;
unicode = 0027;
},
{
glyphname = parenleft;
lastChange = "2017-07-24 05:49:16 +0000";
layers = (
{
layerId = "6CFB2232-83DA-4DC4-BCB5-DDBFA820FE35";
paths = (
{
closed = 1;
nodes = (
"784 1364 OFFCURVE",
"641 1266 OFFCURVE",
"485 1069 CURVE SMOOTH",
"354 903 LINE SMOOTH",
"153 647 OFFCURVE",
"29 229 OFFCURVE",
"29 -123 CURVE SMOOTH",
"29 -242 OFFCURVE",
"42 -334 OFFCURVE",
"68 -399 CURVE",
"233 -498 LINE",
"301 -399 LINE",
"292 -328 OFFCURVE",
"287 -258 OFFCURVE",
"287 -188 CURVE SMOOTH",
"287 65 OFFCURVE",
"330 242 OFFCURVE",
"395 406 CURVE",
"414 448 OFFCURVE",
"450 524 OFFCURVE",
"502 633 CURVE SMOOTH",
"623 884 OFFCURVE",
"782 1048 OFFCURVE",
"977 1124 CURVE",
"1008 1229 LINE",
"913 1364 LINE"
);
}
);
width = 1128;
}
);
note = parenleft;
unicode = 0028;
},
{
glyphname = parenright;
lastChange = "2017-07-24 05:49:16 +0000";
layers = (
{
layerId = "6CFB2232-83DA-4DC4-BCB5-DDBFA820FE35";
paths = (
{
closed = 1;
nodes = (
"1008 1063 OFFCURVE",
"997 1174 OFFCURVE",
"975 1270 CURVE",
"805 1364 LINE",
"741 1270 LINE",
"741 1249 OFFCURVE",
"743 1212 OFFCURVE",
"748 1157 CURVE SMOOTH",
"752 1109 OFFCURVE",
"754 1071 OFFCURVE",
"754 1044 CURVE SMOOTH",
"754 860 OFFCURVE",
"731 707 OFFCURVE",
"686 584 CURVE SMOOTH",
"618 399 LINE SMOOTH",
"597 339 OFFCURVE",
"568 280 OFFCURVE",
"532 223 CURVE SMOOTH",
"485 154 OFFCURVE",
"449 102 OFFCURVE",
"424 68 CURVE SMOOTH",
"296 -116 OFFCURVE",
"215 -212 OFFCURVE",
"66 -256 CURVE",
"31 -362 LINE",
"127 -498 LINE",
"209 -498 OFFCURVE",
"290 -465 OFFCURVE",
"369 -399 CURVE SMOOTH",
"450 -331 OFFCURVE",
"718 -37 OFFCURVE",
"809 182 CURVE SMOOTH",
"920 446 LINE SMOOTH",
"979 587 OFFCURVE",
"1008 751 OFFCURVE",
"1008 938 CURVE SMOOTH"
);
}
);
width = 1128;
}
);
note = parenright;
unicode = 0029;
},
{
glyphname = asterisk;
lastChange = "2017-07-24 05:49:16 +0000";
layers = (
{
layerId = "6CFB2232-83DA-4DC4-BCB5-DDBFA820FE35";
paths = (
{
closed = 1;
nodes = (
"633 1092 LINE",
"467 1210 LINE",
"367 1014 LINE",
"264 1210 LINE",
"96 1092 LINE",
"252 932 LINE",
"31 897 LINE",
"96 700 LINE",
"293 799 LINE",
"264 582 LINE",
"467 582 LINE",
"436 805 LINE",
"633 705 LINE",
"698 897 LINE",
"477 932 LINE"
);
}
);
width = 817;
}
);
note = asterisk;
unicode = 002A;
},
{
glyphname = plus;
lastChange = "2017-07-24 05:49:16 +0000";
layers = (
{
layerId = "6CFB2232-83DA-4DC4-BCB5-DDBFA820FE35";
paths = (
{
closed = 1;
nodes = (
"719 682 LINE",
"719 1079 LINE",
"436 1079 LINE",
"434 682 LINE",
"31 682 LINE",
"35 399 LINE",
"434 399 LINE",
"434 4 LINE",
"719 4 LINE",
"719 399 LINE",
"1112 399 LINE",
"1112 682 LINE"
);
}
);
width = 1251;
}
);
note = plus;
unicode = 002B;
},
{
glyphname = comma;
lastChange = "2017-07-24 05:49:16 +0000";
layers = (
{
layerId = "6CFB2232-83DA-4DC4-BCB5-DDBFA820FE35";
paths = (
{
closed = 1;
nodes = (
"544 259 OFFCURVE",
"497 322 OFFCURVE",
"412 375 CURVE",
"338 330 LINE",
"218 106 OFFCURVE",
"116 -55 OFFCURVE",
"31 -152 CURVE",
"104 -274 LINE",
"207 -276 LINE",
"386 -80 OFFCURVE",
"501 75 OFFCURVE",
"553 188 CURVE"
);
}
);
width = 668;
}
);
note = comma;
unicode = 002C;
},
{
glyphname = hyphen;
lastChange = "2017-07-24 05:49:16 +0000";
layers = (
{
layerId = "6CFB2232-83DA-4DC4-BCB5-DDBFA820FE35";
paths = (
{
closed = 1;
nodes = (
"163 676 OFFCURVE",
"158 671 OFFCURVE",
"154 666 CURVE",
"123 661 OFFCURVE",
"93 656 OFFCURVE",
"70 633 CURVE SMOOTH",
"67 630 OFFCURVE",
"73 618 OFFCURVE",
"76 618 CURVE",
"83 619 OFFCURVE",
"89 621 OFFCURVE",
"95 623 CURVE",
"100 625 OFFCURVE",
"106 627 OFFCURVE",
"113 629 CURVE",
"112 628 OFFCURVE",
"111 626 OFFCURVE",
"110 624 CURVE SMOOTH",
"109 622 OFFCURVE",
"107 620 OFFCURVE",
"106 619 CURVE",
"106 618 LINE",
"97 609 LINE SMOOTH",
"94 606 OFFCURVE",
"100 594 OFFCURVE",
"103 594 CURVE",
"116 599 OFFCURVE",
"130 605 OFFCURVE",
"144 610 CURVE SMOOTH",
"158 615 OFFCURVE",
"172 621 OFFCURVE",
"186 626 CURVE",
"173 615 OFFCURVE",
"162 607 OFFCURVE",
"150 596 CURVE",
"119 587 OFFCURVE",
"89 571 OFFCURVE",
"65 547 CURVE SMOOTH",
"59 541 LINE SMOOTH",
"58 540 OFFCURVE",
"58 537 OFFCURVE",
"60 534 CURVE",
"64 526 OFFCURVE",
"69 527 OFFCURVE",
"74 527 CURVE SMOOTH",
"77 527 OFFCURVE",
"80 527 OFFCURVE",
"83 528 CURVE",
"80 525 OFFCURVE",
"78 522 OFFCURVE",
"76 520 CURVE SMOOTH",
"71 515 OFFCURVE",
"65 511 OFFCURVE",
"69 503 CURVE",
"73 494 OFFCURVE",
"77 498 OFFCURVE",
"84 503 CURVE SMOOTH",
"91 508 OFFCURVE",
"98 513 OFFCURVE",
"105 517 CURVE",
"106 516 OFFCURVE",
"106 516 OFFCURVE",
"107 516 CURVE",
"110 517 OFFCURVE",
"114 519 OFFCURVE",
"118 520 CURVE",
"121 521 OFFCURVE",
"125 523 OFFCURVE",
"128 524 CURVE",
"125 521 OFFCURVE",
"124 519 OFFCURVE",
"123 518 CURVE SMOOTH",
"120 515 OFFCURVE",
"126 504 OFFCURVE",
"129 504 CURVE",
"129 500 OFFCURVE",
"132 492 OFFCURVE",
"135 493 CURVE",
"144 495 LINE",
"117 483 LINE",
"113 480 OFFCURVE",
"119 467 OFFCURVE",
"122 468 CURVE",
"133 473 OFFCURVE",
"144 477 OFFCURVE",
"157 481 CURVE",
"151 474 OFFCURVE",
"147 467 OFFCURVE",
"144 459 CURVE",
"133 450 OFFCURVE",
"122 440 OFFCURVE",
"111 427 CURVE",
"108 423 OFFCURVE",
"113 412 OFFCURVE",
"117 412 CURVE",
"130 416 OFFCURVE",
"143 422 OFFCURVE",
"156 430 CURVE",
"157 425 OFFCURVE",
"159 422 OFFCURVE",
"161 422 CURVE",
"178 427 OFFCURVE",
"194 433 OFFCURVE",
"210 442 CURVE",
"216 444 LINE",
"204 431 OFFCURVE",
"193 417 OFFCURVE",
"182 404 CURVE SMOOTH",
"171 391 OFFCURVE",
"158 380 OFFCURVE",
"144 373 CURVE",
"126 366 LINE",
"125 365 OFFCURVE",
"125 362 OFFCURVE",
"127 357 CURVE",
"130 348 OFFCURVE",
"136 353 OFFCURVE",
"141 355 CURVE",
"144 356 OFFCURVE",
"146 357 OFFCURVE",
"149 358 CURVE",
"199 377 LINE",
"199 376 OFFCURVE",
"198 373 OFFCURVE",
"197 369 CURVE",
"196 367 OFFCURVE",
"195 365 OFFCURVE",
"195 363 CURVE",
"194 360 OFFCURVE",
"194 358 OFFCURVE",
"193 356 CURVE",
"192 353 OFFCURVE",
"194 346 OFFCURVE",
"197 343 CURVE",
"208 335 OFFCURVE",
"213 340 OFFCURVE",
"220 343 CURVE",
"251 336 OFFCURVE",
"276 344 OFFCURVE",
"301 357 CURVE",
"302 357 LINE",
"314 358 OFFCURVE",
"326 360 OFFCURVE",
"338 361 CURVE",
"361 364 OFFCURVE",
"384 366 OFFCURVE",
"408 366 CURVE SMOOTH",
"419 366 OFFCURVE",
"431 366 OFFCURVE",
"442 367 CURVE",
"465 368 OFFCURVE",
"488 368 OFFCURVE",
"510 368 CURVE",
"531 367 OFFCURVE",
"553 368 OFFCURVE",
"574 369 CURVE",
"577 369 OFFCURVE",
"576 384 OFFCURVE",
"573 384 CURVE",
"554 383 OFFCURVE",
"536 382 OFFCURVE",
"517 383 CURVE",
"498 383 OFFCURVE",
"478 383 OFFCURVE",
"459 383 CURVE SMOOTH",
"418 382 OFFCURVE",
"377 381 OFFCURVE",
"336 377 CURVE",
"340 380 OFFCURVE",
"342 381 OFFCURVE",
"343 382 CURVE",
"382 393 OFFCURVE",
"419 395 OFFCURVE",
"458 396 CURVE SMOOTH",
"497 396 OFFCURVE",
"534 392 OFFCURVE",
"569 387 CURVE",
"570 386 OFFCURVE",
"571 387 OFFCURVE",
"571 390 CURVE SMOOTH",
"571 392 OFFCURVE",
"571 394 OFFCURVE",
"571 397 CURVE",
"572 396 OFFCURVE",
"574 396 OFFCURVE",
"576 396 CURVE",
"575 396 LINE",
"572 393 OFFCURVE",
"574 381 OFFCURVE",
"577 381 CURVE",
"591 376 OFFCURVE",
"605 373 OFFCURVE",
"618 373 CURVE",
"631 372 OFFCURVE",
"644 372 OFFCURVE",
"657 371 CURVE",
"665 367 OFFCURVE",
"672 364 OFFCURVE",
"679 361 CURVE",
"681 360 OFFCURVE",
"683 359 OFFCURVE",
"685 359 CURVE",
"686 358 OFFCURVE",
"688 357 OFFCURVE",
"689 356 CURVE",
"694 355 OFFCURVE",
"696 354 OFFCURVE",
"700 351 CURVE",
"704 350 OFFCURVE",
"707 349 OFFCURVE",
"710 348 CURVE",
"711 347 OFFCURVE",
"713 347 OFFCURVE",
"715 346 CURVE SMOOTH",
"717 345 OFFCURVE",
"719 345 OFFCURVE",
"720 344 CURVE",
"723 343 OFFCURVE",
"727 343 OFFCURVE",
"730 342 CURVE SMOOTH",
"733 341 OFFCURVE",
"737 340 OFFCURVE",
"740 339 CURVE",
"741 338 OFFCURVE",
"743 340 OFFCURVE",
"744 345 CURVE",
"747 353 OFFCURVE",
"744 356 OFFCURVE",
"739 359 CURVE",
"740 358 OFFCURVE",
"742 358 OFFCURVE",
"743 358 CURVE SMOOTH",
"744 358 OFFCURVE",
"745 358 OFFCURVE",
"746 357 CURVE",
"749 356 OFFCURVE",
"754 371 OFFCURVE",
"751 372 CURVE SMOOTH",
"748 373 OFFCURVE",
"745 374 OFFCURVE",
"743 375 CURVE",
"740 376 OFFCURVE",
"737 378 OFFCURVE",
"734 379 CURVE SMOOTH",
"731 380 OFFCURVE",
"729 382 OFFCURVE",
"727 384 CURVE",
"724 385 OFFCURVE",
"721 387 OFFCURVE",
"718 388 CURVE",
"711 392 OFFCURVE",
"706 395 OFFCURVE",
"701 399 CURVE",
"698 401 OFFCURVE",
"695 403 OFFCURVE",
"692 405 CURVE",
"689 406 OFFCURVE",
"686 408 OFFCURVE",
"683 409 CURVE",
"687 410 LINE",
"692 407 OFFCURVE",
"698 403 OFFCURVE",
"704 399 CURVE",
"709 395 OFFCURVE",
"715 391 OFFCURVE",
"720 388 CURVE",
"723 387 OFFCURVE",
"726 385 OFFCURVE",
"729 384 CURVE",
"731 382 OFFCURVE",
"734 380 OFFCURVE",
"737 379 CURVE",
"742 376 OFFCURVE",
"746 375 OFFCURVE",
"753 375 CURVE",
"756 374 OFFCURVE",
"761 389 OFFCURVE",
"758 390 CURVE",
"742 393 OFFCURVE",
"728 401 OFFCURVE",
"713 410 CURVE",
"714 410 OFFCURVE",
"716 410 OFFCURVE",
"717 410 CURVE SMOOTH",
"718 410 OFFCURVE",
"720 410 OFFCURVE",
"721 409 CURVE",
"726 409 OFFCURVE",
"729 409 OFFCURVE",
"730 408 CURVE",
"737 405 OFFCURVE",
"743 403 OFFCURVE",
"748 402 CURVE",
"751 401 OFFCURVE",
"755 416 OFFCURVE",
"752 417 CURVE",
"746 420 OFFCURVE",
"740 422 OFFCURVE",
"734 423 CURVE",
"731 424 OFFCURVE",
"729 425 OFFCURVE",
"726 427 CURVE",
"725 427 OFFCURVE",
"724 427 OFFCURVE",
"723 428 CURVE SMOOTH",
"722 429 OFFCURVE",
"720 429 OFFCURVE",
"719 429 CURVE",
"716 430 OFFCURVE",
"714 432 OFFCURVE",
"712 433 CURVE",
"709 434 OFFCURVE",
"707 436 OFFCURVE",
"704 437 CURVE",
"712 437 OFFCURVE",
"721 439 OFFCURVE",
"730 444 CURVE",
"738 441 OFFCURVE",
"746 440 OFFCURVE",
"754 439 CURVE",
"757 439 OFFCURVE",
"761 451 OFFCURVE",
"758 454 CURVE SMOOTH",
"757 455 OFFCURVE",
"757 455 OFFCURVE",
"757 456 CURVE",
"756 457 LINE",
"757 457 OFFCURVE",
"759 457 OFFCURVE",
"760 457 CURVE SMOOTH",
"761 457 OFFCURVE",
"763 457 OFFCURVE",
"764 456 CURVE",
"767 455 OFFCURVE",
"772 467 OFFCURVE",
"769 470 CURVE",
"762 483 OFFCURVE",
"754 491 OFFCURVE",
"745 498 CURVE",
"747 498 OFFCURVE",
"749 498 OFFCURVE",
"752 498 CURVE SMOOTH",
"754 498 OFFCURVE",
"756 497 OFFCURVE",
"758 496 CURVE",
"761 495 OFFCURVE",
"764 509 OFFCURVE",
"761 512 CURVE",
"752 513 OFFCURVE",
"743 515 OFFCURVE",
"734 518 CURVE",
"730 519 OFFCURVE",
"726 521 OFFCURVE",
"722 522 CURVE",
"717 523 OFFCURVE",
"713 525 OFFCURVE",
"709 526 CURVE",
"708 526 OFFCURVE",
"707 527 OFFCURVE",
"706 528 CURVE",
"726 528 LINE SMOOTH",
"728 528 OFFCURVE",
"729 530 OFFCURVE",
"730 535 CURVE",
"731 544 OFFCURVE",
"726 546 OFFCURVE",
"720 548 CURVE SMOOTH",
"717 549 OFFCURVE",
"713 550 OFFCURVE",
"710 551 CURVE",
"712 551 OFFCURVE",
"716 550 OFFCURVE",
"721 549 CURVE SMOOTH",
"732 547 LINE",
"736 545 OFFCURVE",
"740 543 OFFCURVE",
"744 541 CURVE SMOOTH",
"752 537 OFFCURVE",
"760 535 OFFCURVE",
"769 533 CURVE SMOOTH",
"773 532 OFFCURVE",
"777 530 OFFCURVE",
"782 529 CURVE",
"785 528 OFFCURVE",
"789 541 OFFCURVE",
"786 544 CURVE",
"779 553 OFFCURVE",
"772 559 OFFCURVE",
"764 566 CURVE",
"760 569 OFFCURVE",
"756 571 OFFCURVE",
"752 574 CURVE",
"749 576 OFFCURVE",
"745 578 OFFCURVE",
"740 581 CURVE",
"743 582 OFFCURVE",
"745 583 OFFCURVE",
"748 584 CURVE",
"750 585 OFFCURVE",
"752 587 OFFCURVE",
"755 588 CURVE",
"758 587 OFFCURVE",
"762 586 OFFCURVE",
"765 585 CURVE SMOOTH",
"768 584 OFFCURVE",
"772 583 OFFCURVE",
"775 582 CURVE",
"776 581 OFFCURVE",
"778 581 OFFCURVE",
"780 581 CURVE",
"781 580 OFFCURVE",
"783 580 OFFCURVE",
"784 579 CURVE",
"788 579 OFFCURVE",
"791 578 OFFCURVE",
"795 577 CURVE",
"798 577 OFFCURVE",
"802 589 OFFCURVE",
"799 592 CURVE",
"795 599 OFFCURVE",
"787 604 OFFCURVE",
"783 607 CURVE",
"793 604 LINE",
"797 603 OFFCURVE",
"801 615 OFFCURVE",
"798 618 CURVE SMOOTH",
"797 619 LINE",
"788 626 OFFCURVE",
"778 629 OFFCURVE",
"769 633 CURVE",
"769 636 OFFCURVE",
"768 637 OFFCURVE",
"767 638 CURVE",
"760 643 OFFCURVE",
"752 648 OFFCURVE",
"743 651 CURVE",
"734 655 OFFCURVE",
"726 657 OFFCURVE",
"717 660 CURVE",
"706 667 OFFCURVE",
"696 669 OFFCURVE",
"685 672 CURVE",
"657 689 OFFCURVE",
"627 696 OFFCURVE",
"598 699 CURVE",
"575 712 OFFCURVE",
"551 719 OFFCURVE",
"528 722 CURVE",
"506 728 OFFCURVE",
"484 731 OFFCURVE",
"463 731 CURVE SMOOTH",
"441 731 OFFCURVE",
"419 729 OFFCURVE",
"398 725 CURVE",
"389 726 OFFCURVE",
"378 726 OFFCURVE",
"367 724 CURVE",
"359 726 OFFCURVE",
"350 726 OFFCURVE",
"339 725 CURVE SMOOTH",
"330 724 OFFCURVE",
"320 723 OFFCURVE",
"311 720 CURVE",
"286 723 OFFCURVE",
"262 717 OFFCURVE",
"239 708 CURVE",
"216 700 OFFCURVE",
"195 689 OFFCURVE",
"172 676 CURVE",
"171 679 OFFCURVE",
"169 680 OFFCURVE",
"168 679 CURVE"
);
}
);
width = 897;
}
);
note = hyphen;
unicode = 002D;
},
{
glyphname = period;
lastChange = "2017-07-24 05:49:16 +0000";
layers = (
{
layerId = "6CFB2232-83DA-4DC4-BCB5-DDBFA820FE35";
paths = (
{
closed = 1;
nodes = (
"30 208 OFFCURVE",
"62 136 OFFCURVE",
"114 84 CURVE SMOOTH",
"166 32 OFFCURVE",
"238 0 OFFCURVE",
"318 0 CURVE SMOOTH",
"398 0 OFFCURVE",
"470 32 OFFCURVE",
"522 84 CURVE SMOOTH",
"574 136 OFFCURVE",
"606 208 OFFCURVE",
"606 288 CURVE SMOOTH",
"606 368 OFFCURVE",
"574 440 OFFCURVE",
"522 492 CURVE SMOOTH",
"470 544 OFFCURVE",
"398 576 OFFCURVE",
"318 576 CURVE SMOOTH",
"238 576 OFFCURVE",
"166 544 OFFCURVE",
"114 492 CURVE SMOOTH",
"62 440 OFFCURVE",
"30 368 OFFCURVE",
"30 288 CURVE SMOOTH"
);
}
);
width = 636;
}
);
note = period;
unicode = 002E;
},
{
glyphname = slash;
lastChange = "2017-07-24 05:49:16 +0000";
layers = (
{
layerId = "6CFB2232-83DA-4DC4-BCB5-DDBFA820FE35";
paths = (
{
closed = 1;
nodes = (
"31 0 LINE",
"172 0 LINE",
"657 1438 LINE",
"510 1438 LINE"
);
}
);
width = 791;
}
);
note = slash;
unicode = 002F;
},
{
glyphname = zero;
lastChange = "2017-07-24 05:49:16 +0000";
layers = (
{
layerId = "6CFB2232-83DA-4DC4-BCB5-DDBFA820FE35";
paths = (
{
closed = 1;
nodes = (
"963 1054 OFFCURVE",
"950 1082 OFFCURVE",
"931 1109 CURVE",
"928 1112 OFFCURVE",
"926 1116 OFFCURVE",
"924 1119 CURVE",
"921 1122 OFFCURVE",
"919 1125 OFFCURVE",
"916 1128 CURVE",
"915 1130 OFFCURVE",
"912 1133 OFFCURVE",
"908 1137 CURVE SMOOTH",
"904 1141 LINE",
"900 1146 LINE",
"896 1150 OFFCURVE",
"893 1153 OFFCURVE",
"891 1154 CURVE",
"882 1163 LINE SMOOTH",
"881 1164 OFFCURVE",
"879 1166 OFFCURVE",
"878 1167 CURVE",
"874 1170 OFFCURVE",
"871 1173 OFFCURVE",
"868 1175 CURVE",
"866 1176 OFFCURVE",
"864 1177 OFFCURVE",
"863 1178 CURVE",
"849 1189 OFFCURVE",
"835 1197 OFFCURVE",
"821 1204 CURVE SMOOTH",
"815 1207 LINE",
"810 1210 LINE",
"809 1211 OFFCURVE",
"807 1211 OFFCURVE",
"805 1212 CURVE",
"802 1213 OFFCURVE",
"800 1213 OFFCURVE",
"799 1214 CURVE",
"787 1219 LINE",
"785 1220 OFFCURVE",
"783 1220 OFFCURVE",
"782 1221 CURVE",
"780 1222 OFFCURVE",
"778 1222 OFFCURVE",
"776 1223 CURVE",
"768 1225 OFFCURVE",
"760 1227 OFFCURVE",
"753 1229 CURVE SMOOTH",
"745 1231 OFFCURVE",
"737 1233 OFFCURVE",
"729 1234 CURVE",
"725 1235 OFFCURVE",
"721 1236 OFFCURVE",
"717 1236 CURVE SMOOTH",
"713 1236 OFFCURVE",
"709 1236 OFFCURVE",
"705 1237 CURVE",
"693 1238 LINE",
"686 1238 LINE",
"681 1238 LINE",
"680 1239 OFFCURVE",
"678 1241 OFFCURVE",
"674 1242 CURVE",
"673 1242 OFFCURVE",
"673 1242 OFFCURVE",
"672 1243 CURVE",
"671 1243 OFFCURVE",
"667 1244 OFFCURVE",
"666 1244 CURVE",
"665 1243 OFFCURVE",
"664 1243 OFFCURVE",
"663 1243 CURVE",
"630 1240 OFFCURVE",
"598 1235 OFFCURVE",
"565 1224 CURVE",
"549 1220 LINE",
"548 1219 OFFCURVE",
"547 1219 OFFCURVE",
"546 1219 CURVE SMOOTH",
"545 1219 OFFCURVE",
"543 1219 OFFCURVE",
"542 1218 CURVE",
"533 1216 LINE",
"530 1215 OFFCURVE",
"525 1213 OFFCURVE",
"518 1212 CURVE",
"502 1206 LINE",
"497 1205 OFFCURVE",
"492 1204 OFFCURVE",
"486 1201 CURVE",
"483 1200 OFFCURVE",
"481 1199 OFFCURVE",
"478 1198 CURVE SMOOTH",
"475 1197 OFFCURVE",
"473 1196 OFFCURVE",
"471 1195 CURVE",
"466 1192 OFFCURVE",
"460 1190 OFFCURVE",
"455 1188 CURVE SMOOTH",
"450 1186 OFFCURVE",
"444 1183 OFFCURVE",
"439 1180 CURVE",
"424 1172 LINE",
"408 1164 LINE",
"400 1160 LINE",
"393 1155 LINE",
"378 1146 LINE",
"375 1145 OFFCURVE",
"372 1143 OFFCURVE",
"370 1141 CURVE SMOOTH",
"366 1137 OFFCURVE",
"360 1134 OFFCURVE",
"356 1131 CURVE",
"353 1130 OFFCURVE",
"351 1128 OFFCURVE",
"348 1126 CURVE",
"343 1123 OFFCURVE",
"338 1119 OFFCURVE",
"334 1116 CURVE SMOOTH",
"329 1112 OFFCURVE",
"324 1108 OFFCURVE",
"319 1104 CURVE",
"316 1102 OFFCURVE",
"314 1100 OFFCURVE",
"312 1099 CURVE",
"310 1097 OFFCURVE",
"308 1095 OFFCURVE",
"305 1093 CURVE",
"293 1083 LINE SMOOTH",
"285 1076 OFFCURVE",
"280 1072 OFFCURVE",
"273 1065 CURVE",
"268 1059 OFFCURVE",
"262 1053 OFFCURVE",
"256 1048 CURVE",
"253 1045 OFFCURVE",
"251 1042 OFFCURVE",
"248 1039 CURVE SMOOTH",
"245 1036 OFFCURVE",
"243 1032 OFFCURVE",
"240 1029 CURVE SMOOTH",
"217 1005 OFFCURVE",
"198 979 OFFCURVE",
"182 951 CURVE",
"177 944 OFFCURVE",
"179 939 OFFCURVE",
"183 938 CURVE",
"186 936 OFFCURVE",
"190 938 OFFCURVE",
"196 944 CURVE",
"213 965 OFFCURVE",
"231 985 OFFCURVE",
"250 1005 CURVE SMOOTH",
"255 1010 OFFCURVE",
"259 1014 OFFCURVE",
"264 1019 CURVE SMOOTH",
"269 1024 OFFCURVE",
"274 1028 OFFCURVE",
"279 1033 CURVE SMOOTH",
"293 1047 LINE SMOOTH",
"296 1050 OFFCURVE",
"299 1052 OFFCURVE",
"302 1054 CURVE",
"304 1056 OFFCURVE",
"307 1058 OFFCURVE",
"310 1061 CURVE",
"303 1054 OFFCURVE",
"301 1052 OFFCURVE",
"297 1045 CURVE",
"295 1042 OFFCURVE",
"293 1040 OFFCURVE",
"291 1038 CURVE",
"289 1035 OFFCURVE",
"287 1032 OFFCURVE",
"286 1029 CURVE",
"285 1028 OFFCURVE",
"285 1028 OFFCURVE",
"285 1028 CURVE",
"285 1027 OFFCURVE",
"285 1027 OFFCURVE",
"284 1027 CURVE",
"279 1020 OFFCURVE",
"273 1014 OFFCURVE",
"269 1007 CURVE",
"266 1004 OFFCURVE",
"264 1001 OFFCURVE",
"261 998 CURVE",
"256 992 OFFCURVE",
"245 979 OFFCURVE",
"254 975 CURVE",
"262 971 OFFCURVE",
"274 985 OFFCURVE",
"284 996 CURVE",
"289 1001 OFFCURVE",
"294 1007 OFFCURVE",
"299 1012 CURVE SMOOTH",
"302 1015 OFFCURVE",
"305 1018 OFFCURVE",
"308 1021 CURVE SMOOTH",
"310 1023 OFFCURVE",
"313 1025 OFFCURVE",
"316 1028 CURVE",
"321 1032 LINE",
"323 1034 LINE",
"325 1036 LINE",
"336 1045 LINE",
"341 1049 LINE",
"346 1055 LINE",
"359 1064 LINE",
"367 1071 OFFCURVE",
"375 1076 OFFCURVE",
"384 1083 CURVE",
"392 1088 OFFCURVE",
"400 1093 OFFCURVE",
"409 1100 CURVE",
"414 1102 OFFCURVE",
"418 1105 OFFCURVE",
"422 1108 CURVE",
"435 1116 LINE",
"442 1119 LINE",
"449 1124 LINE",
"462 1130 LINE",
"475 1137 LINE",
"478 1138 OFFCURVE",
"480 1139 OFFCURVE",
"482 1140 CURVE SMOOTH",
"484 1141 OFFCURVE",
"486 1142 OFFCURVE",
"489 1143 CURVE",
"503 1149 LINE",
"505 1150 OFFCURVE",
"507 1151 OFFCURVE",
"510 1152 CURVE",
"512 1153 OFFCURVE",
"514 1154 OFFCURVE",
"516 1155 CURVE",
"523 1158 LINE",
"525 1158 OFFCURVE",
"527 1159 OFFCURVE",
"530 1160 CURVE SMOOTH",
"544 1165 LINE",
"563 1170 OFFCURVE",
"580 1175 OFFCURVE",
"599 1178 CURVE",
"617 1182 OFFCURVE",
"635 1184 OFFCURVE",
"654 1184 CURVE",
"645 1183 OFFCURVE",
"636 1182 OFFCURVE",
"627 1181 CURVE SMOOTH",
"618 1180 OFFCURVE",
"609 1178 OFFCURVE",
"600 1175 CURVE",
"581 1170 OFFCURVE",
"565 1165 OFFCURVE",
"546 1158 CURVE",
"529 1151 OFFCURVE",
"512 1143 OFFCURVE",
"495 1134 CURVE SMOOTH",
"486 1129 OFFCURVE",
"478 1125 OFFCURVE",
"470 1120 CURVE SMOOTH",
"462 1115 OFFCURVE",
"454 1109 OFFCURVE",
"445 1104 CURVE SMOOTH",
"436 1099 OFFCURVE",
"427 1093 OFFCURVE",
"418 1087 CURVE SMOOTH",
"409 1081 OFFCURVE",
"399 1075 OFFCURVE",
"390 1069 CURVE",
"387 1068 OFFCURVE",
"385 1066 OFFCURVE",
"383 1064 CURVE SMOOTH",
"379 1060 OFFCURVE",
"374 1057 OFFCURVE",
"370 1054 CURVE",
"368 1053 OFFCURVE",
"366 1051 OFFCURVE",
"364 1048 CURVE",
"359 1045 OFFCURVE",
"354 1041 OFFCURVE",
"351 1038 CURVE",
"346 1035 OFFCURVE",
"343 1032 OFFCURVE",
"340 1029 CURVE",
"334 1024 LINE",
"333 1023 OFFCURVE",
"332 1022 OFFCURVE",
"332 1021 CURVE",
"331 1020 OFFCURVE",
"330 1020 OFFCURVE",
"329 1019 CURVE",
"320 1011 LINE",
"302 993 LINE SMOOTH",
"296 987 OFFCURVE",
"290 981 OFFCURVE",
"285 975 CURVE",
"280 968 OFFCURVE",
"274 962 OFFCURVE",
"269 956 CURVE SMOOTH",
"247 929 OFFCURVE",
"228 901 OFFCURVE",
"213 872 CURVE SMOOTH",
"197 841 OFFCURVE",
"183 812 OFFCURVE",
"172 779 CURVE SMOOTH",
"171 776 OFFCURVE",
"170 773 OFFCURVE",
"170 771 CURVE",
"169 768 OFFCURVE",
"168 765 OFFCURVE",
"167 762 CURVE",
"163 745 LINE SMOOTH",
"160 732 OFFCURVE",
"172 728 OFFCURVE",
"177 739 CURVE SMOOTH",
"188 762 OFFCURVE",
"199 782 OFFCURVE",
"211 801 CURVE",
"208 793 OFFCURVE",
"206 785 OFFCURVE",
"203 777 CURVE",
"202 776 OFFCURVE",
"202 775 OFFCURVE",
"202 775 CURVE",
"200 773 LINE",
"200 772 LINE",
"179 742 OFFCURVE",
"162 711 OFFCURVE",
"147 680 CURVE",
"144 680 OFFCURVE",
"142 678 OFFCURVE",
"140 674 CURVE",
"136 668 OFFCURVE",
"132 662 OFFCURVE",
"129 655 CURVE",
"118 634 LINE",
"111 619 OFFCURVE",
"105 607 OFFCURVE",
"100 592 CURVE SMOOTH",
"89 561 OFFCURVE",
"79 533 OFFCURVE",
"72 502 CURVE SMOOTH",
"71 497 OFFCURVE",
"69 492 OFFCURVE",
"68 487 CURVE",
"65 478 OFFCURVE",
"63 466 OFFCURVE",
"61 457 CURVE SMOOTH",
"60 452 OFFCURVE",
"58 447 OFFCURVE",
"57 442 CURVE",
"56 439 OFFCURVE",
"56 436 OFFCURVE",
"56 434 CURVE",
"55 431 OFFCURVE",
"55 429 OFFCURVE",
"54 426 CURVE",
"52 410 LINE",
"50 394 LINE",
"49 391 OFFCURVE",
"49 387 OFFCURVE",
"49 384 CURVE SMOOTH",
"49 381 OFFCURVE",
"49 377 OFFCURVE",
"49 374 CURVE",
"48 370 OFFCURVE",
"47 366 OFFCURVE",
"47 362 CURVE SMOOTH",
"47 357 OFFCURVE",
"46 353 OFFCURVE",
"45 348 CURVE",
"44 321 LINE",
"43 312 OFFCURVE",
"43 303 OFFCURVE",
"44 294 CURVE",
"44 285 OFFCURVE",
"44 276 OFFCURVE",
"44 267 CURVE",
"45 259 LINE",
"45 252 LINE",
"47 239 LINE",
"49 212 LINE",
"50 209 LINE",
"51 205 LINE",
"52 199 LINE",
"55 185 LINE",
"58 172 LINE",
"59 165 LINE",
"60 164 OFFCURVE",
"60 163 OFFCURVE",
"60 162 CURVE SMOOTH",
"60 161 OFFCURVE",
"60 159 OFFCURVE",
"61 158 CURVE",
"69 133 LINE",
"70 128 OFFCURVE",
"72 124 OFFCURVE",
"73 120 CURVE",
"74 115 OFFCURVE",
"75 111 OFFCURVE",
"77 108 CURVE",
"87 83 LINE",
"88 79 OFFCURVE",
"89 75 OFFCURVE",
"92 72 CURVE",
"98 61 LINE",
"111 38 LINE",
"114 33 LINE",
"115 30 OFFCURVE",
"116 29 OFFCURVE",
"117 28 CURVE",
"124 18 LINE SMOOTH",
"126 15 OFFCURVE",
"128 12 OFFCURVE",
"131 8 CURVE",
"139 -1 LINE",
"140 -2 OFFCURVE",
"142 -4 OFFCURVE",
"143 -5 CURVE",
"144 -7 OFFCURVE",
"146 -9 OFFCURVE",
"147 -10 CURVE SMOOTH",
"150 -13 OFFCURVE",
"153 -16 OFFCURVE",
"156 -19 CURVE",
"172 -40 OFFCURVE",
"191 -57 OFFCURVE",
"214 -70 CURVE SMOOTH",
"227 -77 OFFCURVE",
"239 -83 OFFCURVE",
"251 -88 CURVE",
"263 -92 OFFCURVE",
"276 -95 OFFCURVE",
"289 -98 CURVE",
"294 -98 LINE",
"299 -99 LINE",
"309 -100 LINE",
"318 -100 LINE",
"323 -101 LINE",
"328 -101 LINE",
"338 -100 LINE",
"348 -100 LINE SMOOTH",
"355 -100 OFFCURVE",
"360 -99 OFFCURVE",
"367 -98 CURVE SMOOTH",
"392 -94 OFFCURVE",
"417 -87 OFFCURVE",
"443 -77 CURVE SMOOTH",
"466 -68 OFFCURVE",
"488 -55 OFFCURVE",
"511 -40 CURVE",
"523 -33 OFFCURVE",
"534 -25 OFFCURVE",
"545 -17 CURVE",
"550 -12 OFFCURVE",
"556 -8 OFFCURVE",
"562 -3 CURVE SMOOTH",
"567 1 OFFCURVE",
"573 6 OFFCURVE",
"578 11 CURVE SMOOTH",
"583 16 OFFCURVE",
"589 22 OFFCURVE",
"595 27 CURVE",
"600 32 OFFCURVE",
"606 37 OFFCURVE",
"611 42 CURVE",
"626 59 LINE",
"634 67 LINE",
"641 76 LINE",
"644 79 OFFCURVE",
"646 82 OFFCURVE",
"649 85 CURVE SMOOTH",
"652 88 OFFCURVE",
"654 91 OFFCURVE",
"656 94 CURVE",
"671 112 LINE",
"674 115 OFFCURVE",
"676 119 OFFCURVE",
"678 122 CURVE SMOOTH",
"680 125 OFFCURVE",
"682 128 OFFCURVE",
"685 131 CURVE",
"699 149 LINE SMOOTH",
"706 158 OFFCURVE",
"712 167 OFFCURVE",
"717 175 CURVE",
"728 191 OFFCURVE",
"739 207 OFFCURVE",
"748 223 CURVE",
"753 231 OFFCURVE",
"758 239 OFFCURVE",
"763 248 CURVE SMOOTH",
"782 280 OFFCURVE",
"800 312 OFFCURVE",
"815 347 CURVE",
"835 378 OFFCURVE",
"850 408 OFFCURVE",
"865 443 CURVE",
"895 500 OFFCURVE",
"919 560 OFFCURVE",
"938 625 CURVE",
"943 636 OFFCURVE",
"946 647 OFFCURVE",
"949 656 CURVE",
"950 657 OFFCURVE",
"950 659 OFFCURVE",
"951 661 CURVE",
"951 662 OFFCURVE",
"952 664 OFFCURVE",
"953 665 CURVE",
"956 676 LINE",
"959 686 LINE",
"959 689 LINE",
"961 692 LINE",
"962 699 LINE",
"970 727 LINE",
"977 755 LINE",
"978 758 OFFCURVE",
"978 760 OFFCURVE",
"979 762 CURVE",
"979 764 OFFCURVE",
"979 766 OFFCURVE",
"980 769 CURVE",
"982 784 LINE",
"985 798 LINE SMOOTH",
"986 803 OFFCURVE",
"987 807 OFFCURVE",
"987 812 CURVE",
"998 888 OFFCURVE",
"995 959 OFFCURVE",
"974 1023 CURVE SMOOTH"
);
},
{
closed = 1;
nodes = (
"284 644 OFFCURVE",
"288 652 OFFCURVE",
"291 660 CURVE",
"294 667 OFFCURVE",
"298 675 OFFCURVE",
"301 682 CURVE",
"308 693 OFFCURVE",
"293 700 OFFCURVE",
"286 689 CURVE",
"255 629 OFFCURVE",
"232 567 OFFCURVE",
"213 503 CURVE",
"210 497 LINE",
"211 502 OFFCURVE",
"213 508 OFFCURVE",
"214 514 CURVE SMOOTH",
"215 520 OFFCURVE",
"216 526 OFFCURVE",
"217 532 CURVE SMOOTH",
"219 544 OFFCURVE",
"222 555 OFFCURVE",
"226 566 CURVE",
"229 579 OFFCURVE",
"215 584 OFFCURVE",
"210 571 CURVE SMOOTH",
"201 548 OFFCURVE",
"193 525 OFFCURVE",
"185 501 CURVE",
"192 528 OFFCURVE",
"200 554 OFFCURVE",
"209 579 CURVE",
"234 638 OFFCURVE",
"263 693 OFFCURVE",
"294 749 CURVE",
"299 760 OFFCURVE",
"289 769 OFFCURVE",
"282 760 CURVE",
"239 713 OFFCURVE",
"205 660 OFFCURVE",
"178 599 CURVE",
"181 615 OFFCURVE",
"183 631 OFFCURVE",
"186 648 CURVE",
"191 659 OFFCURVE",
"196 670 OFFCURVE",
"201 681 CURVE",
"206 691 OFFCURVE",
"211 701 OFFCURVE",
"216 712 CURVE",
"249 775 LINE",
"252 780 OFFCURVE",
"252 785 OFFCURVE",
"249 788 CURVE",
"241 795 OFFCURVE",
"233 783 OFFCURVE",
"229 776 CURVE",
"226 772 OFFCURVE",
"224 768 OFFCURVE",
"221 765 CURVE",
"224 772 OFFCURVE",
"227 780 OFFCURVE",
"230 787 CURVE SMOOTH",
"236 801 OFFCURVE",
"242 815 OFFCURVE",
"250 830 CURVE SMOOTH",
"254 837 OFFCURVE",
"258 845 OFFCURVE",
"262 852 CURVE",
"265 853 OFFCURVE",
"266 854 OFFCURVE",
"267 856 CURVE",
"284 881 OFFCURVE",
"303 903 OFFCURVE",
"323 926 CURVE",
"314 914 LINE",
"307 902 LINE",
"300 893 OFFCURVE",
"312 886 OFFCURVE",
"321 895 CURVE",
"322 888 OFFCURVE",
"329 885 OFFCURVE",
"336 893 CURVE",
"348 905 LINE",
"360 917 LINE",
"335 889 OFFCURVE",
"312 860 OFFCURVE",
"292 829 CURVE SMOOTH",
"284 817 OFFCURVE",
"297 809 OFFCURVE",
"305 820 CURVE",
"329 859 OFFCURVE",
"359 893 OFFCURVE",
"392 924 CURVE",
"378 905 OFFCURVE",
"366 884 OFFCURVE",
"355 861 CURVE",
"324 818 OFFCURVE",
"303 771 OFFCURVE",
"292 722 CURVE",
"289 711 OFFCURVE",
"303 707 OFFCURVE",
"307 718 CURVE",
"318 741 OFFCURVE",
"329 761 OFFCURVE",
"341 782 CURVE SMOOTH",
"353 802 OFFCURVE",
"366 822 OFFCURVE",
"381 842 CURVE",
"385 837 OFFCURVE",
"389 837 OFFCURVE",
"394 842 CURVE",
"404 853 OFFCURVE",
"415 864 OFFCURVE",
"426 874 CURVE",
"429 877 OFFCURVE",
"431 880 OFFCURVE",
"434 883 CURVE",
"437 885 OFFCURVE",
"439 887 OFFCURVE",
"442 890 CURVE",
"446 893 LINE",
"450 897 LINE SMOOTH",
"451 898 OFFCURVE",
"453 900 OFFCURVE",
"454 901 CURVE SMOOTH",
"455 902 OFFCURVE",
"457 903 OFFCURVE",
"458 904 CURVE",
"477 920 OFFCURVE",
"496 936 OFFCURVE",
"519 949 CURVE SMOOTH",
"534 958 LINE",
"515 943 OFFCURVE",
"499 928 OFFCURVE",
"484 911 CURVE",
"481 907 OFFCURVE",
"478 903 OFFCURVE",
"474 899 CURVE SMOOTH",
"473 898 OFFCURVE",
"472 896 OFFCURVE",
"469 893 CURVE",
"465 887 LINE",
"454 873 LINE",
"452 870 OFFCURVE",
"450 868 OFFCURVE",
"448 866 CURVE",
"446 863 OFFCURVE",
"444 860 OFFCURVE",
"442 857 CURVE SMOOTH",
"413 816 OFFCURVE",
"388 774 OFFCURVE",
"367 731 CURVE",
"366 730 OFFCURVE",
"366 730 OFFCURVE",
"366 729 CURVE SMOOTH",
"366 728 OFFCURVE",
"366 728 OFFCURVE",
"365 727 CURVE",
"362 731 OFFCURVE",
"357 733 OFFCURVE",
"352 728 CURVE SMOOTH",
"339 715 OFFCURVE",
"326 701 OFFCURVE",
"314 685 CURVE SMOOTH",
"302 670 OFFCURVE",
"290 654 OFFCURVE",
"281 637 CURVE"
);
},
{
closed = 1;
nodes = (
"615 750 LINE",
"612 742 OFFCURVE",
"610 734 OFFCURVE",
"607 726 CURVE",
"602 707 OFFCURVE",
"597 692 OFFCURVE",
"590 676 CURVE",
"566 610 OFFCURVE",
"536 546 OFFCURVE",
"501 483 CURVE SMOOTH",
"484 452 OFFCURVE",
"466 422 OFFCURVE",
"447 394 CURVE",
"442 386 OFFCURVE",
"437 379 OFFCURVE",
"432 373 CURVE",
"425 362 LINE",
"422 358 LINE",
"418 353 LINE",
"415 349 LINE",
"413 347 LINE",
"413 346 LINE",
"410 344 LINE",
"408 342 OFFCURVE",
"406 341 OFFCURVE",
"405 340 CURVE SMOOTH",
"400 335 OFFCURVE",
"394 331 OFFCURVE",
"387 328 CURVE",
"382 325 OFFCURVE",
"376 322 OFFCURVE",
"371 325 CURVE",
"370 325 OFFCURVE",
"370 323 OFFCURVE",
"369 320 CURVE",
"368 316 OFFCURVE",
"368 312 OFFCURVE",
"368 309 CURVE",
"363 309 LINE",
"364 310 LINE",
"367 315 OFFCURVE",
"368 331 OFFCURVE",
"368 334 CURVE",
"366 336 OFFCURVE",
"365 338 OFFCURVE",
"364 341 CURVE",
"363 343 OFFCURVE",
"363 345 OFFCURVE",
"362 347 CURVE",
"361 350 OFFCURVE",
"361 353 OFFCURVE",
"361 358 CURVE",
"360 361 OFFCURVE",
"359 363 OFFCURVE",
"359 365 CURVE SMOOTH",
"359 367 OFFCURVE",
"359 368 OFFCURVE",
"358 369 CURVE",
"358 371 LINE",
"358 372 LINE",
"358 374 LINE",
"359 376 LINE",
"359 377 LINE",
"360 380 LINE",
"361 385 LINE",
"362 394 LINE",
"363 395 OFFCURVE",
"363 397 OFFCURVE",
"364 399 CURVE",
"364 401 OFFCURVE",
"364 403 OFFCURVE",
"365 404 CURVE",
"367 414 LINE",
"368 415 OFFCURVE",
"368 417 OFFCURVE",
"368 419 CURVE SMOOTH",
"368 420 OFFCURVE",
"369 422 OFFCURVE",
"370 423 CURVE",
"372 433 LINE",
"372 434 OFFCURVE",
"372 436 OFFCURVE",
"373 438 CURVE SMOOTH",
"374 440 OFFCURVE",
"374 442 OFFCURVE",
"374 443 CURVE",
"383 470 OFFCURVE",
"392 495 OFFCURVE",
"403 522 CURVE SMOOTH",
"414 549 OFFCURVE",
"425 574 OFFCURVE",
"440 601 CURVE SMOOTH",
"447 614 OFFCURVE",
"454 628 OFFCURVE",
"461 640 CURVE",
"464 647 OFFCURVE",
"468 653 OFFCURVE",
"472 660 CURVE",
"475 666 OFFCURVE",
"479 672 OFFCURVE",
"482 678 CURVE",
"486 685 OFFCURVE",
"477 695 OFFCURVE",
"470 688 CURVE SMOOTH",
"464 682 OFFCURVE",
"459 676 OFFCURVE",
"454 669 CURVE",
"459 677 OFFCURVE",
"465 686 OFFCURVE",
"469 693 CURVE",
"471 696 OFFCURVE",
"471 698 OFFCURVE",
"470 699 CURVE SMOOTH",
"469 700 OFFCURVE",
"469 701 OFFCURVE",
"469 702 CURVE",
"468 702 OFFCURVE",
"468 703 OFFCURVE",
"467 704 CURVE",
"466 704 OFFCURVE",
"465 704 OFFCURVE",
"464 705 CURVE",
"463 705 OFFCURVE",
"462 705 OFFCURVE",
"461 705 CURVE SMOOTH",
"460 705 OFFCURVE",
"458 704 OFFCURVE",
"456 702 CURVE",
"453 697 OFFCURVE",
"450 693 OFFCURVE",
"447 688 CURVE SMOOTH",
"441 678 OFFCURVE",
"434 667 OFFCURVE",
"427 657 CURVE",
"424 652 OFFCURVE",
"420 646 OFFCURVE",
"417 641 CURVE",
"411 630 OFFCURVE",
"405 620 OFFCURVE",
"399 610 CURVE",
"393 599 OFFCURVE",
"387 588 OFFCURVE",
"381 577 CURVE SMOOTH",
"357 532 OFFCURVE",
"338 488 OFFCURVE",
"324 444 CURVE",
"325 456 LINE",
"340 500 OFFCURVE",
"361 543 OFFCURVE",
"385 586 CURVE SMOOTH",
"396 607 OFFCURVE",
"408 629 OFFCURVE",
"421 649 CURVE",
"426 660 OFFCURVE",
"432 669 OFFCURVE",
"439 680 CURVE",
"456 709 LINE",
"457 710 OFFCURVE",
"458 711 OFFCURVE",
"458 712 CURVE SMOOTH",
"458 713 OFFCURVE",
"458 713 OFFCURVE",
"458 713 CURVE SMOOTH",
"457 713 OFFCURVE",
"457 713 OFFCURVE",
"457 714 CURVE",
"456 715 OFFCURVE",
"456 715 OFFCURVE",
"456 715 CURVE",
"455 716 LINE",
"454 716 OFFCURVE",
"454 716 OFFCURVE",
"454 717 CURVE",
"453 717 OFFCURVE",
"453 717 OFFCURVE",
"452 717 CURVE",
"452 718 OFFCURVE",
"451 719 OFFCURVE",
"450 719 CURVE",
"450 720 LINE",
"448 720 LINE",
"445 721 OFFCURVE",
"446 721 OFFCURVE",
"443 718 CURVE",
"432 699 LINE",
"419 678 LINE",
"415 671 OFFCURVE",
"411 664 OFFCURVE",
"407 657 CURVE",
"402 650 OFFCURVE",
"398 643 OFFCURVE",
"394 636 CURVE SMOOTH",
"386 621 OFFCURVE",
"378 607 OFFCURVE",
"371 593 CURVE",
"363 579 OFFCURVE",
"355 565 OFFCURVE",
"348 550 CURVE",
"355 573 OFFCURVE",
"363 593 OFFCURVE",
"374 616 CURVE SMOOTH",
"386 639 OFFCURVE",
"398 660 OFFCURVE",
"411 683 CURVE",
"416 694 OFFCURVE",
"403 700 OFFCURVE",
"396 691 CURVE",
"383 668 OFFCURVE",
"370 646 OFFCURVE",
"359 623 CURVE SMOOTH",
"350 604 OFFCURVE",
"341 586 OFFCURVE",
"333 567 CURVE",
"328 558 OFFCURVE",
"324 548 OFFCURVE",
"320 539 CURVE SMOOTH",
"314 525 LINE SMOOTH",
"311 518 OFFCURVE",
"310 514 OFFCURVE",
"309 511 CURVE",
"316 540 OFFCURVE",
"322 570 OFFCURVE",
"329 601 CURVE",
"341 632 OFFCURVE",
"355 660 OFFCURVE",
"370 689 CURVE",
"371 692 OFFCURVE",
"371 695 OFFCURVE",
"370 699 CURVE",
"371 703 OFFCURVE",
"373 707 OFFCURVE",
"375 711 CURVE SMOOTH",
"377 715 OFFCURVE",
"379 719 OFFCURVE",
"381 724 CURVE",
"408 771 OFFCURVE",
"442 814 OFFCURVE",
"483 851 CURVE",
"482 848 OFFCURVE",
"480 846 OFFCURVE",
"479 843 CURVE",
"476 838 OFFCURVE",
"473 831 OFFCURVE",
"470 823 CURVE",
"469 818 OFFCURVE",
"467 814 OFFCURVE",
"466 810 CURVE",
"463 803 OFFCURVE",
"471 799 OFFCURVE",
"476 800 CURVE",
"487 804 OFFCURVE",
"492 807 OFFCURVE",
"503 815 CURVE SMOOTH",
"507 818 OFFCURVE",
"509 819 OFFCURVE",
"510 820 CURVE",
"511 822 LINE",
"512 822 LINE",
"514 825 LINE",
"516 826 LINE",
"517 828 LINE",
"519 830 LINE",
"538 833 OFFCURVE",
"549 835 OFFCURVE",
"561 838 CURVE",
"564 838 OFFCURVE",
"567 838 OFFCURVE",
"570 839 CURVE SMOOTH",
"573 840 OFFCURVE",
"576 840 OFFCURVE",
"579 840 CURVE",
"586 841 OFFCURVE",
"592 843 OFFCURVE",
"600 840 CURVE",
"600 839 LINE",
"605 833 OFFCURVE",
"607 827 OFFCURVE",
"607 822 CURVE",
"610 815 OFFCURVE",
"608 811 OFFCURVE",
"607 804 CURVE",
"604 792 OFFCURVE",
"601 782 OFFCURVE",
"597 773 CURVE",
"596 771 LINE",
"594 769 LINE",
"594 767 LINE",
"593 764 LINE",
"584 739 LINE SMOOTH",
"577 719 OFFCURVE",
"570 699 OFFCURVE",
"562 679 CURVE SMOOTH",
"546 640 OFFCURVE",
"529 601 OFFCURVE",
"510 564 CURVE SMOOTH",
"491 526 OFFCURVE",
"471 489 OFFCURVE",
"450 453 CURVE SMOOTH",
"445 444 OFFCURVE",
"439 435 OFFCURVE",
"434 427 CURVE SMOOTH",
"428 418 OFFCURVE",
"422 410 OFFCURVE",
"417 401 CURVE SMOOTH",
"414 396 OFFCURVE",
"411 392 OFFCURVE",
"409 388 CURVE",
"406 384 OFFCURVE",
"403 380 OFFCURVE",
"400 376 CURVE",
"397 373 OFFCURVE",
"395 369 OFFCURVE",
"393 366 CURVE",
"390 362 OFFCURVE",
"389 361 OFFCURVE",
"389 362 CURVE",
"388 361 OFFCURVE",
"386 360 OFFCURVE",
"385 359 CURVE SMOOTH",
"384 358 OFFCURVE",
"382 357 OFFCURVE",
"381 356 CURVE SMOOTH",
"380 355 OFFCURVE",
"378 355 OFFCURVE",
"377 355 CURVE",
"376 354 OFFCURVE",
"374 354 OFFCURVE",
"372 353 CURVE",
"370 341 LINE",
"369 338 OFFCURVE",
"369 335 OFFCURVE",
"369 332 CURVE",
"368 329 OFFCURVE",
"368 328 OFFCURVE",
"369 329 CURVE",
"372 330 OFFCURVE",
"374 331 OFFCURVE",
"377 332 CURVE",
"379 333 OFFCURVE",
"381 335 OFFCURVE",
"384 336 CURVE SMOOTH",
"387 337 OFFCURVE",
"389 339 OFFCURVE",
"391 341 CURVE SMOOTH",
"393 343 OFFCURVE",
"395 345 OFFCURVE",
"398 347 CURVE",
"401 351 LINE",
"403 353 LINE",
"403 354 LINE",
"404 354 LINE",
"404 355 LINE",
"408 360 LINE",
"411 364 LINE",
"415 369 LINE",
"422 380 LINE",
"425 383 OFFCURVE",
"427 387 OFFCURVE",
"430 391 CURVE",
"432 394 OFFCURVE",
"434 398 OFFCURVE",
"437 402 CURVE",
"456 433 OFFCURVE",
"474 463 OFFCURVE",
"493 495 CURVE",
"528 560 OFFCURVE",
"559 627 OFFCURVE",
"586 696 CURVE",
"589 705 OFFCURVE",
"592 713 OFFCURVE",
"595 722 CURVE SMOOTH",
"598 731 OFFCURVE",
"601 739 OFFCURVE",
"604 748 CURVE",
"608 758 LINE",
"609 763 LINE",
"610 764 LINE",
"610 765 LINE",
"611 767 LINE",
"611 768 OFFCURVE",
"611 770 OFFCURVE",
"612 771 CURVE SMOOTH",
"613 772 OFFCURVE",
"613 773 OFFCURVE",
"614 774 CURVE",
"618 785 OFFCURVE",
"621 797 OFFCURVE",
"624 810 CURVE",
"625 809 OFFCURVE",
"626 807 OFFCURVE",
"626 806 CURVE SMOOTH",
"626 804 OFFCURVE",
"626 802 OFFCURVE",
"627 801 CURVE",
"626 789 OFFCURVE",
"623 777 OFFCURVE",
"620 766 CURVE",
"617 760 LINE"
);
}
);
width = 1036;
}
);
note = zero;
unicode = 0030;
},
{
glyphname = one;
lastChange = "2017-07-24 05:49:16 +0000";
layers = (
{
layerId = "6CFB2232-83DA-4DC4-BCB5-DDBFA820FE35";
paths = (
{
closed = 1;
nodes = (
"922 965 OFFCURVE",
"925 969 OFFCURVE",
"928 973 CURVE SMOOTH",
"931 977 OFFCURVE",
"934 981 OFFCURVE",
"937 986 CURVE",
"948 1000 OFFCURVE",
"955 1010 OFFCURVE",
"960 1017 CURVE SMOOTH",
"964 1023 OFFCURVE",
"966 1027 OFFCURVE",
"966 1028 CURVE SMOOTH",
"966 1029 OFFCURVE",
"965 1029 OFFCURVE",
"963 1028 CURVE",
"960 1027 OFFCURVE",
"958 1025 OFFCURVE",
"955 1024 CURVE",
"952 1022 OFFCURVE",
"950 1021 OFFCURVE",
"949 1021 CURVE SMOOTH",
"947 1021 OFFCURVE",
"947 1023 OFFCURVE",
"949 1028 CURVE SMOOTH",
"952 1035 OFFCURVE",
"954 1040 OFFCURVE",
"955 1043 CURVE SMOOTH",
"956 1046 OFFCURVE",
"957 1048 OFFCURVE",
"958 1049 CURVE SMOOTH",
"959 1050 OFFCURVE",
"959 1052 OFFCURVE",
"960 1053 CURVE SMOOTH",
"961 1054 OFFCURVE",
"962 1057 OFFCURVE",
"964 1061 CURVE",
"969 1070 OFFCURVE",
"970 1080 OFFCURVE",
"968 1091 CURVE",
"965 1101 OFFCURVE",
"964 1108 OFFCURVE",
"964 1113 CURVE SMOOTH",
"964 1118 OFFCURVE",
"962 1125 OFFCURVE",
"958 1133 CURVE",
"953 1140 OFFCURVE",
"950 1149 OFFCURVE",
"949 1158 CURVE SMOOTH",
"948 1167 OFFCURVE",
"943 1173 OFFCURVE",
"934 1176 CURVE SMOOTH",
"925 1179 OFFCURVE",
"917 1181 OFFCURVE",
"910 1184 CURVE",
"909 1185 OFFCURVE",
"908 1186 OFFCURVE",
"908 1187 CURVE",
"907 1188 OFFCURVE",
"904 1192 OFFCURVE",
"904 1192 CURVE SMOOTH",
"903 1192 OFFCURVE",
"903 1193 OFFCURVE",
"902 1194 CURVE",
"901 1198 OFFCURVE",
"900 1203 OFFCURVE",
"901 1208 CURVE",
"901 1219 OFFCURVE",
"897 1229 OFFCURVE",
"888 1232 CURVE SMOOTH",
"885 1233 OFFCURVE",
"883 1233 OFFCURVE",
"881 1233 CURVE",
"824 1271 LINE",
"785 1264 OFFCURVE",
"758 1260 OFFCURVE",
"735 1257 CURVE",
"723 1256 OFFCURVE",
"716 1256 OFFCURVE",
"715 1257 CURVE",
"713 1258 OFFCURVE",
"703 1252 OFFCURVE",
"685 1239 CURVE",
"683 1238 OFFCURVE",
"681 1237 OFFCURVE",
"678 1236 CURVE",
"677 1235 OFFCURVE",
"675 1234 OFFCURVE",
"674 1234 CURVE",
"673 1233 OFFCURVE",
"671 1232 OFFCURVE",
"670 1231 CURVE",
"667 1230 LINE",
"666 1229 LINE",
"663 1227 LINE",
"661 1226 OFFCURVE",
"659 1224 OFFCURVE",
"658 1223 CURVE",
"656 1222 OFFCURVE",
"654 1220 OFFCURVE",
"652 1219 CURVE SMOOTH",
"650 1218 LINE",
"648 1216 LINE",
"644 1213 LINE SMOOTH",
"640 1210 OFFCURVE",
"637 1208 OFFCURVE",
"636 1207 CURVE SMOOTH",
"635 1206 OFFCURVE",
"634 1205 OFFCURVE",
"634 1204 CURVE",
"633 1203 OFFCURVE",
"630 1199 OFFCURVE",
"628 1199 CURVE",
"627 1198 OFFCURVE",
"626 1197 OFFCURVE",
"625 1196 CURVE SMOOTH",
"621 1192 LINE",
"617 1188 LINE",
"616 1186 LINE",
"607 1179 OFFCURVE",
"598 1172 OFFCURVE",
"591 1167 CURVE SMOOTH",
"583 1161 OFFCURVE",
"576 1155 OFFCURVE",
"570 1150 CURVE SMOOTH",
"555 1138 OFFCURVE",
"547 1131 OFFCURVE",
"537 1125 CURVE SMOOTH",
"532 1122 OFFCURVE",
"526 1118 OFFCURVE",
"521 1115 CURVE",
"482 1088 OFFCURVE",
"440 1061 OFFCURVE",
"396 1033 CURVE",
"393 1034 OFFCURVE",
"390 1034 OFFCURVE",
"388 1033 CURVE",
"383 1029 OFFCURVE",
"378 1025 OFFCURVE",
"373 1021 CURVE",
"368 1016 OFFCURVE",
"363 1012 OFFCURVE",
"358 1008 CURVE",
"297 983 OFFCURVE",
"237 958 OFFCURVE",
"182 919 CURVE",
"175 915 OFFCURVE",
"183 903 OFFCURVE",
"190 906 CURVE",
"217 915 OFFCURVE",
"242 927 OFFCURVE",
"267 939 CURVE",
"265 936 OFFCURVE",
"263 934 OFFCURVE",
"260 932 CURVE",
"257 929 OFFCURVE",
"255 927 OFFCURVE",
"252 924 CURVE",
"252 922 LINE",
"249 919 OFFCURVE",
"245 917 OFFCURVE",
"242 915 CURVE",
"238 912 OFFCURVE",
"234 909 OFFCURVE",
"231 906 CURVE",
"224 902 OFFCURVE",
"232 889 OFFCURVE",
"239 893 CURVE",
"299 921 OFFCURVE",
"357 951 OFFCURVE",
"416 982 CURVE",
"391 963 OFFCURVE",
"365 944 OFFCURVE",
"337 924 CURVE",
"269 892 OFFCURVE",
"205 857 OFFCURVE",
"141 814 CURVE SMOOTH",
"138 812 OFFCURVE",
"136 810 OFFCURVE",
"133 809 CURVE",
"130 807 OFFCURVE",
"128 805 OFFCURVE",
"125 803 CURVE",
"118 799 OFFCURVE",
"124 787 OFFCURVE",
"131 788 CURVE",
"138 790 OFFCURVE",
"145 792 OFFCURVE",
"152 794 CURVE",
"158 795 OFFCURVE",
"164 797 OFFCURVE",
"170 799 CURVE",
"133 771 LINE SMOOTH",
"126 766 OFFCURVE",
"135 754 OFFCURVE",
"140 758 CURVE",
"159 765 OFFCURVE",
"173 774 OFFCURVE",
"189 785 CURVE",
"198 790 OFFCURVE",
"207 795 OFFCURVE",
"216 799 CURVE",
"217 799 OFFCURVE",
"219 799 OFFCURVE",
"220 800 CURVE",
"237 807 OFFCURVE",
"253 814 OFFCURVE",
"269 822 CURVE",
"265 819 OFFCURVE",
"260 816 OFFCURVE",
"256 812 CURVE",
"249 807 OFFCURVE",
"256 796 OFFCURVE",
"264 799 CURVE",
"263 792 OFFCURVE",
"267 786 OFFCURVE",
"274 789 CURVE SMOOTH",
"295 798 LINE",
"272 786 OFFCURVE",
"252 776 OFFCURVE",
"229 765 CURVE SMOOTH",
"221 761 OFFCURVE",
"228 747 OFFCURVE",
"236 751 CURVE SMOOTH",
"263 764 OFFCURVE",
"291 777 OFFCURVE",
"319 789 CURVE",
"306 778 OFFCURVE",
"293 767 OFFCURVE",
"281 754 CURVE",
"250 735 OFFCURVE",
"221 715 OFFCURVE",
"192 692 CURVE",
"185 687 OFFCURVE",
"192 675 OFFCURVE",
"200 678 CURVE",
"233 693 OFFCURVE",
"265 708 OFFCURVE",
"297 725 CURVE",
"298 721 OFFCURVE",
"302 716 OFFCURVE",
"306 719 CURVE",
"345 736 OFFCURVE",
"382 754 OFFCURVE",
"419 774 CURVE",
"418 773 OFFCURVE",
"418 771 OFFCURVE",
"418 770 CURVE SMOOTH",
"418 769 OFFCURVE",
"417 767 OFFCURVE",
"416 766 CURVE",
"389 745 OFFCURVE",
"361 723 OFFCURVE",
"334 702 CURVE SMOOTH",
"307 681 OFFCURVE",
"278 662 OFFCURVE",
"247 646 CURVE",
"203 627 LINE",
"195 624 OFFCURVE",
"201 610 OFFCURVE",
"210 613 CURVE SMOOTH",
"225 618 OFFCURVE",
"239 625 OFFCURVE",
"254 632 CURVE SMOOTH",
"297 651 OFFCURVE",
"337 670 OFFCURVE",
"380 691 CURVE",
"379 689 OFFCURVE",
"377 687 OFFCURVE",
"375 685 CURVE SMOOTH",
"373 683 OFFCURVE",
"371 681 OFFCURVE",
"370 678 CURVE",
"367 675 OFFCURVE",
"365 672 OFFCURVE",
"363 669 CURVE",
"360 666 OFFCURVE",
"358 662 OFFCURVE",
"355 659 CURVE",
"352 655 OFFCURVE",
"355 648 OFFCURVE",
"362 647 CURVE SMOOTH",
"369 646 OFFCURVE",
"377 647 OFFCURVE",
"386 649 CURVE",
"359 585 OFFCURVE",
"340 522 OFFCURVE",
"321 455 CURVE",
"316 444 OFFCURVE",
"312 433 OFFCURVE",
"307 422 CURVE SMOOTH",
"302 411 OFFCURVE",
"298 399 OFFCURVE",
"293 388 CURVE",
"262 391 OFFCURVE",
"232 382 OFFCURVE",
"201 375 CURVE",
"200 376 OFFCURVE",
"200 376 OFFCURVE",
"200 377 CURVE",
"200 377 OFFCURVE",
"200 377 OFFCURVE",
"199 378 CURVE SMOOTH",
"198 379 LINE",
"195 378 OFFCURVE",
"192 376 OFFCURVE",
"190 375 CURVE",
"188 373 OFFCURVE",
"186 371 OFFCURVE",
"183 370 CURVE",
"156 374 OFFCURVE",
"130 377 OFFCURVE",
"105 364 CURVE",
"102 361 OFFCURVE",
"103 349 OFFCURVE",
"106 348 CURVE",
"117 347 OFFCURVE",
"128 346 OFFCURVE",
"139 347 CURVE",
"137 346 OFFCURVE",
"135 343 OFFCURVE",
"132 339 CURVE",
"131 338 LINE",
"128 337 OFFCURVE",
"125 335 OFFCURVE",
"121 332 CURVE",
"118 331 OFFCURVE",
"119 317 OFFCURVE",
"122 317 CURVE SMOOTH",
"147 317 OFFCURVE",
"172 318 OFFCURVE",
"199 321 CURVE",
"192 318 OFFCURVE",
"186 315 OFFCURVE",
"180 312 CURVE SMOOTH",
"174 309 OFFCURVE",
"168 306 OFFCURVE",
"162 303 CURVE",
"133 304 OFFCURVE",
"104 299 OFFCURVE",
"76 284 CURVE",
"75 283 OFFCURVE",
"74 283 OFFCURVE",
"73 282 CURVE SMOOTH",
"72 281 OFFCURVE",
"70 281 OFFCURVE",
"69 280 CURVE SMOOTH",
"68 279 OFFCURVE",
"67 276 OFFCURVE",
"67 272 CURVE SMOOTH",
"67 267 OFFCURVE",
"68 265 OFFCURVE",
"69 264 CURVE",
"74 262 OFFCURVE",
"79 260 OFFCURVE",
"84 259 CURVE",
"81 257 OFFCURVE",
"79 255 OFFCURVE",
"76 253 CURVE SMOOTH",
"73 251 OFFCURVE",
"70 249 OFFCURVE",
"67 248 CURVE",
"64 245 OFFCURVE",
"66 231 OFFCURVE",
"69 232 CURVE",
"76 232 OFFCURVE",
"82 235 OFFCURVE",
"89 238 CURVE",
"91 239 OFFCURVE",
"93 239 OFFCURVE",
"95 239 CURVE SMOOTH",
"97 239 OFFCURVE",
"99 239 OFFCURVE",
"101 240 CURVE",
"102 239 LINE",
"123 239 LINE",
"122 239 OFFCURVE",
"121 239 OFFCURVE",
"120 238 CURVE SMOOTH",
"119 237 OFFCURVE",
"118 237 OFFCURVE",
"117 236 CURVE SMOOTH",
"114 233 OFFCURVE",
"115 221 OFFCURVE",
"118 220 CURVE",
"117 216 OFFCURVE",
"117 207 OFFCURVE",
"120 207 CURVE SMOOTH",
"128 207 LINE",
"123 206 OFFCURVE",
"119 205 OFFCURVE",
"115 205 CURVE SMOOTH",
"106 205 OFFCURVE",
"99 206 OFFCURVE",
"99 196 CURVE SMOOTH",
"99 191 OFFCURVE",
"100 188 OFFCURVE",
"102 188 CURVE",
"107 189 OFFCURVE",
"113 189 OFFCURVE",
"119 189 CURVE SMOOTH",
"124 189 OFFCURVE",
"130 189 OFFCURVE",
"136 189 CURVE",
"133 186 OFFCURVE",
"130 184 OFFCURVE",
"127 182 CURVE",
"124 179 OFFCURVE",
"121 176 OFFCURVE",
"118 173 CURVE",
"104 168 OFFCURVE",
"91 160 OFFCURVE",
"79 151 CURVE",
"76 148 OFFCURVE",
"77 136 OFFCURVE",
"80 136 CURVE SMOOTH",
"95 136 OFFCURVE",
"108 137 OFFCURVE",
"119 140 CURVE",
"119 136 OFFCURVE",
"119 131 OFFCURVE",
"122 130 CURVE",
"138 130 OFFCURVE",
"155 131 OFFCURVE",
"171 134 CURVE",
"177 134 LINE",
"163 125 OFFCURVE",
"149 116 OFFCURVE",
"135 107 CURVE",
"121 97 OFFCURVE",
"107 91 OFFCURVE",
"93 88 CURVE",
"76 87 LINE",
"72 87 OFFCURVE",
"73 72 OFFCURVE",
"76 72 CURVE",
"81 71 OFFCURVE",
"87 71 OFFCURVE",
"93 72 CURVE",
"102 73 OFFCURVE",
"110 73 OFFCURVE",
"118 73 CURVE SMOOTH",
"126 73 OFFCURVE",
"134 73 OFFCURVE",
"143 74 CURVE",
"142 73 OFFCURVE",
"137 66 OFFCURVE",
"135 62 CURVE SMOOTH",
"134 60 OFFCURVE",
"132 58 OFFCURVE",
"131 56 CURVE",
"128 53 OFFCURVE",
"130 45 OFFCURVE",
"131 42 CURVE",
"134 37 OFFCURVE",
"138 34 OFFCURVE",
"141 34 CURVE SMOOTH",
"144 34 OFFCURVE",
"148 34 OFFCURVE",
"151 35 CURVE",
"178 19 OFFCURVE",
"204 17 OFFCURVE",
"231 24 CURVE",
"231 23 LINE",
"254 20 OFFCURVE",
"278 16 OFFCURVE",
"301 12 CURVE",
"324 7 OFFCURVE",
"347 3 OFFCURVE",
"370 -1 CURVE SMOOTH",
"417 -10 OFFCURVE",
"461 -18 OFFCURVE",
"506 -21 CURVE",
"509 -21 OFFCURVE",
"510 -5 OFFCURVE",
"506 -5 CURVE",
"468 -2 OFFCURVE",
"429 3 OFFCURVE",
"390 11 CURVE SMOOTH",
"350 19 OFFCURVE",
"310 26 OFFCURVE",
"269 33 CURVE",
"270 34 OFFCURVE",
"272 35 OFFCURVE",
"273 35 CURVE SMOOTH",
"274 35 OFFCURVE",
"276 36 OFFCURVE",
"277 37 CURVE",
"354 36 OFFCURVE",
"431 18 OFFCURVE",
"503 -1 CURVE",
"505 -1 OFFCURVE",
"506 2 OFFCURVE",
"506 9 CURVE",
"507 9 OFFCURVE",
"508 9 OFFCURVE",
"509 9 CURVE",
"509 8 OFFCURVE",
"510 8 OFFCURVE",
"511 8 CURVE",
"510 7 LINE SMOOTH",
"509 6 OFFCURVE",
"508 3 OFFCURVE",
"508 -1 CURVE SMOOTH",
"508 -5 OFFCURVE",
"509 -7 OFFCURVE",
"510 -8 CURVE",
"538 -21 OFFCURVE",
"566 -22 OFFCURVE",
"593 -23 CURVE",
"598 -26 OFFCURVE",
"602 -28 OFFCURVE",
"604 -29 CURVE",
"605 -30 OFFCURVE",
"607 -31 OFFCURVE",
"609 -31 CURVE",
"611 -32 OFFCURVE",
"613 -33 OFFCURVE",
"614 -34 CURVE",
"621 -38 OFFCURVE",
"626 -40 OFFCURVE",
"633 -43 CURVE",
"633 -44 OFFCURVE",
"633 -44 OFFCURVE",
"634 -44 CURVE",
"636 -45 LINE",
"637 -46 OFFCURVE",
"638 -47 OFFCURVE",
"639 -47 CURVE",
"641 -48 LINE",
"642 -49 OFFCURVE",
"642 -49 OFFCURVE",
"642 -49 CURVE",
"644 -49 LINE",
"644 -50 OFFCURVE",
"644 -50 OFFCURVE",
"645 -50 CURVE",
"646 -49 LINE",
"646 -47 LINE",
"648 -41 LINE",
"651 -31 LINE SMOOTH",
"652 -28 OFFCURVE",
"654 -24 OFFCURVE",
"655 -21 CURVE SMOOTH",
"656 -18 OFFCURVE",
"657 -15 OFFCURVE",
"658 -12 CURVE SMOOTH",
"659 -9 LINE",
"662 -4 OFFCURVE",
"662 -3 OFFCURVE",
"663 0 CURVE",
"663 1 OFFCURVE",
"663 3 OFFCURVE",
"664 4 CURVE",
"663 3 OFFCURVE",
"663 2 OFFCURVE",
"663 1 CURVE SMOOTH",
"663 0 OFFCURVE",
"663 0 OFFCURVE",
"662 -1 CURVE",
"663 0 OFFCURVE",
"663 1 OFFCURVE",
"663 2 CURVE SMOOTH",
"663 3 OFFCURVE",
"664 4 OFFCURVE",
"665 5 CURVE",
"663 1 LINE",
"662 2 OFFCURVE",
"662 2 OFFCURVE",
"662 3 CURVE",
"662 3 OFFCURVE",
"662 4 OFFCURVE",
"657 7 CURVE",
"657 8 OFFCURVE",
"656 9 OFFCURVE",
"654 9 CURVE",
"652 10 OFFCURVE",
"649 13 OFFCURVE",
"646 16 CURVE",
"653 16 LINE SMOOTH",
"656 16 OFFCURVE",
"658 15 OFFCURVE",
"659 14 CURVE",
"660 14 OFFCURVE",
"661 13 OFFCURVE",
"664 12 CURVE",
"665 11 LINE",
"666 11 LINE SMOOTH",
"667 11 OFFCURVE",
"672 25 OFFCURVE",
"672 26 CURVE",
"671 27 OFFCURVE",
"671 27 OFFCURVE",
"670 27 CURVE",
"670 28 LINE",
"669 28 LINE",
"668 29 OFFCURVE",
"667 29 OFFCURVE",
"666 29 CURVE SMOOTH",
"665 29 OFFCURVE",
"664 29 OFFCURVE",
"663 30 CURVE",
"660 31 OFFCURVE",
"656 33 OFFCURVE",
"652 36 CURVE",
"648 38 OFFCURVE",
"644 40 OFFCURVE",
"639 43 CURVE",
"643 43 OFFCURVE",
"646 44 OFFCURVE",
"650 45 CURVE SMOOTH",
"654 46 OFFCURVE",
"658 47 OFFCURVE",
"661 50 CURVE",
"666 50 OFFCURVE",
"668 49 OFFCURVE",
"669 49 CURVE",
"670 48 OFFCURVE",
"670 48 OFFCURVE",
"671 48 CURVE SMOOTH",
"675 48 LINE",
"676 48 LINE",
"678 47 LINE",
"679 47 OFFCURVE",
"684 59 OFFCURVE",
"683 62 CURVE",
"683 63 OFFCURVE",
"683 63 OFFCURVE",
"683 64 CURVE",
"682 64 OFFCURVE",
"682 64 OFFCURVE",
"682 65 CURVE",
"687 65 LINE",
"688 64 OFFCURVE",
"690 66 OFFCURVE",
"692 71 CURVE SMOOTH",
"695 79 OFFCURVE",
"694 82 OFFCURVE",
"691 87 CURVE",
"690 88 OFFCURVE",
"690 90 OFFCURVE",
"690 91 CURVE",
"689 92 OFFCURVE",
"689 93 OFFCURVE",
"688 94 CURVE",
"685 99 OFFCURVE",
"681 103 OFFCURVE",
"678 106 CURVE",
"682 106 OFFCURVE",
"685 105 OFFCURVE",
"689 104 CURVE",
"692 104 OFFCURVE",
"696 119 OFFCURVE",
"693 120 CURVE",
"678 124 OFFCURVE",
"663 129 OFFCURVE",
"646 134 CURVE",
"645 136 LINE",
"663 136 LINE SMOOTH",
"667 136 OFFCURVE",
"670 151 OFFCURVE",
"666 152 CURVE",
"661 155 OFFCURVE",
"655 157 OFFCURVE",
"648 160 CURVE",
"651 159 OFFCURVE",
"655 159 OFFCURVE",
"659 158 CURVE",
"662 157 OFFCURVE",
"666 157 OFFCURVE",
"669 156 CURVE",
"682 148 OFFCURVE",
"696 142 OFFCURVE",
"713 137 CURVE",
"714 136 OFFCURVE",
"716 138 OFFCURVE",
"718 143 CURVE",
"722 151 OFFCURVE",
"718 154 OFFCURVE",
"715 158 CURVE",
"713 160 OFFCURVE",
"711 162 OFFCURVE",
"710 164 CURVE",
"708 167 OFFCURVE",
"705 170 OFFCURVE",
"700 175 CURVE",
"698 176 OFFCURVE",
"696 178 OFFCURVE",
"695 179 CURVE",
"691 182 OFFCURVE",
"687 185 OFFCURVE",
"683 187 CURVE SMOOTH",
"681 188 OFFCURVE",
"679 189 OFFCURVE",
"678 190 CURVE",
"683 193 OFFCURVE",
"693 197 OFFCURVE",
"701 194 CURVE",
"702 193 OFFCURVE",
"704 193 OFFCURVE",
"706 193 CURVE",
"707 192 OFFCURVE",
"709 192 OFFCURVE",
"710 191 CURVE",
"713 190 OFFCURVE",
"716 189 OFFCURVE",
"720 188 CURVE",
"722 187 OFFCURVE",
"726 186 OFFCURVE",
"731 185 CURVE",
"734 184 OFFCURVE",
"740 196 OFFCURVE",
"737 199 CURVE",
"732 206 OFFCURVE",
"725 212 OFFCURVE",
"721 216 CURVE",
"725 214 LINE",
"728 214 OFFCURVE",
"730 213 OFFCURVE",
"731 212 CURVE",
"735 211 OFFCURVE",
"741 224 OFFCURVE",
"737 227 CURVE",
"736 227 LINE",
"735 228 OFFCURVE",
"733 229 OFFCURVE",
"732 230 CURVE SMOOTH",
"731 231 OFFCURVE",
"731 231 OFFCURVE",
"731 231 CURVE SMOOTH",
"730 231 OFFCURVE",
"730 231 OFFCURVE",
"729 232 CURVE",
"726 233 OFFCURVE",
"724 235 OFFCURVE",
"721 236 CURVE",
"720 237 OFFCURVE",
"719 237 OFFCURVE",
"718 238 CURVE SMOOTH",
"717 239 OFFCURVE",
"715 239 OFFCURVE",
"714 240 CURVE SMOOTH",
"713 241 OFFCURVE",
"712 242 OFFCURVE",
"711 242 CURVE SMOOTH",
"710 242 OFFCURVE",
"708 243 OFFCURVE",
"707 244 CURVE",
"707 247 OFFCURVE",
"707 248 OFFCURVE",
"706 248 CURVE",
"701 252 OFFCURVE",
"697 255 OFFCURVE",
"694 256 CURVE",
"692 257 OFFCURVE",
"690 258 OFFCURVE",
"689 259 CURVE",
"687 260 OFFCURVE",
"685 261 OFFCURVE",
"682 262 CURVE",
"681 263 OFFCURVE",
"679 264 OFFCURVE",
"677 265 CURVE",
"675 265 OFFCURVE",
"673 266 OFFCURVE",
"671 267 CURVE",
"668 268 OFFCURVE",
"664 270 OFFCURVE",
"659 271 CURVE",
"654 275 OFFCURVE",
"636 282 OFFCURVE",
"631 283 CURVE",
"630 284 OFFCURVE",
"628 285 OFFCURVE",
"627 286 CURVE",
"625 287 OFFCURVE",
"623 288 OFFCURVE",
"622 289 CURVE",
"613 295 LINE SMOOTH",
"607 299 OFFCURVE",
"601 302 OFFCURVE",
"594 304 CURVE",
"592 305 LINE",
"601 323 OFFCURVE",
"609 343 OFFCURVE",
"616 364 CURVE",
"649 417 OFFCURVE",
"674 474 OFFCURVE",
"695 534 CURVE",
"723 577 OFFCURVE",
"746 620 OFFCURVE",
"766 664 CURVE",
"789 704 OFFCURVE",
"807 745 OFFCURVE",
"824 785 CURVE",
"829 795 OFFCURVE",
"833 805 OFFCURVE",
"838 816 CURVE",
"846 837 OFFCURVE",
"854 855 OFFCURVE",
"863 872 CURVE SMOOTH",
"871 887 OFFCURVE",
"883 909 OFFCURVE",
"902 937 CURVE",
"906 942 OFFCURVE",
"910 947 OFFCURVE",
"914 954 CURVE",
"915 957 OFFCURVE",
"917 959 OFFCURVE",
"919 961 CURVE"
);
},
{
closed = 1;
nodes = (
"440 786 LINE",
"441 786 LINE",
"440 785 LINE"
);
},
{
closed = 1;
nodes = (
"659 -8 LINE",
"661 -4 LINE"
);
},
{
closed = 1;
nodes = (
"628 10 LINE",
"630 9 OFFCURVE",
"632 8 OFFCURVE",
"635 5 CURVE SMOOTH",
"636 4 OFFCURVE",
"638 3 OFFCURVE",
"639 2 CURVE",
"641 1 OFFCURVE",
"643 -1 OFFCURVE",
"648 -6 CURVE",
"651 -8 LINE",
"652 -9 OFFCURVE",
"653 -10 OFFCURVE",
"653 -10 CURVE",
"654 -12 OFFCURVE",
"655 -13 OFFCURVE",
"657 -14 CURVE",
"657 -15 LINE",
"657 -16 LINE",
"657 -15 LINE",
"657 -14 LINE",
"658 -12 LINE",
"657 -13 LINE",
"657 -14 LINE",
"657 -12 LINE",
"656 -11 OFFCURVE",
"655 -10 OFFCURVE",
"654 -10 CURVE",
"654 -9 OFFCURVE",
"653 -8 OFFCURVE",
"652 -8 CURVE",
"652 -7 LINE",
"650 -6 LINE",
"647 -3 OFFCURVE",
"645 -2 OFFCURVE",
"644 -1 CURVE",
"644 0 OFFCURVE",
"643 1 OFFCURVE",
"642 2 CURVE",
"638 5 LINE",
"631 10 LINE",
"629 11 LINE",
"626 14 LINE",
"622 16 LINE",
"619 16 LINE"
);
},
{
closed = 1;
nodes = (
"665 7 LINE",
"666 9 LINE"
);
},
{
closed = 1;
nodes = (
"646 -51 OFFCURVE",
"646 -51 OFFCURVE",
"645 -50 CURVE",
"645 -51 LINE"
);
},
{
closed = 1;
nodes = (
"672 25 LINE",
"672 24 LINE",
"672 22 LINE"
);
},
{
closed = 1;
nodes = (
"688 58 OFFCURVE",
"689 59 OFFCURVE",
"688 59 CURVE",
"689 59 OFFCURVE",
"688 58 OFFCURVE",
"686 56 CURVE"
);
},
{
closed = 1;
nodes = (
"694 69 OFFCURVE",
"693 68 OFFCURVE",
"693 69 CURVE",
"693 68 OFFCURVE",
"693 67 OFFCURVE",
"692 67 CURVE",
"693 67 OFFCURVE",
"693 68 OFFCURVE",
"693 69 CURVE",
"693 69 OFFCURVE",
"694 70 OFFCURVE",
"695 71 CURVE",
"695 72 LINE"
);
},
{
closed = 1;
nodes = (
"689 61 LINE",
"692 67 LINE"
);
},
{
closed = 1;
nodes = (
"676 33 OFFCURVE",
"676 33 OFFCURVE",
"676 34 CURVE SMOOTH",
"676 35 OFFCURVE",
"676 36 OFFCURVE",
"677 37 CURVE",
"676 36 OFFCURVE",
"676 35 OFFCURVE",
"676 35 CURVE",
"676 34 OFFCURVE",
"676 33 OFFCURVE",
"675 32 CURVE"
);
},
{
closed = 1;
nodes = (
"674 30 OFFCURVE",
"675 32 OFFCURVE",
"676 33 CURVE",
"676 35 LINE",
"676 36 LINE",
"676 32 OFFCURVE",
"675 31 OFFCURVE",
"674 31 CURVE",
"674 30 LINE",
"674 31 OFFCURVE",
"674 31 OFFCURVE",
"675 31 CURVE",
"675 31 OFFCURVE",
"675 31 OFFCURVE",
"675 32 CURVE",
"675 31 OFFCURVE",
"675 31 OFFCURVE",
"675 31 CURVE SMOOTH",
"674 31 OFFCURVE",
"674 30 OFFCURVE",
"674 29 CURVE"
);
},
{
closed = 1;
nodes = (
"671 20 LINE",
"671 21 LINE",
"672 22 OFFCURVE",
"672 23 OFFCURVE",
"672 24 CURVE",
"672 22 LINE",
"671 21 LINE",
"671 20 LINE",
"670 20 LINE"
);
},
{
closed = 1;
nodes = (
"671 20 LINE",
"670 19 LINE",
"670 20 LINE",
"670 19 LINE",
"671 20 LINE",
"671 21 LINE",
"672 22 LINE",
"671 21 OFFCURVE",
"671 21 OFFCURVE",
"671 21 CURVE",
"671 20 OFFCURVE",
"671 20 OFFCURVE",
"670 19 CURVE",
"670 18 LINE",
"670 17 LINE",
"670 18 LINE",
"670 17 LINE",
"670 18 LINE"
);
},
{
closed = 1;
nodes = (
"670 18 LINE",
"670 19 LINE"
);
},
{
closed = 1;
nodes = (
"674 27 OFFCURVE",
"674 27 OFFCURVE",
"673 27 CURVE",
"673 26 LINE",
"672 25 LINE",
"672 22 LINE",
"672 24 OFFCURVE",
"673 26 OFFCURVE",
"674 27 CURVE",
"674 30 OFFCURVE",
"674 31 OFFCURVE",
"675 32 CURVE",
"674 31 OFFCURVE",
"674 30 OFFCURVE",
"674 29 CURVE",
"674 30 LINE",
"674 29 LINE",
"674 28 LINE SMOOTH",
"674 27 OFFCURVE",
"674 27 OFFCURVE",
"673 27 CURVE",
"674 28 LINE"
);
},
{
closed = 1;
nodes = (
"673 27 OFFCURVE",
"673 27 OFFCURVE",
"672 26 CURVE",
"672 25 LINE",
"673 27 LINE"
);
},
{
closed = 1;
nodes = (
"667 11 LINE",
"666 9 LINE",
"667 11 LINE",
"667 10 LINE"
);
},
{
closed = 1;
nodes = (
"665 8 OFFCURVE",
"665 6 OFFCURVE",
"665 5 CURVE",
"667 10 LINE",
"666 9 LINE SMOOTH"
);
},
{
closed = 1;
nodes = (
"668 13 LINE",
"668 14 LINE",
"669 16 LINE",
"670 16 LINE",
"669 15 LINE",
"669 16 LINE",
"668 14 LINE",
"667 10 OFFCURVE",
"665 7 OFFCURVE",
"664 4 CURVE",
"667 10 LINE",
"668 13 LINE",
"667 13 LINE",
"667 11 LINE",
"667 12 LINE"
);
},
{
closed = 1;
nodes = (
"672 26 LINE",
"672 24 LINE",
"672 25 LINE",
"673 26 LINE"
);
},
{
closed = 1;
nodes = (
"676 35 LINE",
"677 36 LINE",
"677 37 OFFCURVE",
"677 37 OFFCURVE",
"678 38 CURVE",
"677 37 OFFCURVE",
"678 38 OFFCURVE",
"678 39 CURVE SMOOTH",
"678 40 OFFCURVE",
"678 41 OFFCURVE",
"679 42 CURVE",
"680 42 OFFCURVE",
"680 43 OFFCURVE",
"680 44 CURVE",
"679 43 OFFCURVE",
"679 42 OFFCURVE",
"679 42 CURVE",
"679 41 OFFCURVE",
"679 41 OFFCURVE",
"679 41 CURVE",
"678 40 OFFCURVE",
"678 40 OFFCURVE",
"678 39 CURVE",
"678 40 LINE",
"678 39 LINE",
"678 40 LINE",
"678 39 LINE",
"677 38 OFFCURVE",
"677 37 OFFCURVE",
"677 37 CURVE",
"677 36 OFFCURVE",
"677 36 OFFCURVE",
"676 36 CURVE",
"677 36 LINE",
"676 35 OFFCURVE",
"676 35 OFFCURVE",
"676 35 CURVE",
"676 33 LINE"
);
},
{
closed = 1;
nodes = (
"682 47 OFFCURVE",
"682 47 OFFCURVE",
"682 47 CURVE SMOOTH",
"681 47 OFFCURVE",
"681 47 OFFCURVE",
"681 46 CURVE",
"680 45 OFFCURVE",
"680 45 OFFCURVE",
"680 44 CURVE",
"680 44 OFFCURVE",
"681 45 OFFCURVE",
"682 48 CURVE"
);
},
{
closed = 1;
nodes = (
"670 16 LINE",
"670 18 LINE",
"670 17 LINE",
"669 16 LINE",
"670 16 LINE",
"670 17 LINE"
);
},
{
closed = 1;
nodes = (
"682 49 LINE SMOOTH",
"682 50 OFFCURVE",
"682 50 OFFCURVE",
"683 50 CURVE",
"683 50 OFFCURVE",
"682 49 OFFCURVE",
"681 46 CURVE",
"680 45 OFFCURVE",
"680 45 OFFCURVE",
"680 44 CURVE",
"683 50 LINE",
"684 51 OFFCURVE",
"684 52 OFFCURVE",
"684 52 CURVE",
"685 52 OFFCURVE",
"685 52 OFFCURVE",
"685 53 CURVE",
"684 52 OFFCURVE",
"684 52 OFFCURVE",
"684 52 CURVE",
"685 53 LINE",
"684 52 OFFCURVE",
"684 51 OFFCURVE",
"683 50 CURVE",
"684 52 OFFCURVE",
"685 54 OFFCURVE",
"686 56 CURVE",
"687 57 OFFCURVE",
"688 59 OFFCURVE",
"689 61 CURVE",
"688 60 OFFCURVE",
"686 57 OFFCURVE",
"685 53 CURVE",
"685 54 OFFCURVE",
"685 55 OFFCURVE",
"686 56 CURVE",
"685 55 OFFCURVE",
"685 54 OFFCURVE",
"685 53 CURVE",
"685 54 LINE",
"685 53 OFFCURVE",
"685 52 OFFCURVE",
"684 52 CURVE",
"683 51 OFFCURVE",
"682 50 OFFCURVE",
"682 49 CURVE",
"683 50 OFFCURVE",
"683 50 OFFCURVE",
"683 50 CURVE SMOOTH",
"683 50 OFFCURVE",
"682 49 OFFCURVE",
"681 46 CURVE",
"682 47 OFFCURVE",
"682 48 OFFCURVE",
"682 49 CURVE",
"682 48 LINE"
);
},
{
closed = 1;
nodes = (
"683 50 OFFCURVE",
"683 50 OFFCURVE",
"684 51 CURVE",
"683 51 OFFCURVE",
"683 51 OFFCURVE",
"683 50 CURVE"
);
},
{
closed = 1;
nodes = (
"678 40 LINE",
"679 41 OFFCURVE",
"679 41 OFFCURVE",
"679 42 CURVE",
"679 42 OFFCURVE",
"679 42 OFFCURVE",
"680 43 CURVE",
"680 45 LINE",
"680 43 LINE",
"680 44 LINE",
"680 43 OFFCURVE",
"680 43 OFFCURVE",
"679 42 CURVE",
"679 41 LINE",
"678 41 OFFCURVE",
"678 41 OFFCURVE",
"678 40 CURVE",
"678 41 LINE"
);
},
{
closed = 1;
nodes = (
"680 46 LINE",
"681 46 LINE"
);
}
);
width = 977;
}
);
note = one;
unicode = 0031;
},
{
glyphname = two;
lastChange = "2017-07-24 05:49:16 +0000";
layers = (
{
layerId = "6CFB2232-83DA-4DC4-BCB5-DDBFA820FE35";
paths = (
{
closed = 1;
nodes = (
"1041 1025 OFFCURVE",
"1039 1032 OFFCURVE",
"1036 1039 CURVE SMOOTH",
"1030 1052 OFFCURVE",
"1022 1065 OFFCURVE",
"1014 1077 CURVE",
"1005 1089 OFFCURVE",
"995 1100 OFFCURVE",
"985 1111 CURVE",
"980 1116 OFFCURVE",
"974 1122 OFFCURVE",
"969 1127 CURVE",
"957 1138 OFFCURVE",
"946 1147 OFFCURVE",
"935 1154 CURVE",
"930 1158 LINE",
"925 1160 LINE",
"917 1166 LINE",
"906 1171 LINE",
"905 1172 OFFCURVE",
"903 1173 OFFCURVE",
"902 1174 CURVE",
"900 1175 OFFCURVE",
"898 1176 OFFCURVE",
"897 1177 CURVE",
"887 1182 LINE",
"886 1183 OFFCURVE",
"884 1183 OFFCURVE",
"882 1184 CURVE",
"880 1184 OFFCURVE",
"878 1185 OFFCURVE",
"877 1186 CURVE SMOOTH",
"876 1187 OFFCURVE",
"874 1187 OFFCURVE",
"872 1188 CURVE",
"870 1188 OFFCURVE",
"868 1189 OFFCURVE",
"867 1190 CURVE",
"856 1194 LINE",
"856 1195 OFFCURVE",
"852 1200 OFFCURVE",
"843 1203 CURVE",
"814 1210 OFFCURVE",
"784 1215 OFFCURVE",
"752 1216 CURVE",
"713 1223 OFFCURVE",
"673 1224 OFFCURVE",
"632 1221 CURVE",
"629 1220 OFFCURVE",
"624 1220 OFFCURVE",
"617 1220 CURVE",
"601 1218 LINE",
"596 1217 OFFCURVE",
"591 1217 OFFCURVE",
"586 1217 CURVE",
"581 1216 OFFCURVE",
"575 1215 OFFCURVE",
"570 1214 CURVE SMOOTH",
"565 1213 OFFCURVE",
"559 1212 OFFCURVE",
"554 1212 CURVE",
"549 1211 OFFCURVE",
"543 1210 OFFCURVE",
"538 1209 CURVE",
"536 1208 OFFCURVE",
"534 1208 OFFCURVE",
"531 1208 CURVE",
"528 1207 OFFCURVE",
"526 1206 OFFCURVE",
"523 1205 CURVE",
"516 1203 LINE",
"510 1202 LINE",
"498 1199 LINE",
"495 1199 LINE",
"493 1198 LINE",
"488 1197 LINE",
"485 1196 OFFCURVE",
"481 1195 OFFCURVE",
"478 1194 CURVE SMOOTH",
"475 1193 OFFCURVE",
"471 1191 OFFCURVE",
"468 1190 CURVE SMOOTH",
"465 1189 OFFCURVE",
"461 1188 OFFCURVE",
"458 1187 CURVE SMOOTH",
"455 1186 OFFCURVE",
"451 1185 OFFCURVE",
"448 1184 CURVE SMOOTH",
"445 1183 OFFCURVE",
"442 1182 OFFCURVE",
"439 1181 CURVE SMOOTH",
"436 1180 OFFCURVE",
"432 1178 OFFCURVE",
"429 1177 CURVE",
"404 1167 OFFCURVE",
"380 1155 OFFCURVE",
"357 1141 CURVE SMOOTH",
"345 1134 OFFCURVE",
"355 1124 OFFCURVE",
"366 1128 CURVE SMOOTH",
"407 1144 OFFCURVE",
"450 1158 OFFCURVE",
"493 1171 CURVE",
"488 1168 OFFCURVE",
"484 1165 OFFCURVE",
"479 1163 CURVE",
"474 1160 OFFCURVE",
"470 1157 OFFCURVE",
"465 1154 CURVE",
"464 1154 OFFCURVE",
"463 1153 OFFCURVE",
"463 1152 CURVE",
"460 1151 OFFCURVE",
"457 1149 OFFCURVE",
"454 1148 CURVE",
"448 1145 OFFCURVE",
"440 1142 OFFCURVE",
"435 1139 CURVE",
"432 1137 OFFCURVE",
"429 1135 OFFCURVE",
"426 1134 CURVE",
"415 1129 OFFCURVE",
"422 1117 OFFCURVE",
"434 1121 CURVE SMOOTH",
"458 1129 OFFCURVE",
"481 1136 OFFCURVE",
"508 1143 CURVE",
"512 1145 LINE",
"518 1146 LINE",
"529 1149 LINE SMOOTH",
"533 1150 OFFCURVE",
"537 1151 OFFCURVE",
"542 1152 CURVE SMOOTH",
"547 1153 OFFCURVE",
"551 1154 OFFCURVE",
"555 1155 CURVE",
"564 1156 OFFCURVE",
"573 1158 OFFCURVE",
"582 1160 CURVE",
"591 1161 OFFCURVE",
"600 1163 OFFCURVE",
"609 1164 CURVE SMOOTH",
"645 1168 OFFCURVE",
"680 1171 OFFCURVE",
"715 1168 CURVE SMOOTH",
"728 1167 LINE",
"731 1167 OFFCURVE",
"733 1167 OFFCURVE",
"735 1167 CURVE",
"737 1166 OFFCURVE",
"739 1166 OFFCURVE",
"741 1166 CURVE",
"746 1165 OFFCURVE",
"750 1165 OFFCURVE",
"754 1165 CURVE",
"758 1164 OFFCURVE",
"762 1163 OFFCURVE",
"766 1162 CURVE",
"783 1159 OFFCURVE",
"800 1157 OFFCURVE",
"815 1150 CURVE",
"799 1154 OFFCURVE",
"783 1157 OFFCURVE",
"766 1158 CURVE",
"757 1159 OFFCURVE",
"749 1160 OFFCURVE",
"741 1160 CURVE SMOOTH",
"728 1160 LINE",
"715 1160 LINE SMOOTH",
"711 1160 OFFCURVE",
"707 1160 OFFCURVE",
"703 1160 CURVE SMOOTH",
"698 1160 OFFCURVE",
"694 1160 OFFCURVE",
"690 1159 CURVE",
"681 1159 OFFCURVE",
"673 1158 OFFCURVE",
"664 1157 CURVE SMOOTH",
"655 1156 OFFCURVE",
"647 1154 OFFCURVE",
"639 1153 CURVE SMOOTH",
"630 1152 OFFCURVE",
"622 1150 OFFCURVE",
"613 1149 CURVE SMOOTH",
"599 1147 LINE",
"585 1145 LINE",
"577 1144 LINE",
"570 1143 LINE",
"556 1140 LINE",
"553 1139 OFFCURVE",
"551 1139 OFFCURVE",
"549 1139 CURVE",
"545 1138 OFFCURVE",
"539 1136 OFFCURVE",
"534 1135 CURVE",
"531 1134 OFFCURVE",
"529 1134 OFFCURVE",
"528 1134 CURVE",
"525 1133 OFFCURVE",
"521 1132 OFFCURVE",
"517 1131 CURVE SMOOTH",
"513 1130 OFFCURVE",
"509 1129 OFFCURVE",
"506 1128 CURVE SMOOTH",
"478 1119 OFFCURVE",
"453 1111 OFFCURVE",
"426 1099 CURVE SMOOTH",
"374 1076 OFFCURVE",
"325 1049 OFFCURVE",
"281 1014 CURVE SMOOTH",
"277 1011 OFFCURVE",
"273 1008 OFFCURVE",
"270 1005 CURVE",
"266 1002 OFFCURVE",
"262 998 OFFCURVE",
"258 995 CURVE",
"251 988 OFFCURVE",
"258 978 OFFCURVE",
"267 982 CURVE SMOOTH",
"286 991 OFFCURVE",
"302 999 OFFCURVE",
"321 1007 CURVE",
"303 994 OFFCURVE",
"286 979 OFFCURVE",
"269 964 CURVE SMOOTH",
"260 956 OFFCURVE",
"271 947 OFFCURVE",
"280 952 CURVE",
"291 959 OFFCURVE",
"301 967 OFFCURVE",
"312 975 CURVE SMOOTH",
"322 982 OFFCURVE",
"333 990 OFFCURVE",
"344 997 CURVE",
"350 1000 OFFCURVE",
"356 1004 OFFCURVE",
"363 1008 CURVE",
"369 1011 OFFCURVE",
"375 1015 OFFCURVE",
"381 1018 CURVE",
"382 1017 OFFCURVE",
"383 1017 OFFCURVE",
"384 1018 CURVE",
"385 1018 OFFCURVE",
"386 1018 OFFCURVE",
"387 1018 CURVE",
"410 1029 OFFCURVE",
"433 1038 OFFCURVE",
"457 1047 CURVE",
"450 1044 OFFCURVE",
"443 1040 OFFCURVE",
"436 1035 CURVE",
"425 1028 OFFCURVE",
"435 1019 OFFCURVE",
"444 1022 CURVE",
"443 1015 OFFCURVE",
"448 1009 OFFCURVE",
"456 1012 CURVE",
"461 1015 OFFCURVE",
"465 1016 OFFCURVE",
"470 1017 CURVE",
"472 1018 OFFCURVE",
"474 1019 OFFCURVE",
"477 1020 CURVE",
"479 1020 OFFCURVE",
"481 1021 OFFCURVE",
"484 1022 CURVE",
"477 1019 OFFCURVE",
"469 1016 OFFCURVE",
"462 1013 CURVE",
"454 1010 OFFCURVE",
"446 1006 OFFCURVE",
"439 1003 CURVE SMOOTH",
"432 1000 OFFCURVE",
"424 997 OFFCURVE",
"417 994 CURVE",
"409 991 OFFCURVE",
"401 987 OFFCURVE",
"394 984 CURVE",
"383 977 OFFCURVE",
"390 964 OFFCURVE",
"401 969 CURVE SMOOTH",
"437 986 OFFCURVE",
"473 1001 OFFCURVE",
"512 1012 CURVE",
"493 1001 OFFCURVE",
"475 989 OFFCURVE",
"458 976 CURVE",
"417 955 OFFCURVE",
"379 930 OFFCURVE",
"346 899 CURVE",
"338 892 OFFCURVE",
"348 882 OFFCURVE",
"356 887 CURVE SMOOTH",
"375 898 OFFCURVE",
"395 909 OFFCURVE",
"414 918 CURVE SMOOTH",
"433 927 OFFCURVE",
"453 937 OFFCURVE",
"472 946 CURVE",
"473 941 OFFCURVE",
"477 939 OFFCURVE",
"483 941 CURVE SMOOTH",
"495 945 OFFCURVE",
"508 949 OFFCURVE",
"521 953 CURVE SMOOTH",
"524 954 OFFCURVE",
"528 955 OFFCURVE",
"531 956 CURVE SMOOTH",
"534 957 OFFCURVE",
"537 958 OFFCURVE",
"540 959 CURVE",
"542 960 OFFCURVE",
"544 960 OFFCURVE",
"546 960 CURVE SMOOTH",
"547 960 OFFCURVE",
"549 961 OFFCURVE",
"551 962 CURVE",
"554 962 OFFCURVE",
"556 963 OFFCURVE",
"559 964 CURVE SMOOTH",
"569 967 LINE",
"577 969 LINE",
"584 970 OFFCURVE",
"589 972 OFFCURVE",
"593 973 CURVE",
"626 979 LINE",
"629 980 OFFCURVE",
"632 980 OFFCURVE",
"635 980 CURVE SMOOTH",
"637 980 OFFCURVE",
"639 980 OFFCURVE",
"642 981 CURVE",
"622 974 OFFCURVE",
"602 967 OFFCURVE",
"585 959 CURVE",
"581 958 OFFCURVE",
"577 956 OFFCURVE",
"573 953 CURVE",
"559 946 LINE",
"554 943 OFFCURVE",
"549 941 OFFCURVE",
"544 939 CURVE",
"539 936 OFFCURVE",
"533 933 OFFCURVE",
"528 930 CURVE",
"508 919 OFFCURVE",
"488 909 OFFCURVE",
"469 897 CURVE SMOOTH",
"459 891 OFFCURVE",
"449 885 OFFCURVE",
"440 880 CURVE SMOOTH",
"430 874 OFFCURVE",
"420 868 OFFCURVE",
"411 862 CURVE",
"395 854 OFFCURVE",
"380 846 OFFCURVE",
"365 835 CURVE SMOOTH",
"356 828 OFFCURVE",
"365 817 OFFCURVE",
"373 822 CURVE",
"380 827 OFFCURVE",
"388 831 OFFCURVE",
"396 835 CURVE",
"403 839 OFFCURVE",
"411 843 OFFCURVE",
"418 848 CURVE",
"463 872 OFFCURVE",
"511 891 OFFCURVE",
"559 906 CURVE",
"556 903 OFFCURVE",
"552 900 OFFCURVE",
"547 896 CURVE",
"544 893 OFFCURVE",
"541 890 OFFCURVE",
"538 887 CURVE SMOOTH",
"535 884 OFFCURVE",
"532 881 OFFCURVE",
"529 878 CURVE",
"525 873 OFFCURVE",
"527 867 OFFCURVE",
"534 864 CURVE",
"545 861 OFFCURVE",
"552 862 OFFCURVE",
"563 865 CURVE",
"566 866 OFFCURVE",
"568 866 OFFCURVE",
"570 867 CURVE SMOOTH",
"572 868 OFFCURVE",
"574 868 OFFCURVE",
"577 869 CURVE",
"589 872 LINE",
"591 872 LINE",
"592 872 LINE",
"595 871 LINE",
"600 870 LINE",
"601 869 OFFCURVE",
"603 868 OFFCURVE",
"605 868 CURVE SMOOTH",
"606 868 OFFCURVE",
"608 868 OFFCURVE",
"609 867 CURVE",
"616 864 OFFCURVE",
"619 863 OFFCURVE",
"626 863 CURVE",
"629 862 OFFCURVE",
"631 861 OFFCURVE",
"634 861 CURVE SMOOTH",
"636 861 OFFCURVE",
"639 860 OFFCURVE",
"642 859 CURVE",
"648 859 OFFCURVE",
"654 857 OFFCURVE",
"659 854 CURVE",
"659 853 LINE",
"662 848 OFFCURVE",
"664 843 OFFCURVE",
"663 838 CURVE",
"663 829 OFFCURVE",
"657 812 OFFCURVE",
"644 799 CURVE",
"641 795 OFFCURVE",
"638 792 OFFCURVE",
"635 790 CURVE",
"621 773 LINE",
"618 770 OFFCURVE",
"615 766 OFFCURVE",
"613 763 CURVE",
"610 760 OFFCURVE",
"608 756 OFFCURVE",
"605 753 CURVE",
"582 726 OFFCURVE",
"559 702 OFFCURVE",
"532 678 CURVE",
"529 675 OFFCURVE",
"525 672 OFFCURVE",
"522 669 CURVE SMOOTH",
"519 666 OFFCURVE",
"515 664 OFFCURVE",
"512 661 CURVE",
"490 641 LINE",
"480 632 LINE",
"477 630 OFFCURVE",
"474 627 OFFCURVE",
"469 622 CURVE",
"458 613 LINE",
"446 603 LINE",
"438 597 OFFCURVE",
"430 591 OFFCURVE",
"423 585 CURVE",
"415 579 OFFCURVE",
"407 573 OFFCURVE",
"398 566 CURVE SMOOTH",
"382 554 OFFCURVE",
"365 542 OFFCURVE",
"348 530 CURVE SMOOTH",
"331 518 OFFCURVE",
"313 506 OFFCURVE",
"296 493 CURVE",
"278 482 OFFCURVE",
"260 470 OFFCURVE",
"242 458 CURVE SMOOTH",
"206 433 OFFCURVE",
"170 406 OFFCURVE",
"143 383 CURVE SMOOTH",
"128 371 OFFCURVE",
"119 359 OFFCURVE",
"108 347 CURVE",
"88 323 OFFCURVE",
"76 303 OFFCURVE",
"68 284 CURVE",
"59 265 OFFCURVE",
"54 248 OFFCURVE",
"51 233 CURVE",
"50 229 OFFCURVE",
"50 225 OFFCURVE",
"49 222 CURVE",
"48 214 OFFCURVE",
"47 208 OFFCURVE",
"47 201 CURVE",
"46 197 OFFCURVE",
"46 193 OFFCURVE",
"46 190 CURVE SMOOTH",
"46 182 OFFCURVE",
"64 186 OFFCURVE",
"65 194 CURVE SMOOTH",
"66 205 OFFCURVE",
"68 218 OFFCURVE",
"71 231 CURVE",
"72 234 OFFCURVE",
"74 238 OFFCURVE",
"75 241 CURVE SMOOTH",
"76 244 OFFCURVE",
"77 247 OFFCURVE",
"78 250 CURVE",
"81 257 OFFCURVE",
"83 264 OFFCURVE",
"86 272 CURVE",
"93 287 OFFCURVE",
"101 302 OFFCURVE",
"114 321 CURVE",
"121 330 OFFCURVE",
"127 338 OFFCURVE",
"136 349 CURVE SMOOTH",
"152 369 OFFCURVE",
"178 392 OFFCURVE",
"203 409 CURVE SMOOTH",
"210 414 OFFCURVE",
"217 420 OFFCURVE",
"224 425 CURVE SMOOTH",
"231 430 OFFCURVE",
"238 435 OFFCURVE",
"245 440 CURVE SMOOTH",
"334 501 LINE SMOOTH",
"393 541 OFFCURVE",
"446 581 OFFCURVE",
"495 624 CURVE SMOOTH",
"517 644 LINE",
"520 646 OFFCURVE",
"523 648 OFFCURVE",
"526 651 CURVE SMOOTH",
"529 654 OFFCURVE",
"532 656 OFFCURVE",
"535 659 CURVE",
"547 670 OFFCURVE",
"557 680 OFFCURVE",
"568 691 CURVE SMOOTH",
"591 714 OFFCURVE",
"611 735 OFFCURVE",
"630 758 CURVE",
"635 765 OFFCURVE",
"639 770 OFFCURVE",
"643 775 CURVE SMOOTH",
"646 779 LINE",
"648 781 LINE",
"648 782 LINE",
"649 782 LINE SMOOTH",
"650 782 OFFCURVE",
"650 782 OFFCURVE",
"650 783 CURVE SMOOTH",
"650 784 OFFCURVE",
"650 784 OFFCURVE",
"651 784 CURVE",
"652 786 OFFCURVE",
"654 788 OFFCURVE",
"656 790 CURVE SMOOTH",
"658 792 OFFCURVE",
"660 794 OFFCURVE",
"661 796 CURVE",
"668 804 OFFCURVE",
"673 813 OFFCURVE",
"678 824 CURVE",
"679 820 LINE",
"680 816 LINE",
"676 807 OFFCURVE",
"671 797 OFFCURVE",
"665 788 CURVE",
"664 786 OFFCURVE",
"662 784 OFFCURVE",
"661 781 CURVE",
"658 778 LINE",
"658 777 OFFCURVE",
"658 777 OFFCURVE",
"658 777 CURVE SMOOTH",
"657 777 OFFCURVE",
"657 777 OFFCURVE",
"657 776 CURVE",
"654 773 LINE",
"649 765 LINE",
"643 757 LINE",
"640 754 OFFCURVE",
"638 751 OFFCURVE",
"636 748 CURVE SMOOTH",
"634 745 OFFCURVE",
"632 743 OFFCURVE",
"629 740 CURVE",
"610 717 OFFCURVE",
"593 697 OFFCURVE",
"570 674 CURVE SMOOTH",
"565 669 OFFCURVE",
"559 664 OFFCURVE",
"554 659 CURVE SMOOTH",
"549 654 OFFCURVE",
"543 649 OFFCURVE",
"538 644 CURVE SMOOTH",
"535 641 OFFCURVE",
"532 639 OFFCURVE",
"530 637 CURVE SMOOTH",
"527 634 OFFCURVE",
"524 632 OFFCURVE",
"521 629 CURVE",
"495 606 LINE SMOOTH",
"484 596 OFFCURVE",
"472 586 OFFCURVE",
"460 577 CURVE SMOOTH",
"436 558 OFFCURVE",
"410 540 OFFCURVE",
"385 522 CURVE SMOOTH",
"372 513 OFFCURVE",
"359 503 OFFCURVE",
"346 494 CURVE SMOOTH",
"332 485 OFFCURVE",
"318 475 OFFCURVE",
"305 466 CURVE SMOOTH",
"291 457 OFFCURVE",
"277 447 OFFCURVE",
"263 438 CURVE",
"236 419 OFFCURVE",
"210 401 OFFCURVE",
"187 382 CURVE",
"183 379 LINE",
"179 375 LINE SMOOTH",
"178 374 OFFCURVE",
"176 373 OFFCURVE",
"175 372 CURVE SMOOTH",
"174 371 OFFCURVE",
"172 369 OFFCURVE",
"171 368 CURVE SMOOTH",
"164 361 LINE",
"161 359 OFFCURVE",
"159 357 OFFCURVE",
"157 354 CURVE",
"153 349 OFFCURVE",
"149 345 OFFCURVE",
"145 341 CURVE SMOOTH",
"136 332 OFFCURVE",
"129 323 OFFCURVE",
"124 315 CURVE",
"121 311 OFFCURVE",
"119 307 OFFCURVE",
"116 304 CURVE",
"113 299 OFFCURVE",
"110 295 OFFCURVE",
"108 292 CURVE",
"106 288 OFFCURVE",
"104 284 OFFCURVE",
"101 281 CURVE",
"93 266 OFFCURVE",
"87 253 OFFCURVE",
"82 240 CURVE",
"81 237 OFFCURVE",
"80 234 OFFCURVE",
"79 231 CURVE SMOOTH",
"78 228 OFFCURVE",
"76 225 OFFCURVE",
"75 222 CURVE",
"72 215 OFFCURVE",
"71 212 OFFCURVE",
"70 205 CURVE",
"69 200 OFFCURVE",
"74 199 OFFCURVE",
"81 202 CURVE",
"80 199 OFFCURVE",
"79 195 OFFCURVE",
"78 188 CURVE",
"78 190 LINE",
"77 193 OFFCURVE",
"74 193 OFFCURVE",
"69 192 CURVE",
"60 188 OFFCURVE",
"58 176 OFFCURVE",
"58 167 CURVE SMOOTH",
"58 164 OFFCURVE",
"58 161 OFFCURVE",
"58 158 CURVE SMOOTH",
"58 155 OFFCURVE",
"59 151 OFFCURVE",
"60 146 CURVE",
"61 144 OFFCURVE",
"61 142 OFFCURVE",
"62 140 CURVE",
"62 137 OFFCURVE",
"63 135 OFFCURVE",
"64 133 CURVE",
"65 129 OFFCURVE",
"67 126 OFFCURVE",
"68 123 CURVE SMOOTH",
"69 120 OFFCURVE",
"71 117 OFFCURVE",
"72 114 CURVE SMOOTH",
"73 111 OFFCURVE",
"74 109 OFFCURVE",
"75 107 CURVE",
"80 98 OFFCURVE",
"86 89 OFFCURVE",
"91 82 CURVE SMOOTH",
"94 78 OFFCURVE",
"97 74 OFFCURVE",
"101 70 CURVE SMOOTH",
"106 65 LINE",
"108 62 LINE",
"108 61 OFFCURVE",
"109 61 OFFCURVE",
"111 61 CURVE",
"114 60 LINE",
"186 39 OFFCURVE",
"258 20 OFFCURVE",
"331 1 CURVE",
"392 -21 LINE",
"407 -27 LINE",
"411 -28 LINE",
"412 -28 OFFCURVE",
"412 -28 OFFCURVE",
"412 -28 CURVE",
"412 -29 OFFCURVE",
"412 -29 OFFCURVE",
"413 -29 CURVE SMOOTH",
"415 -29 LINE",
"426 -30 LINE",
"471 -34 LINE SMOOTH",
"500 -37 OFFCURVE",
"530 -39 OFFCURVE",
"560 -41 CURVE SMOOTH",
"590 -44 OFFCURVE",
"620 -46 OFFCURVE",
"651 -49 CURVE SMOOTH",
"666 -50 OFFCURVE",
"682 -51 OFFCURVE",
"697 -52 CURVE SMOOTH",
"712 -53 OFFCURVE",
"728 -55 OFFCURVE",
"743 -56 CURVE SMOOTH",
"755 -57 LINE",
"761 -57 LINE",
"772 -58 LINE",
"796 -60 LINE SMOOTH",
"805 -61 OFFCURVE",
"813 -62 OFFCURVE",
"821 -62 CURVE",
"829 -63 OFFCURVE",
"837 -63 OFFCURVE",
"845 -64 CURVE",
"869 -66 LINE",
"893 -67 LINE",
"902 -68 OFFCURVE",
"907 -54 OFFCURVE",
"896 -51 CURVE",
"869 -45 LINE",
"874 -46 OFFCURVE",
"880 -47 OFFCURVE",
"885 -47 CURVE SMOOTH",
"890 -47 OFFCURVE",
"896 -48 OFFCURVE",
"901 -49 CURVE",
"912 -49 OFFCURVE",
"914 -33 OFFCURVE",
"902 -32 CURVE SMOOTH",
"890 -31 OFFCURVE",
"878 -29 OFFCURVE",
"865 -28 CURVE SMOOTH",
"852 -27 OFFCURVE",
"839 -26 OFFCURVE",
"826 -25 CURVE",
"819 -24 OFFCURVE",
"813 -23 OFFCURVE",
"807 -22 CURVE SMOOTH",
"800 -21 OFFCURVE",
"794 -20 OFFCURVE",
"788 -19 CURVE",
"769 -17 LINE",
"759 -15 LINE",
"757 -14 LINE",
"753 -14 LINE",
"744 -14 LINE",
"700 -9 OFFCURVE",
"657 -4 OFFCURVE",
"615 1 CURVE SMOOTH",
"572 6 OFFCURVE",
"531 11 OFFCURVE",
"490 16 CURVE",
"513 15 LINE",
"534 12 OFFCURVE",
"554 10 OFFCURVE",
"574 8 CURVE",
"594 5 OFFCURVE",
"614 3 OFFCURVE",
"635 0 CURVE SMOOTH",
"698 -7 LINE",
"730 -10 LINE",
"747 -12 LINE",
"752 -13 OFFCURVE",
"757 -14 OFFCURVE",
"760 -14 CURVE",
"785 -18 OFFCURVE",
"810 -21 OFFCURVE",
"835 -24 CURVE SMOOTH",
"842 -25 OFFCURVE",
"848 -25 OFFCURVE",
"854 -25 CURVE",
"860 -26 OFFCURVE",
"866 -26 OFFCURVE",
"873 -27 CURVE",
"885 -28 OFFCURVE",
"897 -29 OFFCURVE",
"910 -29 CURVE",
"921 -30 OFFCURVE",
"923 -14 OFFCURVE",
"911 -14 CURVE",
"878 -12 OFFCURVE",
"845 -9 OFFCURVE",
"812 -5 CURVE SMOOTH",
"803 -4 OFFCURVE",
"795 -2 OFFCURVE",
"787 -1 CURVE SMOOTH",
"779 0 OFFCURVE",
"771 1 OFFCURVE",
"762 2 CURVE",
"761 3 OFFCURVE",
"758 3 OFFCURVE",
"755 3 CURVE SMOOTH",
"751 3 OFFCURVE",
"747 3 OFFCURVE",
"744 4 CURVE",
"724 6 LINE",
"683 11 LINE",
"743 9 LINE",
"758 8 LINE",
"767 7 LINE",
"785 6 LINE SMOOTH",
"798 5 OFFCURVE",
"811 4 OFFCURVE",
"824 3 CURVE SMOOTH",
"836 2 OFFCURVE",
"849 0 OFFCURVE",
"862 -1 CURVE",
"868 -1 OFFCURVE",
"871 2 OFFCURVE",
"871 7 CURVE SMOOTH",
"871 12 OFFCURVE",
"868 15 OFFCURVE",
"863 16 CURVE",
"850 17 OFFCURVE",
"837 18 OFFCURVE",
"825 19 CURVE SMOOTH",
"812 20 OFFCURVE",
"800 21 OFFCURVE",
"787 22 CURVE",
"771 24 LINE",
"764 25 LINE",
"759 25 LINE",
"753 26 LINE",
"706 30 LINE SMOOTH",
"674 33 OFFCURVE",
"643 36 OFFCURVE",
"613 39 CURVE",
"660 38 OFFCURVE",
"708 39 OFFCURVE",
"753 44 CURVE",
"803 41 LINE SMOOTH",
"818 40 OFFCURVE",
"835 39 OFFCURVE",
"850 39 CURVE",
"855 38 OFFCURVE",
"859 40 OFFCURVE",
"860 45 CURVE SMOOTH",
"862 54 OFFCURVE",
"851 55 OFFCURVE",
"840 58 CURVE",
"845 57 OFFCURVE",
"851 57 OFFCURVE",
"857 57 CURVE SMOOTH",
"862 57 OFFCURVE",
"868 57 OFFCURVE",
"873 57 CURVE SMOOTH",
"884 57 OFFCURVE",
"887 69 OFFCURVE",
"876 72 CURVE",
"841 84 OFFCURVE",
"808 93 OFFCURVE",
"772 101 CURVE",
"779 100 OFFCURVE",
"787 100 OFFCURVE",
"795 100 CURVE SMOOTH",
"803 100 OFFCURVE",
"811 100 OFFCURVE",
"818 99 CURVE",
"829 98 OFFCURVE",
"830 114 OFFCURVE",
"819 115 CURVE",
"812 116 OFFCURVE",
"804 116 OFFCURVE",
"796 117 CURVE",
"788 117 OFFCURVE",
"780 117 OFFCURVE",
"773 118 CURVE",
"757 119 OFFCURVE",
"740 121 OFFCURVE",
"723 122 CURVE SMOOTH",
"706 123 OFFCURVE",
"689 125 OFFCURVE",
"672 127 CURVE",
"655 128 OFFCURVE",
"639 130 OFFCURVE",
"622 131 CURVE",
"616 132 LINE",
"689 132 LINE SMOOTH",
"702 132 OFFCURVE",
"706 147 OFFCURVE",
"695 148 CURVE",
"672 151 OFFCURVE",
"652 153 OFFCURVE",
"631 157 CURVE",
"642 156 OFFCURVE",
"654 155 OFFCURVE",
"666 154 CURVE SMOOTH",
"678 153 OFFCURVE",
"690 152 OFFCURVE",
"702 151 CURVE",
"744 145 LINE",
"766 143 LINE",
"787 140 LINE",
"815 137 OFFCURVE",
"843 135 OFFCURVE",
"871 134 CURVE",
"882 134 OFFCURVE",
"884 146 OFFCURVE",
"875 149 CURVE",
"862 154 OFFCURVE",
"848 158 OFFCURVE",
"835 161 CURVE SMOOTH",
"821 164 OFFCURVE",
"807 168 OFFCURVE",
"794 171 CURVE SMOOTH",
"766 178 OFFCURVE",
"744 182 OFFCURVE",
"721 186 CURVE",
"728 187 OFFCURVE",
"734 189 OFFCURVE",
"740 190 CURVE SMOOTH",
"746 191 OFFCURVE",
"752 192 OFFCURVE",
"757 193 CURVE",
"784 191 LINE",
"789 190 OFFCURVE",
"795 190 OFFCURVE",
"800 190 CURVE",
"805 189 OFFCURVE",
"809 189 OFFCURVE",
"814 188 CURVE",
"825 187 OFFCURVE",
"835 187 OFFCURVE",
"845 187 CURVE",
"854 186 OFFCURVE",
"864 186 OFFCURVE",
"875 185 CURVE",
"884 185 OFFCURVE",
"889 198 OFFCURVE",
"878 201 CURVE",
"869 203 OFFCURVE",
"861 205 OFFCURVE",
"852 208 CURVE",
"843 210 OFFCURVE",
"833 212 OFFCURVE",
"824 214 CURVE",
"854 212 LINE",
"865 212 OFFCURVE",
"869 225 OFFCURVE",
"858 228 CURVE",
"856 228 LINE",
"849 229 OFFCURVE",
"842 231 OFFCURVE",
"835 232 CURVE SMOOTH",
"828 233 OFFCURVE",
"820 234 OFFCURVE",
"813 235 CURVE",
"791 239 LINE",
"771 242 LINE",
"770 245 OFFCURVE",
"769 246 OFFCURVE",
"768 246 CURVE",
"739 255 OFFCURVE",
"714 261 OFFCURVE",
"693 264 CURVE",
"686 267 OFFCURVE",
"679 270 OFFCURVE",
"674 271 CURVE SMOOTH",
"669 272 OFFCURVE",
"663 273 OFFCURVE",
"656 274 CURVE",
"649 283 OFFCURVE",
"642 288 OFFCURVE",
"635 292 CURVE SMOOTH",
"628 296 OFFCURVE",
"620 298 OFFCURVE",
"609 301 CURVE",
"613 307 LINE",
"614 308 OFFCURVE",
"615 310 OFFCURVE",
"616 311 CURVE SMOOTH",
"617 312 OFFCURVE",
"618 314 OFFCURVE",
"620 315 CURVE",
"622 318 OFFCURVE",
"626 321 OFFCURVE",
"632 323 CURVE",
"635 325 OFFCURVE",
"639 327 OFFCURVE",
"644 330 CURVE",
"653 333 OFFCURVE",
"660 337 OFFCURVE",
"666 340 CURVE SMOOTH",
"672 343 OFFCURVE",
"677 345 OFFCURVE",
"682 347 CURVE",
"695 351 OFFCURVE",
"705 354 OFFCURVE",
"712 357 CURVE SMOOTH",
"719 360 OFFCURVE",
"725 362 OFFCURVE",
"730 363 CURVE SMOOTH",
"735 364 OFFCURVE",
"738 366 OFFCURVE",
"740 368 CURVE",
"742 369 OFFCURVE",
"743 370 OFFCURVE",
"744 371 CURVE",
"745 371 OFFCURVE",
"745 371 OFFCURVE",
"746 372 CURVE SMOOTH",
"747 373 LINE",
"749 376 LINE",
"751 377 LINE",
"752 377 OFFCURVE",
"752 377 OFFCURVE",
"753 378 CURVE",
"757 381 LINE SMOOTH",
"761 384 OFFCURVE",
"764 386 OFFCURVE",
"767 389 CURVE SMOOTH",
"770 392 OFFCURVE",
"774 394 OFFCURVE",
"777 397 CURVE SMOOTH",
"780 400 OFFCURVE",
"783 402 OFFCURVE",
"786 405 CURVE",
"792 410 OFFCURVE",
"798 416 OFFCURVE",
"804 422 CURVE",
"809 428 OFFCURVE",
"815 434 OFFCURVE",
"821 440 CURVE",
"844 460 OFFCURVE",
"865 482 OFFCURVE",
"884 505 CURVE SMOOTH",
"889 511 OFFCURVE",
"894 517 OFFCURVE",
"899 523 CURVE SMOOTH",
"904 529 OFFCURVE",
"909 535 OFFCURVE",
"914 541 CURVE",
"917 544 OFFCURVE",
"919 548 OFFCURVE",
"921 551 CURVE SMOOTH",
"923 554 OFFCURVE",
"925 557 OFFCURVE",
"928 560 CURVE",
"929 562 OFFCURVE",
"930 564 OFFCURVE",
"931 565 CURVE SMOOTH",
"932 566 OFFCURVE",
"933 568 OFFCURVE",
"934 570 CURVE",
"938 575 LINE",
"942 581 LINE",
"947 588 LINE",
"949 590 LINE",
"951 592 LINE",
"955 598 LINE",
"958 601 OFFCURVE",
"960 605 OFFCURVE",
"962 608 CURVE SMOOTH",
"964 611 OFFCURVE",
"966 615 OFFCURVE",
"969 618 CURVE SMOOTH",
"972 621 OFFCURVE",
"974 625 OFFCURVE",
"976 629 CURVE SMOOTH",
"978 633 OFFCURVE",
"980 637 OFFCURVE",
"983 640 CURVE",
"985 643 OFFCURVE",
"987 647 OFFCURVE",
"990 651 CURVE",
"992 654 OFFCURVE",
"994 658 OFFCURVE",
"996 661 CURVE",
"1008 683 LINE",
"1011 688 OFFCURVE",
"1012 692 OFFCURVE",
"1013 695 CURVE",
"1019 706 LINE",
"1022 713 OFFCURVE",
"1026 721 OFFCURVE",
"1030 728 CURVE",
"1039 751 LINE",
"1044 766 OFFCURVE",
"1049 782 OFFCURVE",
"1054 798 CURVE",
"1062 829 OFFCURVE",
"1067 860 OFFCURVE",
"1067 889 CURVE SMOOTH",
"1067 904 OFFCURVE",
"1066 919 OFFCURVE",
"1065 934 CURVE",
"1062 963 OFFCURVE",
"1055 991 OFFCURVE",
"1044 1018 CURVE SMOOTH"
);
}
);
width = 1128;
}
);
note = two;
unicode = 0032;
},
{
glyphname = three;
lastChange = "2017-07-24 05:49:16 +0000";
layers = (
{
layerId = "6CFB2232-83DA-4DC4-BCB5-DDBFA820FE35";
paths = (
{
closed = 1;
nodes = (
"831 501 OFFCURVE",
"817 523 OFFCURVE",
"798 547 CURVE SMOOTH",
"795 551 OFFCURVE",
"793 554 OFFCURVE",
"790 557 CURVE",
"835 590 OFFCURVE",
"877 627 OFFCURVE",
"916 666 CURVE",
"922 673 OFFCURVE",
"928 679 OFFCURVE",
"934 686 CURVE SMOOTH",
"939 692 OFFCURVE",
"945 698 OFFCURVE",
"951 705 CURVE",
"952 706 OFFCURVE",
"952 707 OFFCURVE",
"953 708 CURVE",
"954 708 OFFCURVE",
"954 709 OFFCURVE",
"955 710 CURVE",
"958 715 LINE",
"966 725 LINE",
"980 745 LINE SMOOTH",
"999 772 OFFCURVE",
"1012 797 OFFCURVE",
"1023 824 CURVE SMOOTH",
"1034 849 OFFCURVE",
"1041 875 OFFCURVE",
"1045 902 CURVE",
"1046 905 OFFCURVE",
"1046 909 OFFCURVE",
"1046 912 CURVE SMOOTH",
"1046 915 OFFCURVE",
"1046 919 OFFCURVE",
"1047 922 CURVE SMOOTH",
"1048 925 OFFCURVE",
"1048 928 OFFCURVE",
"1048 932 CURVE SMOOTH",
"1048 933 OFFCURVE",
"1048 935 OFFCURVE",
"1049 937 CURVE",
"1049 939 OFFCURVE",
"1049 941 OFFCURVE",
"1049 942 CURVE SMOOTH",
"1049 955 OFFCURVE",
"1048 968 OFFCURVE",
"1046 982 CURVE SMOOTH",
"1043 1009 OFFCURVE",
"1036 1035 OFFCURVE",
"1025 1062 CURVE SMOOTH",
"1014 1089 OFFCURVE",
"999 1113 OFFCURVE",
"980 1134 CURVE",
"981 1138 OFFCURVE",
"979 1143 OFFCURVE",
"974 1148 CURVE SMOOTH",
"963 1159 OFFCURVE",
"954 1167 OFFCURVE",
"943 1174 CURVE",
"933 1181 OFFCURVE",
"921 1188 OFFCURVE",
"908 1195 CURVE",
"881 1215 OFFCURVE",
"851 1231 OFFCURVE",
"818 1243 CURVE",
"801 1250 OFFCURVE",
"784 1255 OFFCURVE",
"765 1259 CURVE SMOOTH",
"726 1267 OFFCURVE",
"688 1271 OFFCURVE",
"645 1271 CURVE SMOOTH",
"624 1271 OFFCURVE",
"602 1270 OFFCURVE",
"580 1267 CURVE SMOOTH",
"537 1262 OFFCURVE",
"491 1253 OFFCURVE",
"448 1240 CURVE SMOOTH",
"427 1233 OFFCURVE",
"436 1222 OFFCURVE",
"455 1226 CURVE SMOOTH",
"527 1239 OFFCURVE",
"596 1247 OFFCURVE",
"663 1244 CURVE",
"654 1243 OFFCURVE",
"646 1242 OFFCURVE",
"638 1241 CURVE SMOOTH",
"630 1240 OFFCURVE",
"622 1238 OFFCURVE",
"613 1236 CURVE",
"611 1236 OFFCURVE",
"610 1236 OFFCURVE",
"609 1235 CURVE",
"604 1234 OFFCURVE",
"598 1233 OFFCURVE",
"593 1232 CURVE SMOOTH",
"588 1231 OFFCURVE",
"582 1231 OFFCURVE",
"577 1230 CURVE SMOOTH",
"572 1229 OFFCURVE",
"566 1228 OFFCURVE",
"561 1228 CURVE",
"556 1227 OFFCURVE",
"550 1226 OFFCURVE",
"545 1225 CURVE",
"526 1220 OFFCURVE",
"530 1206 OFFCURVE",
"547 1209 CURVE",
"585 1214 OFFCURVE",
"622 1215 OFFCURVE",
"659 1214 CURVE SMOOTH",
"731 1211 OFFCURVE",
"798 1196 OFFCURVE",
"851 1168 CURVE SMOOTH",
"879 1153 OFFCURVE",
"903 1137 OFFCURVE",
"926 1114 CURVE",
"913 1125 OFFCURVE",
"901 1134 OFFCURVE",
"889 1141 CURVE SMOOTH",
"861 1157 OFFCURVE",
"835 1169 OFFCURVE",
"803 1177 CURVE",
"795 1178 OFFCURVE",
"787 1180 OFFCURVE",
"779 1182 CURVE",
"771 1183 OFFCURVE",
"763 1185 OFFCURVE",
"756 1186 CURVE",
"738 1190 OFFCURVE",
"720 1193 OFFCURVE",
"702 1195 CURVE",
"699 1196 OFFCURVE",
"697 1196 OFFCURVE",
"695 1196 CURVE SMOOTH",
"692 1196 OFFCURVE",
"690 1196 OFFCURVE",
"688 1197 CURVE",
"682 1197 OFFCURVE",
"677 1197 OFFCURVE",
"674 1198 CURVE",
"659 1199 LINE",
"644 1199 LINE",
"638 1199 LINE",
"630 1199 LINE",
"615 1198 LINE",
"600 1197 LINE",
"592 1197 LINE",
"585 1196 LINE",
"569 1195 LINE",
"554 1192 LINE SMOOTH",
"549 1191 OFFCURVE",
"544 1191 OFFCURVE",
"539 1191 CURVE",
"534 1190 OFFCURVE",
"529 1189 OFFCURVE",
"524 1188 CURVE SMOOTH",
"519 1187 OFFCURVE",
"514 1186 OFFCURVE",
"509 1185 CURVE",
"499 1184 OFFCURVE",
"488 1181 OFFCURVE",
"478 1178 CURVE",
"473 1177 OFFCURVE",
"467 1175 OFFCURVE",
"462 1174 CURVE SMOOTH",
"457 1173 OFFCURVE",
"452 1171 OFFCURVE",
"447 1170 CURVE SMOOTH",
"442 1169 OFFCURVE",
"437 1167 OFFCURVE",
"432 1166 CURVE",
"417 1161 LINE",
"416 1160 OFFCURVE",
"415 1160 OFFCURVE",
"414 1160 CURVE SMOOTH",
"413 1160 OFFCURVE",
"411 1159 OFFCURVE",
"410 1158 CURVE",
"403 1156 LINE",
"397 1154 LINE",
"393 1153 LINE",
"392 1152 OFFCURVE",
"391 1152 OFFCURVE",
"390 1152 CURVE",
"380 1147 LINE",
"373 1144 OFFCURVE",
"367 1142 OFFCURVE",
"360 1139 CURVE SMOOTH",
"353 1136 OFFCURVE",
"346 1133 OFFCURVE",
"339 1130 CURVE SMOOTH",
"332 1127 OFFCURVE",
"326 1123 OFFCURVE",
"319 1120 CURVE",
"315 1117 OFFCURVE",
"311 1115 OFFCURVE",
"307 1113 CURVE",
"302 1111 OFFCURVE",
"298 1108 OFFCURVE",
"293 1105 CURVE SMOOTH",
"284 1100 OFFCURVE",
"287 1088 OFFCURVE",
"298 1091 CURVE SMOOTH",
"309 1094 OFFCURVE",
"319 1096 OFFCURVE",
"329 1099 CURVE SMOOTH",
"339 1102 OFFCURVE",
"349 1104 OFFCURVE",
"358 1106 CURVE",
"336 1096 OFFCURVE",
"316 1085 OFFCURVE",
"297 1072 CURVE SMOOTH",
"286 1065 OFFCURVE",
"294 1055 OFFCURVE",
"305 1059 CURVE SMOOTH",
"318 1064 OFFCURVE",
"330 1070 OFFCURVE",
"343 1076 CURVE",
"355 1081 OFFCURVE",
"368 1087 OFFCURVE",
"381 1092 CURVE",
"388 1095 OFFCURVE",
"395 1097 OFFCURVE",
"403 1100 CURVE",
"404 1101 OFFCURVE",
"406 1101 OFFCURVE",
"408 1102 CURVE",
"410 1102 OFFCURVE",
"412 1103 OFFCURVE",
"414 1104 CURVE",
"427 1108 LINE",
"430 1108 OFFCURVE",
"432 1108 OFFCURVE",
"434 1109 CURVE",
"466 1117 OFFCURVE",
"499 1124 OFFCURVE",
"531 1129 CURVE",
"516 1125 LINE",
"511 1124 OFFCURVE",
"507 1123 OFFCURVE",
"500 1120 CURVE",
"485 1115 OFFCURVE",
"491 1103 OFFCURVE",
"503 1104 CURVE",
"498 1099 OFFCURVE",
"500 1090 OFFCURVE",
"511 1093 CURVE",
"528 1096 LINE",
"545 1098 LINE",
"506 1091 OFFCURVE",
"469 1083 OFFCURVE",
"432 1072 CURVE SMOOTH",
"419 1068 OFFCURVE",
"423 1053 OFFCURVE",
"436 1056 CURVE",
"479 1068 OFFCURVE",
"523 1078 OFFCURVE",
"567 1083 CURVE",
"542 1075 OFFCURVE",
"519 1066 OFFCURVE",
"496 1055 CURVE",
"490 1053 OFFCURVE",
"484 1051 OFFCURVE",
"478 1049 CURVE",
"472 1046 OFFCURVE",
"466 1044 OFFCURVE",
"461 1042 CURVE",
"455 1040 OFFCURVE",
"449 1038 OFFCURVE",
"444 1035 CURVE",
"428 1029 LINE",
"405 1018 OFFCURVE",
"383 1007 OFFCURVE",
"362 995 CURVE",
"351 988 OFFCURVE",
"360 977 OFFCURVE",
"369 981 CURVE",
"381 984 OFFCURVE",
"392 988 OFFCURVE",
"403 992 CURVE SMOOTH",
"420 998 LINE",
"438 1003 LINE",
"453 1008 LINE SMOOTH",
"456 1009 OFFCURVE",
"460 1011 OFFCURVE",
"467 1012 CURVE",
"472 1013 OFFCURVE",
"477 1015 OFFCURVE",
"482 1017 CURVE",
"487 1018 OFFCURVE",
"491 1020 OFFCURVE",
"496 1021 CURVE",
"496 1015 OFFCURVE",
"498 1012 OFFCURVE",
"503 1013 CURVE",
"515 1014 OFFCURVE",
"527 1016 OFFCURVE",
"539 1018 CURVE",
"550 1019 OFFCURVE",
"562 1021 OFFCURVE",
"575 1022 CURVE",
"599 1025 OFFCURVE",
"624 1026 OFFCURVE",
"649 1023 CURVE",
"654 1023 OFFCURVE",
"659 1022 OFFCURVE",
"666 1021 CURVE",
"653 1020 OFFCURVE",
"641 1019 OFFCURVE",
"629 1018 CURVE",
"604 1014 OFFCURVE",
"581 1008 OFFCURVE",
"561 1002 CURVE SMOOTH",
"540 996 OFFCURVE",
"521 989 OFFCURVE",
"504 982 CURVE SMOOTH",
"495 978 OFFCURVE",
"487 974 OFFCURVE",
"479 971 CURVE",
"468 966 LINE",
"455 961 LINE",
"449 958 LINE",
"440 955 LINE",
"423 948 LINE",
"403 941 OFFCURVE",
"385 935 OFFCURVE",
"366 928 CURVE SMOOTH",
"354 924 OFFCURVE",
"360 909 OFFCURVE",
"371 913 CURVE SMOOTH",
"390 920 OFFCURVE",
"408 926 OFFCURVE",
"427 933 CURVE",
"438 936 LINE",
"448 939 LINE",
"453 941 LINE",
"457 942 LINE",
"464 944 LINE SMOOTH",
"468 945 OFFCURVE",
"472 946 OFFCURVE",
"476 947 CURVE SMOOTH",
"480 948 OFFCURVE",
"484 949 OFFCURVE",
"487 950 CURVE",
"495 952 OFFCURVE",
"503 954 OFFCURVE",
"511 955 CURVE SMOOTH",
"519 956 OFFCURVE",
"527 957 OFFCURVE",
"534 958 CURVE",
"530 956 OFFCURVE",
"526 953 OFFCURVE",
"523 950 CURVE SMOOTH",
"520 947 OFFCURVE",
"517 945 OFFCURVE",
"514 943 CURVE SMOOTH",
"511 941 OFFCURVE",
"509 939 OFFCURVE",
"506 936 CURVE",
"498 925 OFFCURVE",
"505 913 OFFCURVE",
"513 913 CURVE SMOOTH",
"515 913 OFFCURVE",
"517 913 OFFCURVE",
"519 914 CURVE SMOOTH",
"521 915 OFFCURVE",
"523 915 OFFCURVE",
"526 915 CURVE",
"528 913 OFFCURVE",
"530 911 OFFCURVE",
"533 910 CURVE",
"535 908 OFFCURVE",
"537 906 OFFCURVE",
"540 904 CURVE",
"542 903 OFFCURVE",
"544 901 OFFCURVE",
"546 900 CURVE",
"548 898 OFFCURVE",
"550 896 OFFCURVE",
"553 895 CURVE",
"561 890 OFFCURVE",
"572 882 OFFCURVE",
"577 869 CURVE",
"576 868 LINE",
"575 865 OFFCURVE",
"573 862 OFFCURVE",
"571 859 CURVE",
"567 854 OFFCURVE",
"562 848 OFFCURVE",
"558 844 CURVE SMOOTH",
"556 842 OFFCURVE",
"554 840 OFFCURVE",
"551 838 CURVE",
"546 835 OFFCURVE",
"541 832 OFFCURVE",
"536 829 CURVE SMOOTH",
"531 826 OFFCURVE",
"527 823 OFFCURVE",
"522 820 CURVE",
"520 819 OFFCURVE",
"518 818 OFFCURVE",
"516 817 CURVE",
"513 816 OFFCURVE",
"511 815 OFFCURVE",
"509 814 CURVE",
"507 814 LINE",
"506 813 OFFCURVE",
"505 812 OFFCURVE",
"504 812 CURVE",
"502 811 LINE",
"502 810 LINE",
"500 810 LINE",
"495 807 LINE",
"493 806 OFFCURVE",
"491 805 OFFCURVE",
"490 804 CURVE",
"488 803 OFFCURVE",
"486 803 OFFCURVE",
"485 802 CURVE",
"482 801 OFFCURVE",
"479 799 OFFCURVE",
"475 798 CURVE",
"473 797 LINE",
"471 796 LINE",
"466 795 LINE",
"466 794 OFFCURVE",
"465 794 OFFCURVE",
"463 794 CURVE",
"462 793 OFFCURVE",
"461 793 OFFCURVE",
"461 793 CURVE",
"461 792 OFFCURVE",
"460 792 OFFCURVE",
"459 792 CURVE SMOOTH",
"457 792 LINE",
"455 792 LINE",
"454 792 LINE",
"453 792 LINE",
"455 786 LINE",
"455 785 OFFCURVE",
"455 783 OFFCURVE",
"456 782 CURVE",
"456 780 OFFCURVE",
"456 778 OFFCURVE",
"456 777 CURVE",
"457 777 LINE",
"457 776 LINE",
"459 776 LINE",
"460 777 LINE",
"462 777 LINE",
"465 777 LINE",
"471 779 OFFCURVE",
"480 783 OFFCURVE",
"491 788 CURVE",
"499 791 LINE",
"507 795 LINE",
"509 797 LINE",
"511 797 LINE",
"513 799 LINE",
"516 801 LINE",
"519 801 LINE",
"535 809 OFFCURVE",
"552 820 OFFCURVE",
"571 835 CURVE",
"571 833 OFFCURVE",
"570 831 OFFCURVE",
"569 828 CURVE",
"566 824 OFFCURVE",
"562 820 OFFCURVE",
"558 817 CURVE",
"550 810 OFFCURVE",
"539 802 OFFCURVE",
"534 799 CURVE",
"532 797 OFFCURVE",
"530 796 OFFCURVE",
"527 795 CURVE",
"526 794 LINE",
"524 792 LINE",
"523 792 OFFCURVE",
"522 792 OFFCURVE",
"521 791 CURVE SMOOTH",
"520 790 OFFCURVE",
"520 790 OFFCURVE",
"519 790 CURVE SMOOTH",
"518 790 LINE",
"516 791 LINE",
"512 786 LINE",
"504 782 LINE SMOOTH",
"502 781 OFFCURVE",
"500 779 OFFCURVE",
"497 778 CURVE SMOOTH",
"494 777 OFFCURVE",
"492 775 OFFCURVE",
"490 774 CURVE",
"485 772 OFFCURVE",
"481 770 OFFCURVE",
"477 769 CURVE SMOOTH",
"473 768 OFFCURVE",
"469 766 OFFCURVE",
"466 765 CURVE",
"465 764 OFFCURVE",
"463 764 OFFCURVE",
"462 764 CURVE SMOOTH",
"460 764 LINE",
"459 764 LINE",
"458 764 LINE",
"458 763 LINE",
"459 762 OFFCURVE",
"459 762 OFFCURVE",
"459 762 CURVE",
"459 760 LINE",
"459 761 LINE",
"459 756 LINE",
"459 752 LINE",
"459 759 LINE",
"459 751 LINE",
"459 750 LINE",
"460 749 OFFCURVE",
"460 749 OFFCURVE",
"460 749 CURVE",
"460 746 LINE",
"460 747 LINE",
"460 745 LINE",
"460 743 LINE SMOOTH",
"460 742 OFFCURVE",
"460 741 OFFCURVE",
"461 740 CURVE",
"461 739 OFFCURVE",
"461 738 OFFCURVE",
"461 737 CURVE SMOOTH",
"461 734 OFFCURVE",
"461 730 OFFCURVE",
"461 727 CURVE SMOOTH",
"461 724 OFFCURVE",
"461 720 OFFCURVE",
"460 717 CURVE",
"429 696 LINE",
"428 692 OFFCURVE",
"427 688 OFFCURVE",
"425 685 CURVE",
"422 678 OFFCURVE",
"418 672 OFFCURVE",
"414 669 CURVE",
"412 668 OFFCURVE",
"411 668 OFFCURVE",
"412 671 CURVE",
"413 676 OFFCURVE",
"414 680 OFFCURVE",
"408 674 CURVE SMOOTH",
"402 668 OFFCURVE",
"377 635 OFFCURVE",
"364 617 CURVE SMOOTH",
"351 599 OFFCURVE",
"342 587 OFFCURVE",
"337 579 CURVE",
"336 574 OFFCURVE",
"334 570 OFFCURVE",
"331 566 CURVE",
"327 559 OFFCURVE",
"322 550 OFFCURVE",
"319 545 CURVE",
"318 543 OFFCURVE",
"316 542 OFFCURVE",
"315 541 CURVE",
"312 539 OFFCURVE",
"309 536 OFFCURVE",
"306 529 CURVE",
"304 526 OFFCURVE",
"302 520 OFFCURVE",
"299 513 CURVE",
"294 499 OFFCURVE",
"290 491 OFFCURVE",
"289 490 CURVE",
"287 489 OFFCURVE",
"287 487 OFFCURVE",
"289 485 CURVE SMOOTH",
"290 484 OFFCURVE",
"290 484 OFFCURVE",
"291 484 CURVE",
"291 484 OFFCURVE",
"292 483 OFFCURVE",
"294 481 CURVE",
"298 478 LINE",
"301 475 LINE",
"304 472 LINE",
"307 470 LINE",
"313 466 LINE",
"315 464 LINE",
"317 463 LINE",
"321 460 OFFCURVE",
"324 459 OFFCURVE",
"326 458 CURVE",
"327 457 OFFCURVE",
"329 456 OFFCURVE",
"330 456 CURVE",
"331 455 OFFCURVE",
"332 454 OFFCURVE",
"333 453 CURVE",
"347 446 LINE",
"350 445 OFFCURVE",
"352 444 OFFCURVE",
"354 443 CURVE SMOOTH",
"356 442 OFFCURVE",
"358 441 OFFCURVE",
"361 440 CURVE",
"367 437 LINE",
"373 435 LINE",
"374 435 LINE",
"389 424 OFFCURVE",
"401 415 OFFCURVE",
"414 404 CURVE SMOOTH",
"429 392 OFFCURVE",
"442 381 OFFCURVE",
"454 369 CURVE SMOOTH",
"463 360 LINE",
"466 358 LINE",
"467 356 LINE",
"470 354 LINE",
"470 353 LINE",
"470 352 LINE",
"471 351 LINE",
"472 349 OFFCURVE",
"472 347 OFFCURVE",
"473 346 CURVE SMOOTH",
"474 345 OFFCURVE",
"474 343 OFFCURVE",
"474 342 CURVE SMOOTH",
"474 338 OFFCURVE",
"473 335 OFFCURVE",
"472 334 CURVE",
"472 333 OFFCURVE",
"488 323 OFFCURVE",
"491 326 CURVE",
"492 329 OFFCURVE",
"494 331 OFFCURVE",
"494 334 CURVE SMOOTH",
"494 343 OFFCURVE",
"492 347 OFFCURVE",
"489 352 CURVE",
"487 355 OFFCURVE",
"485 357 OFFCURVE",
"484 360 CURVE SMOOTH",
"483 363 LINE",
"482 364 LINE",
"481 364 LINE",
"481 365 LINE",
"478 368 LINE",
"476 370 LINE",
"474 372 LINE SMOOTH",
"470 376 OFFCURVE",
"467 379 OFFCURVE",
"464 381 CURVE",
"452 393 OFFCURVE",
"438 405 OFFCURVE",
"423 417 CURVE",
"422 418 OFFCURVE",
"420 420 OFFCURVE",
"418 421 CURVE SMOOTH",
"416 422 OFFCURVE",
"414 424 OFFCURVE",
"412 426 CURVE",
"417 425 OFFCURVE",
"421 424 OFFCURVE",
"425 424 CURVE",
"429 423 OFFCURVE",
"433 423 OFFCURVE",
"437 422 CURVE",
"448 413 OFFCURVE",
"458 403 OFFCURVE",
"469 394 CURVE",
"478 384 LINE",
"479 383 OFFCURVE",
"481 381 OFFCURVE",
"483 380 CURVE",
"484 379 OFFCURVE",
"485 377 OFFCURVE",
"486 376 CURVE SMOOTH",
"489 373 LINE",
"490 372 LINE",
"492 369 LINE SMOOTH",
"497 362 OFFCURVE",
"500 354 OFFCURVE",
"502 347 CURVE",
"502 336 OFFCURVE",
"501 332 OFFCURVE",
"496 327 CURVE SMOOTH",
"495 326 OFFCURVE",
"496 326 OFFCURVE",
"499 325 CURVE",
"501 324 OFFCURVE",
"504 322 OFFCURVE",
"507 321 CURVE",
"506 320 OFFCURVE",
"506 319 OFFCURVE",
"506 319 CURVE SMOOTH",
"505 319 OFFCURVE",
"505 318 OFFCURVE",
"504 317 CURVE",
"503 318 LINE SMOOTH",
"500 321 OFFCURVE",
"489 326 OFFCURVE",
"486 326 CURVE",
"483 325 OFFCURVE",
"480 325 OFFCURVE",
"478 325 CURVE SMOOTH",
"476 325 OFFCURVE",
"474 325 OFFCURVE",
"472 325 CURVE",
"469 324 OFFCURVE",
"466 324 OFFCURVE",
"463 324 CURVE SMOOTH",
"461 324 LINE",
"461 323 LINE",
"459 323 LINE",
"441 319 LINE",
"423 315 LINE",
"406 311 LINE",
"390 308 LINE",
"384 307 LINE",
"380 306 LINE",
"375 306 LINE",
"372 309 OFFCURVE",
"371 311 OFFCURVE",
"371 314 CURVE SMOOTH",
"371 316 OFFCURVE",
"372 318 OFFCURVE",
"373 321 CURVE",
"374 322 OFFCURVE",
"375 323 OFFCURVE",
"376 323 CURVE SMOOTH",
"377 323 LINE",
"377 324 LINE",
"377 325 LINE",
"378 326 LINE",
"380 330 LINE",
"380 333 OFFCURVE",
"378 336 OFFCURVE",
"375 338 CURVE",
"370 339 OFFCURVE",
"366 339 OFFCURVE",
"365 337 CURVE",
"364 336 OFFCURVE",
"364 336 OFFCURVE",
"364 335 CURVE",
"363 334 OFFCURVE",
"363 334 OFFCURVE",
"362 333 CURVE",
"361 331 LINE",
"361 330 LINE",
"360 330 LINE",
"359 329 LINE",
"358 329 LINE",
"358 330 LINE",
"359 330 LINE",
"359 331 LINE",
"363 341 LINE",
"364 346 OFFCURVE",
"351 355 OFFCURVE",
"348 347 CURVE SMOOTH",
"344 336 LINE",
"343 334 LINE",
"342 333 OFFCURVE",
"342 332 OFFCURVE",
"342 332 CURVE",
"339 325 LINE",
"338 322 OFFCURVE",
"336 319 OFFCURVE",
"335 316 CURVE SMOOTH",
"334 313 OFFCURVE",
"332 310 OFFCURVE",
"331 307 CURVE",
"326 290 OFFCURVE",
"330 274 OFFCURVE",
"343 265 CURVE",
"342 265 OFFCURVE",
"341 265 OFFCURVE",
"341 266 CURVE",
"340 266 OFFCURVE",
"340 266 OFFCURVE",
"339 266 CURVE",
"331 274 OFFCURVE",
"328 280 OFFCURVE",
"328 287 CURVE",
"327 294 OFFCURVE",
"328 301 OFFCURVE",
"330 309 CURVE",
"331 312 OFFCURVE",
"333 315 OFFCURVE",
"334 318 CURVE SMOOTH",
"335 321 OFFCURVE",
"336 323 OFFCURVE",
"337 326 CURVE",
"338 327 OFFCURVE",
"339 329 OFFCURVE",
"339 330 CURVE SMOOTH",
"339 331 OFFCURVE",
"340 333 OFFCURVE",
"341 334 CURVE",
"343 341 LINE",
"347 353 LINE",
"347 355 OFFCURVE",
"347 356 OFFCURVE",
"346 357 CURVE",
"345 357 OFFCURVE",
"345 357 OFFCURVE",
"345 358 CURVE",
"343 358 LINE",
"341 358 LINE",
"338 359 OFFCURVE",
"337 360 OFFCURVE",
"338 360 CURVE",
"337 361 LINE",
"336 361 LINE",
"335 362 OFFCURVE",
"333 361 OFFCURVE",
"332 359 CURVE",
"329 351 LINE",
"326 342 LINE",
"325 338 LINE",
"324 335 LINE",
"318 321 LINE",
"317 316 OFFCURVE",
"315 310 OFFCURVE",
"314 305 CURVE",
"312 299 OFFCURVE",
"311 293 OFFCURVE",
"311 286 CURVE",
"308 293 OFFCURVE",
"307 302 OFFCURVE",
"307 310 CURVE",
"309 321 OFFCURVE",
"311 329 OFFCURVE",
"314 336 CURVE",
"315 341 OFFCURVE",
"301 345 OFFCURVE",
"298 340 CURVE",
"294 329 OFFCURVE",
"291 319 OFFCURVE",
"291 308 CURVE",
"289 297 OFFCURVE",
"288 288 OFFCURVE",
"289 279 CURVE SMOOTH",
"290 270 OFFCURVE",
"292 259 OFFCURVE",
"299 251 CURVE",
"287 262 OFFCURVE",
"278 272 OFFCURVE",
"270 287 CURVE",
"269 303 OFFCURVE",
"271 320 OFFCURVE",
"274 337 CURVE",
"275 340 OFFCURVE",
"273 342 OFFCURVE",
"269 343 CURVE",
"260 346 OFFCURVE",
"255 336 OFFCURVE",
"254 332 CURVE",
"255 335 OFFCURVE",
"255 339 OFFCURVE",
"256 343 CURVE",
"257 346 OFFCURVE",
"258 350 OFFCURVE",
"259 353 CURVE",
"260 360 OFFCURVE",
"248 365 OFFCURVE",
"244 358 CURVE",
"235 347 OFFCURVE",
"227 334 OFFCURVE",
"221 321 CURVE SMOOTH",
"214 306 OFFCURVE",
"211 292 OFFCURVE",
"208 276 CURVE",
"207 288 OFFCURVE",
"208 301 OFFCURVE",
"210 314 CURVE",
"211 319 OFFCURVE",
"208 321 OFFCURVE",
"203 321 CURVE SMOOTH",
"199 321 OFFCURVE",
"194 320 OFFCURVE",
"193 313 CURVE SMOOTH",
"191 299 OFFCURVE",
"190 285 OFFCURVE",
"190 271 CURVE SMOOTH",
"190 257 OFFCURVE",
"192 243 OFFCURVE",
"195 229 CURVE",
"199 214 OFFCURVE",
"204 201 OFFCURVE",
"212 190 CURVE",
"219 179 OFFCURVE",
"230 169 OFFCURVE",
"243 160 CURVE",
"244 159 OFFCURVE",
"244 159 OFFCURVE",
"245 159 CURVE",
"246 158 OFFCURVE",
"246 158 OFFCURVE",
"247 157 CURVE",
"238 160 OFFCURVE",
"229 165 OFFCURVE",
"220 172 CURVE",
"212 179 OFFCURVE",
"206 186 OFFCURVE",
"199 195 CURVE SMOOTH",
"195 200 OFFCURVE",
"191 201 OFFCURVE",
"187 197 CURVE",
"183 194 OFFCURVE",
"180 191 OFFCURVE",
"184 184 CURVE",
"191 165 OFFCURVE",
"211 144 OFFCURVE",
"231 133 CURVE",
"219 140 OFFCURVE",
"210 147 OFFCURVE",
"199 156 CURVE",
"189 166 OFFCURVE",
"182 177 OFFCURVE",
"177 188 CURVE",
"173 195 OFFCURVE",
"171 202 OFFCURVE",
"170 209 CURVE",
"169 213 OFFCURVE",
"168 217 OFFCURVE",
"168 221 CURVE",
"167 224 OFFCURVE",
"167 228 OFFCURVE",
"166 232 CURVE",
"164 247 OFFCURVE",
"164 262 OFFCURVE",
"166 277 CURVE SMOOTH",
"169 306 OFFCURVE",
"174 335 OFFCURVE",
"182 364 CURVE SMOOTH",
"185 375 OFFCURVE",
"172 381 OFFCURVE",
"167 370 CURVE",
"159 356 OFFCURVE",
"152 341 OFFCURVE",
"147 326 CURVE",
"135 294 OFFCURVE",
"128 258 OFFCURVE",
"132 225 CURVE",
"132 210 OFFCURVE",
"136 193 OFFCURVE",
"143 175 CURVE",
"134 188 OFFCURVE",
"125 203 OFFCURVE",
"118 220 CURVE",
"113 269 OFFCURVE",
"116 321 OFFCURVE",
"131 374 CURVE",
"134 387 OFFCURVE",
"124 394 OFFCURVE",
"117 381 CURVE",
"105 356 OFFCURVE",
"96 331 OFFCURVE",
"91 306 CURVE",
"92 313 OFFCURVE",
"94 321 OFFCURVE",
"95 328 CURVE SMOOTH",
"96 335 OFFCURVE",
"97 342 OFFCURVE",
"98 349 CURVE",
"102 361 OFFCURVE",
"88 370 OFFCURVE",
"83 354 CURVE",
"82 350 LINE SMOOTH",
"70 307 OFFCURVE",
"64 263 OFFCURVE",
"69 220 CURVE",
"66 217 OFFCURVE",
"65 214 OFFCURVE",
"66 209 CURVE",
"68 190 OFFCURVE",
"72 172 OFFCURVE",
"78 154 CURVE SMOOTH",
"91 115 OFFCURVE",
"109 89 OFFCURVE",
"141 61 CURVE",
"156 50 OFFCURVE",
"170 39 OFFCURVE",
"189 31 CURVE",
"210 19 OFFCURVE",
"233 10 OFFCURVE",
"258 4 CURVE",
"283 -3 OFFCURVE",
"308 -5 OFFCURVE",
"335 -6 CURVE",
"343 -7 OFFCURVE",
"352 -8 OFFCURVE",
"360 -8 CURVE",
"386 -10 LINE",
"391 -10 OFFCURVE",
"395 -10 OFFCURVE",
"399 -10 CURVE SMOOTH",
"403 -10 OFFCURVE",
"407 -10 OFFCURVE",
"412 -9 CURVE",
"423 -9 LINE",
"434 -8 LINE",
"438 -8 OFFCURVE",
"442 -8 OFFCURVE",
"445 -8 CURVE SMOOTH",
"451 -8 OFFCURVE",
"458 -7 OFFCURVE",
"464 -6 CURVE",
"467 -6 OFFCURVE",
"470 -6 OFFCURVE",
"473 -6 CURVE",
"491 -4 LINE",
"511 -1 LINE",
"514 0 OFFCURVE",
"517 0 OFFCURVE",
"520 1 CURVE",
"523 1 OFFCURVE",
"526 2 OFFCURVE",
"529 3 CURVE",
"538 4 LINE",
"539 5 OFFCURVE",
"541 5 OFFCURVE",
"542 5 CURVE SMOOTH",
"543 5 OFFCURVE",
"545 5 OFFCURVE",
"548 6 CURVE SMOOTH",
"557 9 OFFCURVE",
"566 11 OFFCURVE",
"575 13 CURVE",
"592 16 OFFCURVE",
"611 22 OFFCURVE",
"628 29 CURVE SMOOTH",
"636 32 OFFCURVE",
"644 36 OFFCURVE",
"653 39 CURVE",
"678 50 LINE",
"690 56 LINE",
"702 62 LINE",
"755 85 OFFCURVE",
"802 118 OFFCURVE",
"835 163 CURVE",
"870 207 OFFCURVE",
"887 265 OFFCURVE",
"884 321 CURVE",
"884 372 OFFCURVE",
"871 423 OFFCURVE",
"844 474 CURVE"
);
}
);
width = 1100;
}
);
note = three;
unicode = 0033;
},
{
glyphname = four;
lastChange = "2017-07-24 05:49:16 +0000";
layers = (
{
layerId = "6CFB2232-83DA-4DC4-BCB5-DDBFA820FE35";
paths = (
{
closed = 1;
nodes = (
"1032 756 OFFCURVE",
"1019 757 OFFCURVE",
"1016 754 CURVE",
"1011 739 OFFCURVE",
"1007 723 OFFCURVE",
"1004 708 CURVE",
"1003 711 OFFCURVE",
"1002 713 OFFCURVE",
"1002 715 CURVE",
"1001 717 OFFCURVE",
"1000 719 OFFCURVE",
"999 721 CURVE",
"998 722 LINE",
"997 725 OFFCURVE",
"997 727 OFFCURVE",
"997 730 CURVE SMOOTH",
"997 732 OFFCURVE",
"997 734 OFFCURVE",
"996 737 CURVE",
"996 742 OFFCURVE",
"983 744 OFFCURVE",
"980 740 CURVE",
"972 704 OFFCURVE",
"965 668 OFFCURVE",
"958 632 CURVE",
"957 641 OFFCURVE",
"956 651 OFFCURVE",
"956 660 CURVE",
"955 669 OFFCURVE",
"954 679 OFFCURVE",
"953 688 CURVE",
"964 728 OFFCURVE",
"969 769 OFFCURVE",
"965 812 CURVE",
"965 817 OFFCURVE",
"965 821 OFFCURVE",
"964 823 CURVE",
"963 827 OFFCURVE",
"952 830 OFFCURVE",
"949 827 CURVE",
"945 820 OFFCURVE",
"941 814 OFFCURVE",
"938 807 CURVE",
"937 816 OFFCURVE",
"936 825 OFFCURVE",
"933 834 CURVE",
"933 838 OFFCURVE",
"919 840 OFFCURVE",
"918 836 CURVE",
"917 831 OFFCURVE",
"916 826 OFFCURVE",
"917 821 CURVE",
"917 816 OFFCURVE",
"917 810 OFFCURVE",
"916 805 CURVE",
"915 802 OFFCURVE",
"915 796 OFFCURVE",
"915 789 CURVE",
"914 788 OFFCURVE",
"913 788 OFFCURVE",
"913 787 CURVE",
"912 782 OFFCURVE",
"911 777 OFFCURVE",
"910 773 CURVE",
"909 768 OFFCURVE",
"907 763 OFFCURVE",
"906 758 CURVE",
"906 760 OFFCURVE",
"906 762 OFFCURVE",
"906 764 CURVE",
"905 765 OFFCURVE",
"905 767 OFFCURVE",
"905 768 CURVE",
"904 773 OFFCURVE",
"892 775 OFFCURVE",
"889 771 CURVE",
"887 772 OFFCURVE",
"885 773 OFFCURVE",
"882 773 CURVE SMOOTH",
"879 773 OFFCURVE",
"877 772 OFFCURVE",
"876 771 CURVE",
"872 759 LINE",
"873 766 OFFCURVE",
"875 773 OFFCURVE",
"876 780 CURVE SMOOTH",
"877 786 OFFCURVE",
"878 792 OFFCURVE",
"879 799 CURVE",
"880 803 OFFCURVE",
"864 807 OFFCURVE",
"864 802 CURVE",
"862 794 OFFCURVE",
"860 786 OFFCURVE",
"859 778 CURVE",
"857 770 OFFCURVE",
"855 762 OFFCURVE",
"853 754 CURVE",
"850 765 OFFCURVE",
"847 773 OFFCURVE",
"843 784 CURVE",
"843 803 OFFCURVE",
"841 823 OFFCURVE",
"837 844 CURVE",
"836 848 OFFCURVE",
"824 850 OFFCURVE",
"821 846 CURVE",
"816 827 OFFCURVE",
"814 809 OFFCURVE",
"811 790 CURVE",
"807 791 OFFCURVE",
"802 791 OFFCURVE",
"801 788 CURVE SMOOTH",
"794 765 OFFCURVE",
"789 741 OFFCURVE",
"786 717 CURVE",
"784 710 LINE",
"781 732 OFFCURVE",
"777 754 OFFCURVE",
"773 777 CURVE",
"768 799 OFFCURVE",
"768 821 OFFCURVE",
"771 842 CURVE",
"777 867 LINE",
"778 872 OFFCURVE",
"764 875 OFFCURVE",
"761 870 CURVE",
"758 862 OFFCURVE",
"756 854 OFFCURVE",
"755 846 CURVE",
"750 822 OFFCURVE",
"744 798 OFFCURVE",
"739 773 CURVE",
"738 774 OFFCURVE",
"737 776 OFFCURVE",
"737 778 CURVE",
"736 781 OFFCURVE",
"733 785 OFFCURVE",
"730 789 CURVE",
"729 791 OFFCURVE",
"727 793 OFFCURVE",
"726 796 CURVE",
"723 799 OFFCURVE",
"716 802 OFFCURVE",
"713 799 CURVE",
"706 796 OFFCURVE",
"702 792 OFFCURVE",
"701 787 CURVE SMOOTH",
"700 782 OFFCURVE",
"699 777 OFFCURVE",
"698 772 CURVE",
"673 737 OFFCURVE",
"662 699 OFFCURVE",
"659 659 CURVE",
"658 659 LINE",
"642 610 OFFCURVE",
"625 561 OFFCURVE",
"606 513 CURVE",
"601 514 OFFCURVE",
"597 515 OFFCURVE",
"592 516 CURVE SMOOTH",
"587 517 OFFCURVE",
"583 518 OFFCURVE",
"578 519 CURVE SMOOTH",
"567 521 LINE",
"562 522 LINE",
"561 523 OFFCURVE",
"560 523 OFFCURVE",
"559 523 CURVE SMOOTH",
"558 523 LINE",
"554 526 OFFCURVE",
"546 529 OFFCURVE",
"538 531 CURVE SMOOTH",
"534 532 OFFCURVE",
"530 533 OFFCURVE",
"526 534 CURVE",
"523 541 OFFCURVE",
"520 546 OFFCURVE",
"519 551 CURVE",
"518 555 OFFCURVE",
"516 558 OFFCURVE",
"515 560 CURVE",
"515 563 OFFCURVE",
"516 566 OFFCURVE",
"517 569 CURVE",
"517 571 LINE",
"518 572 OFFCURVE",
"519 573 OFFCURVE",
"519 573 CURVE",
"520 575 OFFCURVE",
"521 577 OFFCURVE",
"523 579 CURVE",
"529 586 OFFCURVE",
"532 590 OFFCURVE",
"532 593 CURVE",
"538 596 OFFCURVE",
"541 598 OFFCURVE",
"541 599 CURVE",
"548 600 OFFCURVE",
"552 601 OFFCURVE",
"552 602 CURVE",
"553 602 OFFCURVE",
"554 602 OFFCURVE",
"555 601 CURVE",
"556 601 LINE",
"558 603 LINE",
"560 607 LINE",
"563 612 OFFCURVE",
"567 616 OFFCURVE",
"570 621 CURVE",
"573 625 OFFCURVE",
"577 630 OFFCURVE",
"580 635 CURVE",
"593 655 OFFCURVE",
"605 675 OFFCURVE",
"616 696 CURVE SMOOTH",
"627 716 OFFCURVE",
"638 737 OFFCURVE",
"649 759 CURVE SMOOTH",
"659 780 OFFCURVE",
"670 802 OFFCURVE",
"681 824 CURVE",
"684 823 OFFCURVE",
"686 824 OFFCURVE",
"687 827 CURVE",
"690 833 OFFCURVE",
"692 839 OFFCURVE",
"694 845 CURVE",
"695 850 OFFCURVE",
"697 856 OFFCURVE",
"699 862 CURVE",
"734 911 OFFCURVE",
"770 961 OFFCURVE",
"791 1022 CURVE",
"794 1029 OFFCURVE",
"780 1035 OFFCURVE",
"776 1028 CURVE",
"760 1007 OFFCURVE",
"747 985 OFFCURVE",
"734 962 CURVE",
"735 965 OFFCURVE",
"735 969 OFFCURVE",
"736 972 CURVE",
"736 975 OFFCURVE",
"736 979 OFFCURVE",
"737 982 CURVE",
"737 984 LINE",
"738 987 OFFCURVE",
"740 991 OFFCURVE",
"741 995 CURVE SMOOTH",
"742 999 OFFCURVE",
"743 1003 OFFCURVE",
"744 1007 CURVE",
"747 1014 OFFCURVE",
"734 1021 OFFCURVE",
"730 1014 CURVE SMOOTH",
"698 961 OFFCURVE",
"668 909 OFFCURVE",
"637 856 CURVE",
"642 870 OFFCURVE",
"648 884 OFFCURVE",
"653 899 CURVE SMOOTH",
"658 913 OFFCURVE",
"663 927 OFFCURVE",
"668 941 CURVE",
"687 969 OFFCURVE",
"704 999 OFFCURVE",
"720 1030 CURVE SMOOTH",
"735 1061 OFFCURVE",
"749 1093 OFFCURVE",
"760 1128 CURVE SMOOTH",
"761 1131 OFFCURVE",
"762 1135 OFFCURVE",
"763 1138 CURVE SMOOTH",
"764 1141 OFFCURVE",
"765 1145 OFFCURVE",
"766 1148 CURVE",
"769 1155 OFFCURVE",
"756 1160 OFFCURVE",
"752 1155 CURVE SMOOTH",
"748 1150 OFFCURVE",
"744 1145 OFFCURVE",
"740 1140 CURVE SMOOTH",
"736 1135 OFFCURVE",
"732 1129 OFFCURVE",
"728 1124 CURVE",
"731 1131 OFFCURVE",
"733 1139 OFFCURVE",
"735 1146 CURVE",
"736 1153 OFFCURVE",
"738 1160 OFFCURVE",
"740 1168 CURVE",
"743 1176 OFFCURVE",
"729 1180 OFFCURVE",
"726 1173 CURVE",
"721 1165 OFFCURVE",
"718 1157 OFFCURVE",
"715 1149 CURVE",
"712 1140 OFFCURVE",
"708 1132 OFFCURVE",
"705 1125 CURVE SMOOTH",
"703 1120 OFFCURVE",
"701 1116 OFFCURVE",
"699 1112 CURVE SMOOTH",
"697 1108 OFFCURVE",
"695 1104 OFFCURVE",
"693 1100 CURVE",
"690 1097 LINE",
"685 1090 OFFCURVE",
"681 1083 OFFCURVE",
"677 1076 CURVE",
"672 1069 OFFCURVE",
"668 1062 OFFCURVE",
"665 1055 CURVE",
"666 1057 OFFCURVE",
"666 1059 OFFCURVE",
"667 1062 CURVE",
"668 1064 OFFCURVE",
"669 1067 OFFCURVE",
"670 1070 CURVE",
"673 1077 OFFCURVE",
"659 1081 OFFCURVE",
"655 1076 CURVE",
"652 1081 OFFCURVE",
"645 1083 OFFCURVE",
"642 1078 CURVE SMOOTH",
"631 1061 LINE",
"636 1071 OFFCURVE",
"642 1081 OFFCURVE",
"647 1091 CURVE",
"652 1100 OFFCURVE",
"657 1110 OFFCURVE",
"662 1119 CURVE SMOOTH",
"666 1126 OFFCURVE",
"652 1134 OFFCURVE",
"649 1127 CURVE",
"642 1116 OFFCURVE",
"635 1104 OFFCURVE",
"628 1093 CURVE",
"621 1081 OFFCURVE",
"614 1069 OFFCURVE",
"607 1057 CURVE",
"611 1072 OFFCURVE",
"614 1087 OFFCURVE",
"615 1103 CURVE",
"628 1132 OFFCURVE",
"638 1163 OFFCURVE",
"645 1194 CURVE",
"648 1201 OFFCURVE",
"634 1207 OFFCURVE",
"631 1200 CURVE",
"615 1173 OFFCURVE",
"601 1146 OFFCURVE",
"586 1118 CURVE",
"582 1122 OFFCURVE",
"578 1122 OFFCURVE",
"575 1118 CURVE",
"564 1101 OFFCURVE",
"554 1085 OFFCURVE",
"545 1068 CURVE",
"535 1051 OFFCURVE",
"525 1033 OFFCURVE",
"515 1016 CURVE",
"509 1004 LINE",
"514 1021 OFFCURVE",
"519 1038 OFFCURVE",
"524 1055 CURVE SMOOTH",
"529 1072 OFFCURVE",
"534 1088 OFFCURVE",
"539 1105 CURVE SMOOTH",
"550 1140 OFFCURVE",
"561 1170 OFFCURVE",
"576 1201 CURVE SMOOTH",
"579 1207 OFFCURVE",
"583 1213 OFFCURVE",
"586 1219 CURVE SMOOTH",
"589 1225 OFFCURVE",
"592 1231 OFFCURVE",
"595 1236 CURVE SMOOTH",
"598 1241 OFFCURVE",
"584 1247 OFFCURVE",
"581 1242 CURVE",
"574 1233 OFFCURVE",
"568 1221 OFFCURVE",
"563 1210 CURVE",
"543 1175 OFFCURVE",
"523 1142 OFFCURVE",
"502 1107 CURVE",
"502 1110 OFFCURVE",
"502 1112 OFFCURVE",
"503 1114 CURVE",
"503 1116 OFFCURVE",
"503 1118 OFFCURVE",
"503 1121 CURVE SMOOTH",
"503 1142 LINE",
"502 1147 OFFCURVE",
"496 1152 OFFCURVE",
"491 1149 CURVE",
"482 1146 OFFCURVE",
"475 1141 OFFCURVE",
"472 1134 CURVE",
"468 1127 OFFCURVE",
"464 1119 OFFCURVE",
"459 1112 CURVE",
"412 1065 OFFCURVE",
"378 1013 OFFCURVE",
"347 953 CURVE",
"347 952 LINE",
"330 928 OFFCURVE",
"313 904 OFFCURVE",
"297 881 CURVE SMOOTH",
"280 857 OFFCURVE",
"263 833 OFFCURVE",
"246 809 CURVE",
"240 799 LINE",
"237 795 LINE",
"236 792 LINE",
"235 792 LINE",
"233 790 LINE",
"212 757 LINE SMOOTH",
"205 746 OFFCURVE",
"198 734 OFFCURVE",
"191 723 CURVE SMOOTH",
"184 712 OFFCURVE",
"177 700 OFFCURVE",
"170 689 CURVE",
"157 666 OFFCURVE",
"143 644 OFFCURVE",
"130 621 CURVE",
"102 576 OFFCURVE",
"79 526 OFFCURVE",
"63 485 CURVE",
"62 480 OFFCURVE",
"60 474 OFFCURVE",
"59 469 CURVE SMOOTH",
"58 463 OFFCURVE",
"56 457 OFFCURVE",
"55 452 CURVE SMOOTH",
"54 447 OFFCURVE",
"53 442 OFFCURVE",
"52 437 CURVE SMOOTH",
"51 432 OFFCURVE",
"50 427 OFFCURVE",
"49 422 CURVE",
"46 403 OFFCURVE",
"45 384 OFFCURVE",
"48 368 CURVE",
"49 351 OFFCURVE",
"53 335 OFFCURVE",
"58 319 CURVE SMOOTH",
"59 316 OFFCURVE",
"61 312 OFFCURVE",
"62 308 CURVE SMOOTH",
"63 304 OFFCURVE",
"66 300 OFFCURVE",
"69 295 CURVE",
"70 292 OFFCURVE",
"72 290 OFFCURVE",
"73 288 CURVE",
"74 285 OFFCURVE",
"75 283 OFFCURVE",
"76 282 CURVE SMOOTH",
"80 278 LINE",
"83 274 LINE",
"110 246 LINE",
"112 244 LINE",
"113 244 LINE",
"114 243 LINE",
"121 240 LINE",
"134 234 LINE",
"160 222 LINE SMOOTH",
"177 214 OFFCURVE",
"194 206 OFFCURVE",
"213 199 CURVE",
"215 198 OFFCURVE",
"218 198 OFFCURVE",
"221 199 CURVE",
"222 199 LINE",
"223 200 LINE",
"226 201 OFFCURVE",
"227 202 OFFCURVE",
"227 203 CURVE",
"227 203 OFFCURVE",
"228 203 OFFCURVE",
"229 204 CURVE",
"229 205 OFFCURVE",
"229 205 OFFCURVE",
"230 206 CURVE",
"230 206 OFFCURVE",
"230 206 OFFCURVE",
"230 207 CURVE SMOOTH",
"230 208 LINE",
"230 209 LINE",
"231 212 OFFCURVE",
"230 214 OFFCURVE",
"227 214 CURVE",
"212 221 OFFCURVE",
"197 227 OFFCURVE",
"182 233 CURVE SMOOTH",
"167 239 OFFCURVE",
"152 245 OFFCURVE",
"137 252 CURVE SMOOTH",
"131 255 LINE",
"128 255 LINE",
"128 256 LINE",
"127 257 LINE",
"121 262 LINE",
"109 274 LINE",
"96 285 LINE",
"93 287 LINE",
"92 288 OFFCURVE",
"92 289 OFFCURVE",
"92 289 CURVE SMOOTH",
"91 289 OFFCURVE",
"91 290 OFFCURVE",
"90 291 CURVE SMOOTH",
"89 292 OFFCURVE",
"87 296 OFFCURVE",
"83 301 CURVE",
"80 307 OFFCURVE",
"77 314 OFFCURVE",
"74 323 CURVE SMOOTH",
"73 326 OFFCURVE",
"72 330 OFFCURVE",
"71 333 CURVE SMOOTH",
"70 336 OFFCURVE",
"70 340 OFFCURVE",
"69 343 CURVE",
"66 354 OFFCURVE",
"65 368 OFFCURVE",
"65 385 CURVE",
"62 445 OFFCURVE",
"87 500 OFFCURVE",
"105 539 CURVE SMOOTH",
"123 578 OFFCURVE",
"144 617 OFFCURVE",
"167 654 CURVE SMOOTH",
"178 673 OFFCURVE",
"190 691 OFFCURVE",
"201 710 CURVE",
"207 719 OFFCURVE",
"213 728 OFFCURVE",
"219 738 CURVE",
"225 747 OFFCURVE",
"231 756 OFFCURVE",
"237 765 CURVE SMOOTH",
"248 782 OFFCURVE",
"258 797 OFFCURVE",
"263 804 CURVE SMOOTH",
"307 866 LINE",
"306 863 OFFCURVE",
"304 860 OFFCURVE",
"303 857 CURVE",
"301 854 OFFCURVE",
"299 850 OFFCURVE",
"298 847 CURVE",
"292 837 OFFCURVE",
"286 827 OFFCURVE",
"280 817 CURVE SMOOTH",
"274 807 OFFCURVE",
"268 797 OFFCURVE",
"261 786 CURVE",
"256 779 LINE",
"248 766 LINE",
"232 740 LINE",
"201 689 LINE SMOOTH",
"191 672 OFFCURVE",
"181 654 OFFCURVE",
"171 637 CURVE SMOOTH",
"150 601 OFFCURVE",
"131 567 OFFCURVE",
"115 532 CURVE SMOOTH",
"99 496 OFFCURVE",
"79 446 OFFCURVE",
"79 389 CURVE",
"78 374 OFFCURVE",
"78 362 OFFCURVE",
"81 349 CURVE",
"81 346 OFFCURVE",
"81 343 OFFCURVE",
"82 340 CURVE SMOOTH",
"83 337 OFFCURVE",
"83 333 OFFCURVE",
"84 330 CURVE",
"86 323 OFFCURVE",
"88 316 OFFCURVE",
"91 309 CURVE",
"92 308 OFFCURVE",
"93 306 OFFCURVE",
"94 304 CURVE SMOOTH",
"95 302 OFFCURVE",
"96 300 OFFCURVE",
"97 299 CURVE SMOOTH",
"98 298 OFFCURVE",
"98 298 OFFCURVE",
"99 297 CURVE",
"99 296 OFFCURVE",
"99 296 OFFCURVE",
"100 295 CURVE SMOOTH",
"102 293 LINE",
"114 282 LINE",
"125 272 LINE",
"130 266 LINE",
"133 263 LINE",
"134 262 LINE",
"135 262 OFFCURVE",
"135 262 OFFCURVE",
"135 262 CURVE",
"135 261 OFFCURVE",
"135 261 OFFCURVE",
"136 261 CURVE SMOOTH",
"137 261 LINE",
"163 248 OFFCURVE",
"190 235 OFFCURVE",
"218 222 CURVE",
"223 219 OFFCURVE",
"230 223 OFFCURVE",
"233 230 CURVE",
"241 227 LINE",
"243 225 LINE",
"244 225 LINE",
"246 225 LINE",
"252 225 LINE",
"250 224 LINE",
"248 224 OFFCURVE",
"246 224 OFFCURVE",
"245 223 CURVE",
"241 222 OFFCURVE",
"238 220 OFFCURVE",
"235 216 CURVE",
"232 211 OFFCURVE",
"233 209 OFFCURVE",
"240 209 CURVE",
"308 202 OFFCURVE",
"378 201 OFFCURVE",
"451 200 CURVE SMOOTH",
"505 199 LINE",
"515 199 LINE",
"507 172 OFFCURVE",
"501 145 OFFCURVE",
"496 117 CURVE",
"472 66 OFFCURVE",
"451 17 OFFCURVE",
"440 -39 CURVE",
"440 -43 OFFCURVE",
"453 -47 OFFCURVE",
"456 -44 CURVE",
"459 -39 OFFCURVE",
"461 -35 OFFCURVE",
"462 -33 CURVE",
"461 -36 OFFCURVE",
"461 -38 OFFCURVE",
"460 -40 CURVE SMOOTH",
"459 -42 OFFCURVE",
"459 -44 OFFCURVE",
"459 -47 CURVE",
"458 -50 OFFCURVE",
"461 -51 OFFCURVE",
"465 -52 CURVE SMOOTH",
"469 -53 OFFCURVE",
"474 -53 OFFCURVE",
"474 -50 CURVE",
"479 -29 OFFCURVE",
"487 -8 OFFCURVE",
"498 12 CURVE",
"508 32 OFFCURVE",
"518 52 OFFCURVE",
"528 72 CURVE",
"528 66 LINE",
"507 27 OFFCURVE",
"484 -11 OFFCURVE",
"477 -54 CURVE",
"476 -59 OFFCURVE",
"492 -62 OFFCURVE",
"492 -57 CURVE",
"497 -29 OFFCURVE",
"509 -4 OFFCURVE",
"522 23 CURVE",
"521 18 OFFCURVE",
"520 13 OFFCURVE",
"519 8 CURVE SMOOTH",
"517 -2 OFFCURVE",
"514 -13 OFFCURVE",
"511 -23 CURVE",
"510 -28 OFFCURVE",
"508 -34 OFFCURVE",
"507 -39 CURVE",
"506 -42 OFFCURVE",
"509 -44 OFFCURVE",
"513 -44 CURVE",
"517 -45 OFFCURVE",
"522 -45 OFFCURVE",
"522 -42 CURVE",
"526 -32 OFFCURVE",
"529 -22 OFFCURVE",
"531 -11 CURVE",
"534 -3 OFFCURVE",
"538 5 OFFCURVE",
"541 14 CURVE",
"544 22 OFFCURVE",
"548 30 OFFCURVE",
"552 38 CURVE",
"550 24 OFFCURVE",
"550 11 OFFCURVE",
"553 -2 CURVE",
"550 -15 OFFCURVE",
"548 -29 OFFCURVE",
"545 -42 CURVE",
"545 -46 OFFCURVE",
"557 -50 OFFCURVE",
"560 -47 CURVE",
"561 -44 OFFCURVE",
"563 -43 OFFCURVE",
"565 -42 CURVE",
"564 -44 OFFCURVE",
"564 -46 OFFCURVE",
"564 -48 CURVE",
"563 -51 OFFCURVE",
"563 -53 OFFCURVE",
"562 -55 CURVE",
"561 -60 OFFCURVE",
"573 -63 OFFCURVE",
"577 -60 CURVE",
"590 -48 OFFCURVE",
"600 -36 OFFCURVE",
"609 -21 CURVE",
"608 -24 OFFCURVE",
"608 -27 OFFCURVE",
"607 -30 CURVE SMOOTH",
"606 -33 OFFCURVE",
"606 -37 OFFCURVE",
"605 -40 CURVE",
"604 -45 OFFCURVE",
"620 -49 OFFCURVE",
"621 -44 CURVE SMOOTH",
"627 -18 OFFCURVE",
"634 7 OFFCURVE",
"643 30 CURVE",
"644 32 LINE",
"644 23 OFFCURVE",
"643 14 OFFCURVE",
"642 5 CURVE",
"642 2 OFFCURVE",
"644 0 OFFCURVE",
"649 -1 CURVE",
"658 -4 OFFCURVE",
"660 5 OFFCURVE",
"664 14 CURVE",
"665 18 OFFCURVE",
"667 22 OFFCURVE",
"669 27 CURVE",
"668 22 OFFCURVE",
"666 17 OFFCURVE",
"665 12 CURVE",
"663 7 OFFCURVE",
"661 3 OFFCURVE",
"660 -2 CURVE",
"649 -25 OFFCURVE",
"642 -47 OFFCURVE",
"638 -70 CURVE",
"637 -74 OFFCURVE",
"649 -78 OFFCURVE",
"653 -75 CURVE",
"672 -55 OFFCURVE",
"683 -35 OFFCURVE",
"694 -14 CURVE",
"695 -17 OFFCURVE",
"696 -20 OFFCURVE",
"697 -23 CURVE SMOOTH",
"698 -26 OFFCURVE",
"699 -30 OFFCURVE",
"700 -33 CURVE",
"693 -49 OFFCURVE",
"690 -65 OFFCURVE",
"687 -81 CURVE",
"687 -86 OFFCURVE",
"699 -90 OFFCURVE",
"702 -86 CURVE",
"707 -81 OFFCURVE",
"712 -74 OFFCURVE",
"717 -66 CURVE",
"717 -68 OFFCURVE",
"717 -70 OFFCURVE",
"716 -72 CURVE",
"715 -75 OFFCURVE",
"715 -77 OFFCURVE",
"715 -79 CURVE",
"714 -80 OFFCURVE",
"715 -81 OFFCURVE",
"716 -82 CURVE",
"719 -83 OFFCURVE",
"723 -85 OFFCURVE",
"727 -85 CURVE SMOOTH",
"728 -85 OFFCURVE",
"729 -84 OFFCURVE",
"730 -83 CURVE",
"730 -82 LINE",
"733 -77 OFFCURVE",
"736 -71 OFFCURVE",
"739 -65 CURVE",
"741 -60 OFFCURVE",
"743 -54 OFFCURVE",
"746 -49 CURVE",
"749 -49 OFFCURVE",
"751 -48 OFFCURVE",
"752 -47 CURVE",
"763 -30 OFFCURVE",
"772 -11 OFFCURVE",
"779 9 CURVE",
"786 20 OFFCURVE",
"791 33 OFFCURVE",
"796 46 CURVE",
"819 74 OFFCURVE",
"833 106 OFFCURVE",
"842 138 CURVE",
"855 153 OFFCURVE",
"865 167 OFFCURVE",
"872 181 CURVE",
"885 181 LINE SMOOTH",
"892 181 OFFCURVE",
"894 193 OFFCURVE",
"887 196 CURVE",
"886 197 OFFCURVE",
"885 197 OFFCURVE",
"884 197 CURVE SMOOTH",
"883 197 OFFCURVE",
"882 197 OFFCURVE",
"881 198 CURVE",
"881 199 OFFCURVE",
"881 199 OFFCURVE",
"882 199 CURVE",
"882 199 OFFCURVE",
"882 199 OFFCURVE",
"882 200 CURVE",
"890 200 LINE SMOOTH",
"894 200 OFFCURVE",
"896 203 OFFCURVE",
"896 208 CURVE SMOOTH",
"896 213 OFFCURVE",
"894 216 OFFCURVE",
"890 216 CURVE",
"891 217 OFFCURVE",
"892 218 OFFCURVE",
"892 219 CURVE",
"896 219 LINE SMOOTH",
"903 219 OFFCURVE",
"903 229 OFFCURVE",
"900 233 CURVE",
"918 271 OFFCURVE",
"931 310 OFFCURVE",
"939 351 CURVE",
"946 364 OFFCURVE",
"950 375 OFFCURVE",
"952 384 CURVE",
"963 403 OFFCURVE",
"970 423 OFFCURVE",
"975 446 CURVE",
"1003 498 OFFCURVE",
"1006 556 OFFCURVE",
"1010 616 CURVE",
"1013 616 OFFCURVE",
"1014 617 OFFCURVE",
"1014 620 CURVE SMOOTH",
"1014 623 OFFCURVE",
"1014 627 OFFCURVE",
"1013 631 CURVE SMOOTH",
"1012 635 OFFCURVE",
"1012 639 OFFCURVE",
"1012 642 CURVE",
"1024 677 OFFCURVE",
"1036 712 OFFCURVE",
"1032 751 CURVE"
);
}
);
width = 1063;
}
);
note = four;
unicode = 0034;
},
{
glyphname = five;
lastChange = "2017-07-24 05:49:16 +0000";
layers = (
{
layerId = "6CFB2232-83DA-4DC4-BCB5-DDBFA820FE35";
paths = (
{
closed = 1;
nodes = (
"853 615 OFFCURVE",
"846 630 OFFCURVE",
"838 645 CURVE",
"821 674 OFFCURVE",
"799 702 OFFCURVE",
"773 726 CURVE SMOOTH",
"747 749 OFFCURVE",
"719 767 OFFCURVE",
"688 782 CURVE SMOOTH",
"673 789 OFFCURVE",
"658 795 OFFCURVE",
"643 800 CURVE SMOOTH",
"628 805 OFFCURVE",
"613 809 OFFCURVE",
"598 812 CURVE",
"595 813 OFFCURVE",
"591 814 OFFCURVE",
"588 814 CURVE SMOOTH",
"584 814 OFFCURVE",
"580 815 OFFCURVE",
"576 816 CURVE",
"561 818 LINE",
"557 818 LINE",
"557 819 LINE",
"556 819 LINE",
"555 819 LINE",
"553 819 LINE",
"550 820 OFFCURVE",
"547 819 OFFCURVE",
"543 818 CURVE",
"543 821 LINE",
"542 822 OFFCURVE",
"541 822 OFFCURVE",
"540 823 CURVE",
"541 825 OFFCURVE",
"543 827 OFFCURVE",
"544 830 CURVE",
"545 831 OFFCURVE",
"546 831 OFFCURVE",
"547 832 CURVE",
"547 833 OFFCURVE",
"547 833 OFFCURVE",
"548 834 CURVE SMOOTH",
"549 835 OFFCURVE",
"550 837 OFFCURVE",
"550 838 CURVE",
"553 839 OFFCURVE",
"556 840 OFFCURVE",
"557 840 CURVE SMOOTH",
"558 840 OFFCURVE",
"558 840 OFFCURVE",
"559 840 CURVE SMOOTH",
"560 840 LINE",
"560 841 LINE",
"561 842 LINE",
"567 855 LINE SMOOTH",
"571 864 OFFCURVE",
"575 873 OFFCURVE",
"579 882 CURVE SMOOTH",
"583 891 OFFCURVE",
"587 900 OFFCURVE",
"592 909 CURVE",
"598 924 LINE",
"601 931 LINE",
"602 932 LINE",
"602 933 LINE",
"602 934 LINE",
"601 935 OFFCURVE",
"600 936 OFFCURVE",
"600 937 CURVE",
"599 940 OFFCURVE",
"599 942 OFFCURVE",
"602 945 CURVE",
"602 943 LINE",
"602 942 LINE",
"605 943 OFFCURVE",
"609 943 OFFCURVE",
"613 944 CURVE",
"616 945 OFFCURVE",
"620 946 OFFCURVE",
"624 947 CURVE SMOOTH",
"631 949 OFFCURVE",
"638 951 OFFCURVE",
"646 952 CURVE",
"667 952 OFFCURVE",
"689 951 OFFCURVE",
"712 950 CURVE",
"734 948 OFFCURVE",
"757 946 OFFCURVE",
"781 945 CURVE SMOOTH",
"828 942 OFFCURVE",
"876 941 OFFCURVE",
"927 944 CURVE SMOOTH",
"940 945 OFFCURVE",
"936 959 OFFCURVE",
"925 960 CURVE SMOOTH",
"882 965 OFFCURVE",
"841 968 OFFCURVE",
"800 971 CURVE",
"805 972 OFFCURVE",
"810 973 OFFCURVE",
"815 974 CURVE SMOOTH",
"820 975 OFFCURVE",
"825 976 OFFCURVE",
"830 977 CURVE",
"832 977 LINE",
"845 979 OFFCURVE",
"858 980 OFFCURVE",
"871 980 CURVE",
"883 981 OFFCURVE",
"881 994 OFFCURVE",
"869 997 CURVE",
"844 998 OFFCURVE",
"820 1000 OFFCURVE",
"796 1001 CURVE SMOOTH",
"748 1004 OFFCURVE",
"701 1006 OFFCURVE",
"657 1003 CURVE",
"652 1003 OFFCURVE",
"646 1003 OFFCURVE",
"641 1003 CURVE SMOOTH",
"635 1003 OFFCURVE",
"629 1003 OFFCURVE",
"624 1002 CURVE",
"621 1001 OFFCURVE",
"616 1001 OFFCURVE",
"609 1001 CURVE",
"602 1000 LINE",
"598 999 LINE",
"597 999 LINE",
"596 999 LINE",
"597 999 OFFCURVE",
"597 999 OFFCURVE",
"597 1000 CURVE",
"598 1000 LINE SMOOTH",
"599 1000 OFFCURVE",
"599 1000 OFFCURVE",
"600 1001 CURVE",
"600 1001 OFFCURVE",
"600 1001 OFFCURVE",
"601 1001 CURVE",
"609 1002 LINE",
"613 1003 OFFCURVE",
"617 1005 OFFCURVE",
"624 1005 CURVE",
"629 1006 OFFCURVE",
"635 1007 OFFCURVE",
"640 1008 CURVE SMOOTH",
"645 1009 OFFCURVE",
"650 1010 OFFCURVE",
"655 1011 CURVE",
"666 1012 OFFCURVE",
"678 1014 OFFCURVE",
"689 1015 CURVE SMOOTH",
"700 1016 OFFCURVE",
"711 1018 OFFCURVE",
"723 1019 CURVE",
"775 1016 OFFCURVE",
"829 1014 OFFCURVE",
"885 1013 CURVE",
"898 1012 OFFCURVE",
"912 1012 OFFCURVE",
"926 1012 CURVE SMOOTH",
"954 1012 OFFCURVE",
"984 1013 OFFCURVE",
"1013 1014 CURVE SMOOTH",
"1027 1014 OFFCURVE",
"1042 1015 OFFCURVE",
"1057 1016 CURVE",
"1062 1017 OFFCURVE",
"1068 1017 OFFCURVE",
"1073 1018 CURVE",
"1084 1018 OFFCURVE",
"1098 1019 OFFCURVE",
"1098 1027 CURVE SMOOTH",
"1098 1031 OFFCURVE",
"1095 1034 OFFCURVE",
"1089 1035 CURVE",
"1066 1038 OFFCURVE",
"1046 1040 OFFCURVE",
"1026 1043 CURVE",
"1050 1046 OFFCURVE",
"1072 1048 OFFCURVE",
"1099 1052 CURVE",
"1112 1055 OFFCURVE",
"1108 1068 OFFCURVE",
"1095 1068 CURVE SMOOTH",
"1080 1068 OFFCURVE",
"1066 1068 OFFCURVE",
"1052 1067 CURVE SMOOTH",
"1037 1066 OFFCURVE",
"1023 1065 OFFCURVE",
"1010 1065 CURVE SMOOTH",
"1002 1065 OFFCURVE",
"994 1065 OFFCURVE",
"987 1065 CURVE SMOOTH",
"979 1065 OFFCURVE",
"971 1065 OFFCURVE",
"964 1066 CURVE",
"963 1066 OFFCURVE",
"962 1066 OFFCURVE",
"961 1067 CURVE",
"960 1067 OFFCURVE",
"959 1067 OFFCURVE",
"958 1067 CURVE",
"931 1070 OFFCURVE",
"904 1072 OFFCURVE",
"877 1073 CURVE",
"903 1074 LINE",
"915 1077 OFFCURVE",
"912 1088 OFFCURVE",
"901 1091 CURVE",
"905 1095 OFFCURVE",
"903 1103 OFFCURVE",
"894 1104 CURVE SMOOTH",
"861 1107 LINE",
"879 1106 OFFCURVE",
"897 1106 OFFCURVE",
"915 1105 CURVE SMOOTH",
"933 1104 OFFCURVE",
"951 1103 OFFCURVE",
"969 1102 CURVE SMOOTH",
"982 1101 OFFCURVE",
"983 1117 OFFCURVE",
"970 1118 CURVE SMOOTH",
"947 1119 OFFCURVE",
"925 1121 OFFCURVE",
"903 1123 CURVE",
"881 1124 OFFCURVE",
"859 1126 OFFCURVE",
"837 1127 CURVE",
"860 1130 OFFCURVE",
"885 1133 OFFCURVE",
"908 1138 CURVE",
"961 1139 OFFCURVE",
"1014 1141 OFFCURVE",
"1065 1148 CURVE",
"1077 1151 OFFCURVE",
"1074 1164 OFFCURVE",
"1063 1164 CURVE",
"1038 1165 OFFCURVE",
"1012 1167 OFFCURVE",
"987 1168 CURVE SMOOTH",
"961 1169 OFFCURVE",
"935 1170 OFFCURVE",
"908 1171 CURVE",
"911 1176 OFFCURVE",
"908 1180 OFFCURVE",
"899 1181 CURVE SMOOTH",
"834 1188 OFFCURVE",
"768 1190 OFFCURVE",
"700 1189 CURVE SMOOTH",
"677 1189 LINE",
"736 1197 OFFCURVE",
"793 1204 OFFCURVE",
"852 1208 CURVE SMOOTH",
"910 1213 OFFCURVE",
"967 1215 OFFCURVE",
"1023 1214 CURVE SMOOTH",
"1046 1213 OFFCURVE",
"1067 1212 OFFCURVE",
"1088 1212 CURVE SMOOTH",
"1100 1212 OFFCURVE",
"1099 1227 OFFCURVE",
"1088 1228 CURVE SMOOTH",
"1077 1229 OFFCURVE",
"1067 1229 OFFCURVE",
"1057 1229 CURVE SMOOTH",
"1046 1229 OFFCURVE",
"1035 1229 OFFCURVE",
"1024 1230 CURVE SMOOTH",
"1007 1231 OFFCURVE",
"991 1232 OFFCURVE",
"975 1233 CURVE SMOOTH",
"959 1234 OFFCURVE",
"942 1235 OFFCURVE",
"925 1236 CURVE SMOOTH",
"908 1237 OFFCURVE",
"892 1239 OFFCURVE",
"875 1240 CURVE SMOOTH",
"858 1241 OFFCURVE",
"841 1242 OFFCURVE",
"824 1243 CURVE",
"827 1244 OFFCURVE",
"831 1244 OFFCURVE",
"835 1245 CURVE",
"842 1246 OFFCURVE",
"851 1249 OFFCURVE",
"861 1253 CURVE",
"866 1254 OFFCURVE",
"871 1256 OFFCURVE",
"876 1257 CURVE",
"880 1258 OFFCURVE",
"882 1261 OFFCURVE",
"882 1264 CURVE SMOOTH",
"882 1267 OFFCURVE",
"880 1270 OFFCURVE",
"877 1271 CURVE",
"864 1278 OFFCURVE",
"851 1282 OFFCURVE",
"838 1283 CURVE",
"824 1283 OFFCURVE",
"810 1283 OFFCURVE",
"795 1284 CURVE",
"768 1289 OFFCURVE",
"739 1294 OFFCURVE",
"710 1297 CURVE SMOOTH",
"681 1300 OFFCURVE",
"652 1302 OFFCURVE",
"620 1301 CURVE SMOOTH",
"604 1301 OFFCURVE",
"589 1300 OFFCURVE",
"572 1299 CURVE",
"566 1298 LINE",
"556 1297 LINE",
"553 1296 OFFCURVE",
"550 1296 OFFCURVE",
"547 1296 CURVE SMOOTH",
"544 1296 OFFCURVE",
"541 1296 OFFCURVE",
"538 1295 CURVE",
"533 1294 OFFCURVE",
"527 1293 OFFCURVE",
"521 1292 CURVE SMOOTH",
"515 1291 OFFCURVE",
"509 1290 OFFCURVE",
"504 1289 CURVE SMOOTH",
"457 1278 OFFCURVE",
"414 1263 OFFCURVE",
"378 1236 CURVE",
"377 1236 OFFCURVE",
"375 1235 OFFCURVE",
"373 1233 CURVE",
"356 1221 OFFCURVE",
"341 1208 OFFCURVE",
"328 1193 CURVE",
"325 1190 OFFCURVE",
"322 1186 OFFCURVE",
"319 1182 CURVE",
"316 1177 OFFCURVE",
"314 1173 OFFCURVE",
"311 1169 CURVE SMOOTH",
"308 1165 OFFCURVE",
"305 1161 OFFCURVE",
"303 1157 CURVE",
"300 1152 OFFCURVE",
"298 1148 OFFCURVE",
"295 1143 CURVE",
"294 1141 OFFCURVE",
"293 1139 OFFCURVE",
"292 1137 CURVE",
"291 1134 OFFCURVE",
"289 1132 OFFCURVE",
"288 1129 CURVE",
"282 1115 LINE",
"281 1112 OFFCURVE",
"280 1110 OFFCURVE",
"279 1108 CURVE",
"278 1105 OFFCURVE",
"276 1103 OFFCURVE",
"275 1100 CURVE",
"272 1093 LINE",
"271 1092 OFFCURVE",
"271 1091 OFFCURVE",
"271 1090 CURVE",
"270 1089 OFFCURVE",
"270 1088 OFFCURVE",
"269 1087 CURVE",
"254 1057 LINE",
"236 1025 LINE",
"228 1009 LINE",
"224 1001 LINE",
"221 995 LINE",
"217 988 LINE",
"198 949 OFFCURVE",
"180 911 OFFCURVE",
"163 872 CURVE SMOOTH",
"155 853 OFFCURVE",
"148 833 OFFCURVE",
"141 814 CURVE SMOOTH",
"137 803 OFFCURVE",
"134 795 OFFCURVE",
"131 784 CURVE",
"128 775 OFFCURVE",
"126 765 OFFCURVE",
"123 756 CURVE",
"114 717 OFFCURVE",
"109 680 OFFCURVE",
"110 647 CURVE SMOOTH",
"110 638 OFFCURVE",
"111 630 OFFCURVE",
"112 622 CURVE",
"112 617 OFFCURVE",
"112 613 OFFCURVE",
"113 610 CURVE",
"114 608 OFFCURVE",
"114 606 OFFCURVE",
"114 604 CURVE SMOOTH",
"114 602 OFFCURVE",
"114 600 OFFCURVE",
"115 598 CURVE",
"116 594 OFFCURVE",
"117 590 OFFCURVE",
"118 586 CURVE",
"119 578 OFFCURVE",
"122 568 OFFCURVE",
"125 563 CURVE",
"127 558 LINE",
"129 551 LINE",
"135 536 OFFCURVE",
"144 522 OFFCURVE",
"155 507 CURVE",
"156 505 OFFCURVE",
"159 501 OFFCURVE",
"163 496 CURVE",
"172 487 LINE",
"181 478 LINE SMOOTH",
"182 477 OFFCURVE",
"184 476 OFFCURVE",
"186 475 CURVE",
"187 474 OFFCURVE",
"189 472 OFFCURVE",
"190 471 CURVE",
"202 460 OFFCURVE",
"214 455 OFFCURVE",
"226 448 CURVE",
"237 443 OFFCURVE",
"249 438 OFFCURVE",
"262 434 CURVE SMOOTH",
"265 433 OFFCURVE",
"269 432 OFFCURVE",
"272 431 CURVE SMOOTH",
"275 430 OFFCURVE",
"279 429 OFFCURVE",
"282 428 CURVE",
"288 427 LINE",
"290 426 LINE",
"292 426 LINE",
"293 425 LINE",
"306 423 LINE",
"319 421 LINE",
"326 420 LINE",
"333 420 LINE",
"364 419 LINE SMOOTH",
"365 419 OFFCURVE",
"365 419 OFFCURVE",
"366 420 CURVE",
"367 420 OFFCURVE",
"367 420 OFFCURVE",
"368 420 CURVE SMOOTH",
"373 420 LINE",
"382 421 LINE",
"399 422 LINE",
"408 424 LINE",
"410 424 OFFCURVE",
"413 425 OFFCURVE",
"417 426 CURVE",
"436 430 LINE",
"454 434 LINE",
"473 438 LINE",
"491 442 LINE",
"493 443 LINE",
"495 443 LINE",
"499 444 LINE",
"506 444 LINE",
"520 444 LINE",
"523 444 LINE",
"523 442 LINE SMOOTH",
"523 439 OFFCURVE",
"523 436 OFFCURVE",
"523 432 CURVE SMOOTH",
"523 428 OFFCURVE",
"522 423 OFFCURVE",
"521 418 CURVE",
"520 411 OFFCURVE",
"534 408 OFFCURVE",
"537 415 CURVE",
"539 424 OFFCURVE",
"540 432 OFFCURVE",
"540 440 CURVE SMOOTH",
"540 445 OFFCURVE",
"540 448 OFFCURVE",
"539 449 CURVE",
"540 450 OFFCURVE",
"540 451 OFFCURVE",
"540 452 CURVE",
"541 452 OFFCURVE",
"541 452 OFFCURVE",
"542 453 CURVE",
"542 454 LINE",
"542 455 LINE",
"541 455 OFFCURVE",
"541 455 OFFCURVE",
"540 456 CURVE SMOOTH",
"539 457 OFFCURVE",
"538 457 OFFCURVE",
"536 457 CURVE",
"535 458 OFFCURVE",
"535 458 OFFCURVE",
"535 458 CURVE SMOOTH",
"534 458 OFFCURVE",
"534 458 OFFCURVE",
"533 459 CURVE",
"531 459 LINE",
"530 460 OFFCURVE",
"529 460 OFFCURVE",
"529 460 CURVE SMOOTH",
"527 460 LINE",
"527 461 LINE",
"525 461 LINE",
"524 461 LINE",
"512 460 LINE",
"499 459 LINE",
"497 459 LINE",
"492 459 LINE",
"485 457 LINE",
"455 450 LINE",
"424 444 LINE",
"417 442 LINE",
"413 442 LINE",
"409 441 LINE",
"395 440 LINE",
"381 438 LINE",
"380 438 OFFCURVE",
"378 438 OFFCURVE",
"377 438 CURVE",
"376 437 OFFCURVE",
"374 437 OFFCURVE",
"373 437 CURVE SMOOTH",
"367 437 LINE",
"341 438 LINE",
"338 438 LINE",
"336 438 LINE",
"335 438 LINE",
"329 439 LINE",
"318 440 LINE",
"307 442 LINE",
"302 442 LINE",
"298 444 LINE",
"279 448 LINE SMOOTH",
"274 449 OFFCURVE",
"268 450 OFFCURVE",
"263 452 CURVE",
"262 453 OFFCURVE",
"261 453 OFFCURVE",
"260 454 CURVE",
"259 454 OFFCURVE",
"257 454 OFFCURVE",
"256 455 CURVE SMOOTH",
"255 456 OFFCURVE",
"253 456 OFFCURVE",
"252 457 CURVE",
"251 457 OFFCURVE",
"249 457 OFFCURVE",
"248 458 CURVE",
"243 460 OFFCURVE",
"238 462 OFFCURVE",
"233 465 CURVE",
"228 467 OFFCURVE",
"223 469 OFFCURVE",
"218 472 CURVE SMOOTH",
"207 479 OFFCURVE",
"198 484 OFFCURVE",
"187 495 CURVE",
"175 506 OFFCURVE",
"166 517 OFFCURVE",
"159 530 CURVE",
"155 534 LINE",
"153 539 LINE",
"152 540 OFFCURVE",
"151 542 OFFCURVE",
"151 544 CURVE",
"150 545 OFFCURVE",
"149 547 OFFCURVE",
"148 549 CURVE",
"147 550 OFFCURVE",
"146 552 OFFCURVE",
"146 554 CURVE",
"145 555 OFFCURVE",
"145 557 OFFCURVE",
"144 558 CURVE",
"143 562 OFFCURVE",
"141 565 OFFCURVE",
"140 568 CURVE",
"137 575 OFFCURVE",
"136 582 OFFCURVE",
"135 587 CURVE",
"132 597 LINE",
"130 607 LINE",
"128 620 OFFCURVE",
"127 633 OFFCURVE",
"127 648 CURVE",
"126 655 OFFCURVE",
"126 663 OFFCURVE",
"127 670 CURVE",
"127 684 OFFCURVE",
"129 698 OFFCURVE",
"132 714 CURVE",
"133 722 OFFCURVE",
"135 730 OFFCURVE",
"136 738 CURVE SMOOTH",
"137 745 OFFCURVE",
"139 754 OFFCURVE",
"142 761 CURVE",
"148 785 LINE",
"153 801 OFFCURVE",
"159 817 OFFCURVE",
"165 834 CURVE SMOOTH",
"177 866 OFFCURVE",
"192 899 OFFCURVE",
"208 931 CURVE",
"215 947 OFFCURVE",
"223 963 OFFCURVE",
"230 978 CURVE SMOOTH",
"236 990 LINE",
"241 998 LINE",
"247 1012 LINE",
"262 1040 LINE",
"251 1008 LINE",
"235 975 LINE",
"232 968 OFFCURVE",
"228 960 OFFCURVE",
"225 953 CURVE",
"222 945 OFFCURVE",
"218 937 OFFCURVE",
"215 930 CURVE",
"201 901 OFFCURVE",
"188 871 OFFCURVE",
"177 840 CURVE SMOOTH",
"165 809 OFFCURVE",
"156 780 OFFCURVE",
"149 751 CURVE",
"148 748 OFFCURVE",
"148 744 OFFCURVE",
"147 741 CURVE",
"146 733 OFFCURVE",
"144 726 OFFCURVE",
"143 719 CURVE",
"142 715 OFFCURVE",
"142 711 OFFCURVE",
"142 708 CURVE",
"141 701 OFFCURVE",
"140 694 OFFCURVE",
"140 687 CURVE",
"139 680 OFFCURVE",
"139 674 OFFCURVE",
"138 668 CURVE",
"137 640 OFFCURVE",
"139 616 OFFCURVE",
"146 591 CURVE",
"148 585 OFFCURVE",
"150 579 OFFCURVE",
"152 573 CURVE",
"153 567 OFFCURVE",
"156 561 OFFCURVE",
"159 555 CURVE",
"164 544 OFFCURVE",
"171 533 OFFCURVE",
"180 521 CURVE",
"185 516 OFFCURVE",
"190 511 OFFCURVE",
"195 506 CURVE SMOOTH",
"200 501 OFFCURVE",
"205 496 OFFCURVE",
"210 493 CURVE",
"219 486 OFFCURVE",
"228 481 OFFCURVE",
"239 477 CURVE SMOOTH",
"248 474 OFFCURVE",
"257 470 OFFCURVE",
"268 467 CURVE",
"276 464 OFFCURVE",
"286 461 OFFCURVE",
"291 461 CURVE",
"294 460 OFFCURVE",
"296 460 OFFCURVE",
"299 459 CURVE",
"307 457 LINE",
"312 457 LINE",
"316 456 LINE",
"337 454 LINE",
"342 453 LINE",
"344 453 LINE",
"347 453 LINE",
"359 452 LINE",
"371 452 LINE",
"376 452 LINE",
"383 452 LINE",
"409 455 LINE",
"416 456 LINE",
"419 456 OFFCURVE",
"421 456 OFFCURVE",
"423 457 CURVE",
"436 459 LINE",
"464 465 LINE",
"492 471 LINE",
"496 472 LINE",
"499 472 LINE",
"505 472 LINE",
"516 472 LINE",
"527 473 LINE",
"528 473 LINE",
"529 473 LINE",
"529 472 LINE",
"530 472 LINE",
"533 472 LINE",
"533 471 OFFCURVE",
"533 471 OFFCURVE",
"534 471 CURVE SMOOTH",
"535 471 LINE",
"536 470 OFFCURVE",
"537 470 OFFCURVE",
"538 470 CURVE",
"538 470 OFFCURVE",
"539 470 OFFCURVE",
"540 469 CURVE",
"543 467 OFFCURVE",
"546 465 OFFCURVE",
"547 463 CURVE",
"548 462 OFFCURVE",
"548 461 OFFCURVE",
"548 461 CURVE SMOOTH",
"547 461 OFFCURVE",
"547 461 OFFCURVE",
"547 460 CURVE",
"546 460 LINE",
"546 459 OFFCURVE",
"546 459 OFFCURVE",
"545 459 CURVE",
"546 459 LINE",
"546 457 LINE",
"545 455 OFFCURVE",
"545 451 OFFCURVE",
"545 444 CURVE",
"544 443 OFFCURVE",
"544 442 OFFCURVE",
"544 440 CURVE SMOOTH",
"544 434 LINE SMOOTH",
"544 433 OFFCURVE",
"543 432 OFFCURVE",
"542 429 CURVE",
"542 426 OFFCURVE",
"542 423 OFFCURVE",
"541 422 CURVE",
"540 418 OFFCURVE",
"546 416 OFFCURVE",
"550 416 CURVE",
"550 414 LINE SMOOTH",
"550 413 OFFCURVE",
"550 411 OFFCURVE",
"549 410 CURVE",
"549 409 OFFCURVE",
"549 409 OFFCURVE",
"549 408 CURVE",
"548 407 OFFCURVE",
"548 406 OFFCURVE",
"548 405 CURVE",
"545 412 OFFCURVE",
"535 414 OFFCURVE",
"532 407 CURVE SMOOTH",
"525 392 OFFCURVE",
"518 375 OFFCURVE",
"507 358 CURVE",
"507 358 OFFCURVE",
"506 357 OFFCURVE",
"505 354 CURVE",
"504 352 LINE",
"503 351 OFFCURVE",
"503 350 OFFCURVE",
"502 350 CURVE",
"501 349 OFFCURVE",
"499 345 OFFCURVE",
"499 344 CURVE SMOOTH",
"499 343 OFFCURVE",
"497 340 OFFCURVE",
"496 339 CURVE SMOOTH",
"495 338 OFFCURVE",
"492 335 OFFCURVE",
"492 335 CURVE",
"492 334 OFFCURVE",
"490 330 OFFCURVE",
"489 330 CURVE",
"487 328 LINE",
"486 325 OFFCURVE",
"483 322 OFFCURVE",
"480 319 CURVE",
"471 307 OFFCURVE",
"460 299 OFFCURVE",
"447 288 CURVE SMOOTH",
"436 279 OFFCURVE",
"421 271 OFFCURVE",
"404 263 CURVE",
"361 252 OFFCURVE",
"313 248 OFFCURVE",
"260 252 CURVE",
"233 253 OFFCURVE",
"207 257 OFFCURVE",
"180 261 CURVE",
"170 263 LINE",
"168 263 OFFCURVE",
"165 264 OFFCURVE",
"161 265 CURVE SMOOTH",
"152 267 LINE",
"143 269 LINE SMOOTH",
"131 272 OFFCURVE",
"120 274 OFFCURVE",
"113 277 CURVE",
"110 278 OFFCURVE",
"103 266 OFFCURVE",
"107 263 CURVE",
"107 262 OFFCURVE",
"107 262 OFFCURVE",
"108 262 CURVE",
"109 261 LINE",
"113 258 LINE",
"114 257 OFFCURVE",
"114 257 OFFCURVE",
"115 257 CURVE SMOOTH",
"116 257 OFFCURVE",
"116 257 OFFCURVE",
"117 256 CURVE",
"122 254 LINE",
"116 255 LINE",
"116 256 OFFCURVE",
"116 256 OFFCURVE",
"115 256 CURVE SMOOTH",
"114 256 OFFCURVE",
"114 256 OFFCURVE",
"114 257 CURVE",
"112 257 LINE",
"109 258 OFFCURVE",
"108 259 OFFCURVE",
"107 259 CURVE",
"103 261 LINE",
"102 261 OFFCURVE",
"99 258 OFFCURVE",
"99 257 CURVE SMOOTH",
"99 256 OFFCURVE",
"99 256 OFFCURVE",
"98 255 CURVE",
"94 244 OFFCURVE",
"100 245 OFFCURVE",
"108 242 CURVE",
"112 240 OFFCURVE",
"116 238 OFFCURVE",
"121 237 CURVE",
"124 236 OFFCURVE",
"126 235 OFFCURVE",
"129 235 CURVE",
"131 234 OFFCURVE",
"133 233 OFFCURVE",
"135 232 CURVE",
"144 230 LINE",
"151 228 LINE SMOOTH",
"171 222 OFFCURVE",
"193 217 OFFCURVE",
"218 213 CURVE SMOOTH",
"263 205 OFFCURVE",
"310 201 OFFCURVE",
"354 204 CURVE",
"342 201 LINE",
"299 200 OFFCURVE",
"253 205 OFFCURVE",
"208 213 CURVE",
"197 216 OFFCURVE",
"186 218 OFFCURVE",
"175 220 CURVE SMOOTH",
"164 222 OFFCURVE",
"154 225 OFFCURVE",
"144 228 CURVE SMOOTH",
"129 232 LINE",
"122 235 LINE",
"118 235 LINE",
"115 237 LINE",
"108 239 LINE",
"106 239 OFFCURVE",
"104 240 OFFCURVE",
"103 241 CURVE",
"102 241 OFFCURVE",
"101 241 OFFCURVE",
"101 242 CURVE",
"101 242 OFFCURVE",
"100 242 OFFCURVE",
"99 242 CURVE SMOOTH",
"97 242 LINE",
"95 243 LINE",
"94 244 LINE",
"93 244 LINE SMOOTH",
"89 244 OFFCURVE",
"84 230 OFFCURVE",
"87 229 CURVE",
"88 229 LINE",
"90 228 LINE",
"93 227 LINE",
"94 227 OFFCURVE",
"94 227 OFFCURVE",
"95 227 CURVE",
"95 226 OFFCURVE",
"96 226 OFFCURVE",
"97 226 CURVE",
"101 224 LINE",
"103 223 LINE",
"105 222 LINE",
"109 221 LINE",
"110 221 OFFCURVE",
"111 221 OFFCURVE",
"112 221 CURVE",
"113 220 OFFCURVE",
"113 220 OFFCURVE",
"114 220 CURVE",
"119 218 LINE",
"140 212 LINE",
"143 211 OFFCURVE",
"147 211 OFFCURVE",
"151 210 CURVE",
"154 209 OFFCURVE",
"158 208 OFFCURVE",
"161 207 CURVE",
"168 205 OFFCURVE",
"176 203 OFFCURVE",
"184 202 CURVE SMOOTH",
"191 201 OFFCURVE",
"199 199 OFFCURVE",
"206 197 CURVE",
"213 196 OFFCURVE",
"221 195 OFFCURVE",
"229 194 CURVE SMOOTH",
"236 193 OFFCURVE",
"244 191 OFFCURVE",
"252 190 CURVE",
"229 190 OFFCURVE",
"206 191 OFFCURVE",
"185 194 CURVE SMOOTH",
"160 198 OFFCURVE",
"138 203 OFFCURVE",
"117 209 CURVE",
"108 210 OFFCURVE",
"104 197 OFFCURVE",
"113 193 CURVE",
"134 186 OFFCURVE",
"157 181 OFFCURVE",
"183 178 CURVE SMOOTH",
"192 177 OFFCURVE",
"202 175 OFFCURVE",
"212 174 CURVE",
"231 171 OFFCURVE",
"251 168 OFFCURVE",
"271 168 CURVE",
"280 167 OFFCURVE",
"290 167 OFFCURVE",
"300 166 CURVE",
"271 163 OFFCURVE",
"242 160 OFFCURVE",
"211 156 CURVE",
"206 156 OFFCURVE",
"203 156 OFFCURVE",
"200 157 CURVE",
"188 158 LINE",
"184 158 OFFCURVE",
"180 158 OFFCURVE",
"177 159 CURVE",
"173 160 OFFCURVE",
"169 160 OFFCURVE",
"165 160 CURVE",
"158 161 OFFCURVE",
"150 163 OFFCURVE",
"143 164 CURVE SMOOTH",
"135 165 OFFCURVE",
"127 167 OFFCURVE",
"120 168 CURVE",
"117 169 OFFCURVE",
"113 167 OFFCURVE",
"110 164 CURVE",
"107 155 OFFCURVE",
"120 149 OFFCURVE",
"127 148 CURVE",
"111 151 LINE",
"95 155 LINE",
"86 158 OFFCURVE",
"80 146 OFFCURVE",
"88 141 CURVE SMOOTH",
"120 121 OFFCURVE",
"155 107 OFFCURVE",
"192 99 CURVE",
"184 100 OFFCURVE",
"176 100 OFFCURVE",
"168 101 CURVE SMOOTH",
"160 102 OFFCURVE",
"152 103 OFFCURVE",
"144 104 CURVE SMOOTH",
"137 105 OFFCURVE",
"134 102 OFFCURVE",
"134 98 CURVE",
"133 94 OFFCURVE",
"135 90 OFFCURVE",
"142 89 CURVE SMOOTH",
"207 78 OFFCURVE",
"273 74 OFFCURVE",
"340 79 CURVE",
"347 79 LINE",
"324 74 OFFCURVE",
"300 71 OFFCURVE",
"277 70 CURVE",
"270 69 OFFCURVE",
"267 66 OFFCURVE",
"267 61 CURVE SMOOTH",
"267 56 OFFCURVE",
"270 54 OFFCURVE",
"277 53 CURVE",
"290 52 OFFCURVE",
"302 52 OFFCURVE",
"315 52 CURVE SMOOTH",
"327 52 OFFCURVE",
"339 53 OFFCURVE",
"352 54 CURVE",
"349 54 OFFCURVE",
"345 54 OFFCURVE",
"342 53 CURVE",
"338 52 OFFCURVE",
"334 52 OFFCURVE",
"331 52 CURVE",
"311 51 LINE",
"290 50 LINE",
"270 50 LINE",
"239 53 OFFCURVE",
"206 56 OFFCURVE",
"175 61 CURVE SMOOTH",
"144 65 OFFCURVE",
"113 72 OFFCURVE",
"82 79 CURVE SMOOTH",
"70 82 OFFCURVE",
"64 69 OFFCURVE",
"75 65 CURVE",
"103 50 OFFCURVE",
"133 38 OFFCURVE",
"165 30 CURVE SMOOTH",
"196 22 OFFCURVE",
"229 17 OFFCURVE",
"262 14 CURVE",
"258 13 OFFCURVE",
"254 12 OFFCURVE",
"250 12 CURVE",
"245 11 OFFCURVE",
"241 10 OFFCURVE",
"237 9 CURVE SMOOTH",
"233 8 OFFCURVE",
"229 8 OFFCURVE",
"225 8 CURVE",
"221 7 OFFCURVE",
"217 6 OFFCURVE",
"212 5 CURVE",
"188 8 OFFCURVE",
"164 11 OFFCURVE",
"140 15 CURVE SMOOTH",
"128 17 OFFCURVE",
"116 19 OFFCURVE",
"104 21 CURVE SMOOTH",
"92 23 OFFCURVE",
"80 26 OFFCURVE",
"69 29 CURVE SMOOTH",
"62 31 OFFCURVE",
"58 30 OFFCURVE",
"56 25 CURVE",
"52 18 OFFCURVE",
"66 12 OFFCURVE",
"77 8 CURVE",
"88 3 OFFCURVE",
"98 -1 OFFCURVE",
"110 -4 CURVE",
"115 -6 OFFCURVE",
"121 -8 OFFCURVE",
"126 -10 CURVE",
"120 -9 OFFCURVE",
"114 -7 OFFCURVE",
"108 -6 CURVE SMOOTH",
"101 -5 OFFCURVE",
"95 -3 OFFCURVE",
"89 -2 CURVE",
"77 1 OFFCURVE",
"69 -12 OFFCURVE",
"82 -17 CURVE",
"85 -18 LINE SMOOTH",
"120 -29 OFFCURVE",
"157 -37 OFFCURVE",
"193 -42 CURVE",
"194 -45 OFFCURVE",
"197 -47 OFFCURVE",
"201 -47 CURVE",
"264 -59 OFFCURVE",
"326 -62 OFFCURVE",
"393 -51 CURVE",
"436 -48 OFFCURVE",
"479 -38 OFFCURVE",
"522 -23 CURVE",
"523 -22 OFFCURVE",
"525 -21 OFFCURVE",
"527 -21 CURVE SMOOTH",
"529 -21 OFFCURVE",
"531 -21 OFFCURVE",
"532 -20 CURVE",
"542 -17 LINE",
"546 -16 OFFCURVE",
"550 -14 OFFCURVE",
"553 -13 CURVE SMOOTH",
"556 -12 OFFCURVE",
"560 -11 OFFCURVE",
"563 -10 CURVE",
"584 -1 LINE",
"586 0 OFFCURVE",
"590 2 OFFCURVE",
"595 3 CURVE",
"604 9 LINE",
"611 12 OFFCURVE",
"618 16 OFFCURVE",
"625 20 CURVE",
"632 23 OFFCURVE",
"638 26 OFFCURVE",
"645 31 CURVE SMOOTH",
"655 38 LINE SMOOTH",
"659 41 OFFCURVE",
"662 43 OFFCURVE",
"665 45 CURVE",
"668 48 OFFCURVE",
"671 50 OFFCURVE",
"674 52 CURVE SMOOTH",
"677 54 OFFCURVE",
"680 56 OFFCURVE",
"683 59 CURVE",
"734 99 OFFCURVE",
"773 151 OFFCURVE",
"802 207 CURVE SMOOTH",
"804 211 LINE",
"807 214 LINE",
"812 222 LINE",
"821 236 LINE SMOOTH",
"824 241 OFFCURVE",
"827 247 OFFCURVE",
"830 252 CURVE",
"832 257 OFFCURVE",
"835 262 OFFCURVE",
"838 267 CURVE",
"849 289 OFFCURVE",
"858 313 OFFCURVE",
"866 338 CURVE SMOOTH",
"882 387 OFFCURVE",
"890 448 OFFCURVE",
"882 509 CURVE SMOOTH",
"878 540 OFFCURVE",
"871 569 OFFCURVE",
"859 600 CURVE SMOOTH"
);
}
);
width = 1100;
}
);
note = five;
unicode = 0035;
},
{
glyphname = six;
lastChange = "2017-07-24 05:49:16 +0000";
layers = (
{
layerId = "6CFB2232-83DA-4DC4-BCB5-DDBFA820FE35";
paths = (
{
closed = 1;
nodes = (
"987 573 LINE",
"987 584 LINE",
"987 590 LINE SMOOTH",
"987 593 OFFCURVE",
"987 594 OFFCURVE",
"986 595 CURVE",
"984 606 LINE",
"984 612 LINE",
"982 617 LINE",
"981 625 OFFCURVE",
"979 632 OFFCURVE",
"978 638 CURVE",
"974 649 LINE",
"973 654 OFFCURVE",
"970 662 OFFCURVE",
"967 670 CURVE",
"966 673 OFFCURVE",
"964 677 OFFCURVE",
"963 680 CURVE",
"956 693 OFFCURVE",
"950 706 OFFCURVE",
"941 719 CURVE",
"933 732 OFFCURVE",
"925 743 OFFCURVE",
"914 754 CURVE",
"909 761 OFFCURVE",
"905 764 OFFCURVE",
"898 771 CURVE SMOOTH",
"897 772 OFFCURVE",
"895 774 OFFCURVE",
"894 775 CURVE SMOOTH",
"893 776 OFFCURVE",
"891 777 OFFCURVE",
"890 778 CURVE SMOOTH",
"886 782 LINE",
"881 786 LINE SMOOTH",
"870 795 OFFCURVE",
"858 803 OFFCURVE",
"845 811 CURVE SMOOTH",
"820 826 OFFCURVE",
"792 838 OFFCURVE",
"763 845 CURVE",
"746 850 OFFCURVE",
"730 855 OFFCURVE",
"711 858 CURVE SMOOTH",
"698 860 LINE",
"695 861 OFFCURVE",
"693 861 OFFCURVE",
"691 861 CURVE SMOOTH",
"688 861 OFFCURVE",
"686 861 OFFCURVE",
"683 862 CURVE",
"670 863 LINE",
"668 863 OFFCURVE",
"666 863 OFFCURVE",
"664 864 CURVE",
"661 864 OFFCURVE",
"659 864 OFFCURVE",
"657 864 CURVE",
"660 873 OFFCURVE",
"664 881 OFFCURVE",
"669 889 CURVE",
"673 896 OFFCURVE",
"677 904 OFFCURVE",
"680 913 CURVE",
"712 958 OFFCURVE",
"744 1002 OFFCURVE",
"776 1046 CURVE SMOOTH",
"807 1089 OFFCURVE",
"837 1134 OFFCURVE",
"864 1179 CURVE SMOOTH",
"871 1190 OFFCURVE",
"858 1195 OFFCURVE",
"850 1186 CURVE SMOOTH",
"821 1153 OFFCURVE",
"793 1117 OFFCURVE",
"766 1078 CURVE",
"768 1083 OFFCURVE",
"770 1089 OFFCURVE",
"773 1094 CURVE",
"775 1099 OFFCURVE",
"777 1104 OFFCURVE",
"779 1109 CURVE",
"779 1110 OFFCURVE",
"779 1111 OFFCURVE",
"780 1111 CURVE",
"780 1111 OFFCURVE",
"780 1111 OFFCURVE",
"780 1112 CURVE",
"787 1125 OFFCURVE",
"793 1137 OFFCURVE",
"801 1149 CURVE SMOOTH",
"808 1160 OFFCURVE",
"794 1167 OFFCURVE",
"787 1156 CURVE",
"720 1069 OFFCURVE",
"661 978 OFFCURVE",
"602 883 CURVE",
"625 931 OFFCURVE",
"651 980 OFFCURVE",
"676 1028 CURVE",
"711 1079 OFFCURVE",
"746 1129 OFFCURVE",
"782 1180 CURVE SMOOTH",
"799 1204 OFFCURVE",
"817 1229 OFFCURVE",
"834 1254 CURVE SMOOTH",
"851 1279 OFFCURVE",
"869 1303 OFFCURVE",
"886 1326 CURVE",
"893 1334 OFFCURVE",
"898 1341 OFFCURVE",
"903 1349 CURVE",
"910 1356 OFFCURVE",
"901 1367 OFFCURVE",
"893 1360 CURVE",
"877 1348 OFFCURVE",
"861 1334 OFFCURVE",
"845 1319 CURVE",
"860 1340 OFFCURVE",
"873 1359 OFFCURVE",
"888 1378 CURVE SMOOTH",
"895 1387 OFFCURVE",
"883 1395 OFFCURVE",
"875 1388 CURVE SMOOTH",
"864 1378 OFFCURVE",
"855 1367 OFFCURVE",
"846 1355 CURVE SMOOTH",
"837 1343 OFFCURVE",
"827 1331 OFFCURVE",
"818 1319 CURVE",
"807 1307 OFFCURVE",
"798 1295 OFFCURVE",
"787 1280 CURVE",
"786 1279 OFFCURVE",
"786 1279 OFFCURVE",
"785 1279 CURVE",
"784 1278 OFFCURVE",
"783 1277 OFFCURVE",
"782 1276 CURVE",
"763 1253 OFFCURVE",
"744 1229 OFFCURVE",
"727 1205 CURVE",
"741 1229 LINE SMOOTH",
"748 1242 OFFCURVE",
"735 1246 OFFCURVE",
"726 1237 CURVE",
"726 1244 OFFCURVE",
"718 1246 OFFCURVE",
"711 1238 CURVE",
"688 1208 LINE",
"710 1241 OFFCURVE",
"734 1273 OFFCURVE",
"761 1306 CURVE SMOOTH",
"770 1317 OFFCURVE",
"759 1328 OFFCURVE",
"748 1316 CURVE",
"733 1296 OFFCURVE",
"717 1276 OFFCURVE",
"702 1256 CURVE SMOOTH",
"686 1236 OFFCURVE",
"670 1216 OFFCURVE",
"655 1195 CURVE",
"668 1220 OFFCURVE",
"680 1243 OFFCURVE",
"692 1270 CURVE",
"700 1283 OFFCURVE",
"708 1295 OFFCURVE",
"717 1308 CURVE SMOOTH",
"725 1320 OFFCURVE",
"733 1332 OFFCURVE",
"741 1345 CURVE",
"750 1358 OFFCURVE",
"759 1370 OFFCURVE",
"768 1383 CURVE SMOOTH",
"776 1395 OFFCURVE",
"785 1408 OFFCURVE",
"794 1421 CURVE SMOOTH",
"802 1432 OFFCURVE",
"791 1440 OFFCURVE",
"780 1429 CURVE SMOOTH",
"737 1384 OFFCURVE",
"699 1338 OFFCURVE",
"664 1287 CURVE",
"660 1292 OFFCURVE",
"655 1291 OFFCURVE",
"650 1284 CURVE",
"602 1224 OFFCURVE",
"559 1162 OFFCURVE",
"519 1098 CURVE SMOOTH",
"505 1076 LINE",
"520 1106 OFFCURVE",
"534 1136 OFFCURVE",
"549 1165 CURVE SMOOTH",
"578 1224 OFFCURVE",
"612 1283 OFFCURVE",
"648 1340 CURVE SMOOTH",
"684 1396 OFFCURVE",
"727 1444 OFFCURVE",
"768 1485 CURVE SMOOTH",
"774 1491 OFFCURVE",
"775 1496 OFFCURVE",
"772 1500 CURVE",
"768 1503 OFFCURVE",
"763 1501 OFFCURVE",
"756 1496 CURVE",
"745 1486 OFFCURVE",
"734 1476 OFFCURVE",
"725 1466 CURVE SMOOTH",
"706 1445 OFFCURVE",
"683 1418 OFFCURVE",
"658 1387 CURVE SMOOTH",
"645 1371 OFFCURVE",
"633 1355 OFFCURVE",
"620 1340 CURVE",
"595 1308 OFFCURVE",
"572 1276 OFFCURVE",
"549 1244 CURVE",
"550 1248 OFFCURVE",
"552 1252 OFFCURVE",
"554 1256 CURVE",
"555 1259 OFFCURVE",
"557 1263 OFFCURVE",
"558 1268 CURVE",
"562 1279 OFFCURVE",
"566 1291 OFFCURVE",
"570 1303 CURVE",
"573 1311 OFFCURVE",
"566 1315 OFFCURVE",
"559 1311 CURVE",
"532 1294 OFFCURVE",
"515 1266 OFFCURVE",
"496 1238 CURVE",
"409 1143 OFFCURVE",
"340 1039 OFFCURVE",
"280 926 CURVE",
"279 926 OFFCURVE",
"279 926 OFFCURVE",
"279 925 CURVE SMOOTH",
"279 924 OFFCURVE",
"279 924 OFFCURVE",
"278 924 CURVE",
"263 900 OFFCURVE",
"248 876 OFFCURVE",
"234 852 CURVE SMOOTH",
"219 827 OFFCURVE",
"205 803 OFFCURVE",
"190 778 CURVE SMOOTH",
"162 729 OFFCURVE",
"135 678 OFFCURVE",
"108 627 CURVE",
"103 616 OFFCURVE",
"97 605 OFFCURVE",
"92 594 CURVE",
"81 572 OFFCURVE",
"72 553 OFFCURVE",
"67 541 CURVE SMOOTH",
"64 534 OFFCURVE",
"61 527 OFFCURVE",
"58 520 CURVE",
"55 515 OFFCURVE",
"54 511 OFFCURVE",
"51 504 CURVE",
"50 501 OFFCURVE",
"48 497 OFFCURVE",
"47 494 CURVE",
"45 490 OFFCURVE",
"43 486 OFFCURVE",
"42 483 CURVE SMOOTH",
"40 477 LINE",
"38 471 LINE SMOOTH",
"37 468 OFFCURVE",
"36 465 OFFCURVE",
"35 462 CURVE SMOOTH",
"34 459 OFFCURVE",
"32 456 OFFCURVE",
"31 453 CURVE SMOOTH",
"15 406 OFFCURVE",
"2 358 OFFCURVE",
"-5 310 CURVE SMOOTH",
"-11 260 OFFCURVE",
"-9 214 OFFCURVE",
"2 171 CURVE SMOOTH",
"5 160 OFFCURVE",
"9 149 OFFCURVE",
"13 139 CURVE SMOOTH",
"21 118 OFFCURVE",
"32 100 OFFCURVE",
"48 80 CURVE",
"54 74 LINE",
"59 67 LINE",
"72 56 LINE",
"74 52 LINE",
"75 52 OFFCURVE",
"77 51 OFFCURVE",
"78 50 CURVE",
"85 45 LINE",
"98 34 LINE",
"101 33 OFFCURVE",
"103 31 OFFCURVE",
"105 29 CURVE",
"113 24 LINE",
"127 15 LINE SMOOTH",
"132 12 OFFCURVE",
"138 9 OFFCURVE",
"143 7 CURVE",
"148 4 OFFCURVE",
"153 2 OFFCURVE",
"158 -1 CURVE SMOOTH",
"163 -4 OFFCURVE",
"169 -6 OFFCURVE",
"175 -8 CURVE",
"180 -11 OFFCURVE",
"186 -13 OFFCURVE",
"192 -16 CURVE",
"238 -33 OFFCURVE",
"286 -44 OFFCURVE",
"337 -48 CURVE",
"340 -49 OFFCURVE",
"344 -49 OFFCURVE",
"347 -49 CURVE SMOOTH",
"350 -49 OFFCURVE",
"353 -49 OFFCURVE",
"356 -50 CURVE",
"376 -50 LINE",
"395 -50 LINE",
"399 -50 LINE",
"405 -50 LINE",
"415 -50 LINE",
"418 -49 OFFCURVE",
"422 -49 OFFCURVE",
"426 -49 CURVE SMOOTH",
"429 -49 OFFCURVE",
"433 -49 OFFCURVE",
"436 -49 CURVE",
"439 -48 OFFCURVE",
"441 -48 OFFCURVE",
"444 -48 CURVE SMOOTH",
"446 -48 OFFCURVE",
"448 -48 OFFCURVE",
"451 -47 CURVE",
"460 -46 OFFCURVE",
"470 -44 OFFCURVE",
"479 -43 CURVE SMOOTH",
"518 -38 OFFCURVE",
"556 -28 OFFCURVE",
"593 -15 CURVE",
"598 -14 OFFCURVE",
"602 -12 OFFCURVE",
"607 -10 CURVE",
"611 -8 OFFCURVE",
"615 -6 OFFCURVE",
"620 -5 CURVE",
"647 7 LINE SMOOTH",
"666 16 OFFCURVE",
"683 24 OFFCURVE",
"700 35 CURVE",
"712 42 LINE SMOOTH",
"717 45 OFFCURVE",
"721 47 OFFCURVE",
"725 50 CURVE SMOOTH",
"729 53 OFFCURVE",
"733 56 OFFCURVE",
"737 59 CURVE",
"741 61 OFFCURVE",
"745 64 OFFCURVE",
"750 67 CURVE",
"754 70 OFFCURVE",
"758 74 OFFCURVE",
"762 77 CURVE SMOOTH",
"766 80 OFFCURVE",
"770 83 OFFCURVE",
"774 86 CURVE",
"776 87 OFFCURVE",
"778 89 OFFCURVE",
"780 91 CURVE",
"781 93 OFFCURVE",
"783 95 OFFCURVE",
"785 96 CURVE",
"797 106 LINE",
"808 116 LINE",
"819 127 LINE",
"829 138 LINE",
"831 139 OFFCURVE",
"833 141 OFFCURVE",
"835 143 CURVE",
"836 145 OFFCURVE",
"838 147 OFFCURVE",
"840 149 CURVE",
"847 157 OFFCURVE",
"852 164 OFFCURVE",
"859 173 CURVE",
"862 176 OFFCURVE",
"865 180 OFFCURVE",
"868 184 CURVE SMOOTH",
"877 196 LINE",
"890 216 OFFCURVE",
"877 223 OFFCURVE",
"864 206 CURVE",
"862 203 OFFCURVE",
"860 199 OFFCURVE",
"857 196 CURVE SMOOTH",
"854 193 OFFCURVE",
"852 189 OFFCURVE",
"849 186 CURVE",
"844 179 OFFCURVE",
"838 173 OFFCURVE",
"833 166 CURVE",
"824 156 LINE",
"815 147 LINE SMOOTH",
"812 144 OFFCURVE",
"810 141 OFFCURVE",
"807 138 CURVE SMOOTH",
"804 135 OFFCURVE",
"800 131 OFFCURVE",
"797 128 CURVE",
"790 123 OFFCURVE",
"785 118 OFFCURVE",
"778 111 CURVE",
"769 103 LINE",
"766 100 OFFCURVE",
"763 98 OFFCURVE",
"759 95 CURVE",
"756 92 OFFCURVE",
"752 90 OFFCURVE",
"749 88 CURVE",
"746 85 OFFCURVE",
"742 83 OFFCURVE",
"739 80 CURVE SMOOTH",
"736 77 OFFCURVE",
"732 74 OFFCURVE",
"729 72 CURVE",
"725 70 OFFCURVE",
"721 68 OFFCURVE",
"718 65 CURVE",
"707 58 LINE",
"703 55 OFFCURVE",
"700 53 OFFCURVE",
"697 52 CURVE",
"675 39 LINE SMOOTH",
"668 35 OFFCURVE",
"660 31 OFFCURVE",
"653 28 CURVE",
"648 25 OFFCURVE",
"644 23 OFFCURVE",
"642 22 CURVE",
"630 17 LINE SMOOTH",
"623 14 OFFCURVE",
"615 11 OFFCURVE",
"608 7 CURVE",
"584 -1 LINE SMOOTH",
"581 -2 OFFCURVE",
"577 -3 OFFCURVE",
"573 -4 CURVE SMOOTH",
"569 -5 OFFCURVE",
"565 -7 OFFCURVE",
"561 -8 CURVE",
"549 -12 LINE",
"543 -14 LINE",
"537 -15 LINE",
"513 -21 LINE SMOOTH",
"509 -22 OFFCURVE",
"505 -23 OFFCURVE",
"501 -23 CURVE",
"497 -24 OFFCURVE",
"493 -24 OFFCURVE",
"489 -25 CURVE",
"477 -27 LINE",
"466 -30 OFFCURVE",
"461 -30 OFFCURVE",
"453 -30 CURVE",
"449 -31 OFFCURVE",
"445 -31 OFFCURVE",
"440 -32 CURVE",
"426 -33 LINE",
"423 -34 OFFCURVE",
"420 -34 OFFCURVE",
"417 -34 CURVE SMOOTH",
"414 -34 OFFCURVE",
"411 -34 OFFCURVE",
"408 -34 CURVE SMOOTH",
"400 -34 LINE",
"392 -34 LINE",
"376 -34 LINE",
"360 -34 LINE",
"352 -34 LINE",
"344 -33 LINE",
"328 -32 LINE",
"320 -31 LINE",
"319 -30 OFFCURVE",
"317 -30 OFFCURVE",
"316 -30 CURVE SMOOTH",
"315 -30 OFFCURVE",
"313 -30 OFFCURVE",
"312 -29 CURVE",
"281 -25 LINE SMOOTH",
"274 -24 OFFCURVE",
"269 -22 OFFCURVE",
"266 -21 CURVE",
"251 -18 LINE",
"248 -17 OFFCURVE",
"246 -17 OFFCURVE",
"244 -16 CURVE",
"241 -15 OFFCURVE",
"239 -15 OFFCURVE",
"236 -14 CURVE SMOOTH",
"222 -9 LINE",
"211 -6 OFFCURVE",
"202 -3 OFFCURVE",
"193 1 CURVE SMOOTH",
"180 7 LINE SMOOTH",
"173 10 OFFCURVE",
"169 12 OFFCURVE",
"166 13 CURVE",
"161 16 OFFCURVE",
"157 18 OFFCURVE",
"153 20 CURVE",
"148 22 OFFCURVE",
"144 24 OFFCURVE",
"140 27 CURVE",
"131 32 OFFCURVE",
"123 37 OFFCURVE",
"115 42 CURVE SMOOTH",
"112 44 LINE",
"109 46 LINE",
"104 50 LINE",
"92 59 LINE",
"91 60 OFFCURVE",
"90 61 OFFCURVE",
"89 62 CURVE",
"88 62 OFFCURVE",
"88 63 OFFCURVE",
"87 64 CURVE",
"81 69 LINE",
"72 78 LINE SMOOTH",
"69 81 OFFCURVE",
"66 85 OFFCURVE",
"63 89 CURVE SMOOTH",
"60 93 OFFCURVE",
"56 97 OFFCURVE",
"53 100 CURVE",
"30 132 OFFCURVE",
"16 169 OFFCURVE",
"12 205 CURVE",
"9 224 OFFCURVE",
"8 243 OFFCURVE",
"8 263 CURVE SMOOTH",
"9 302 OFFCURVE",
"15 342 OFFCURVE",
"26 381 CURVE SMOOTH",
"31 401 OFFCURVE",
"37 421 OFFCURVE",
"44 441 CURVE",
"47 446 OFFCURVE",
"48 450 OFFCURVE",
"49 455 CURVE",
"55 469 LINE",
"55 471 LINE",
"56 472 LINE SMOOTH",
"59 475 OFFCURVE",
"61 480 OFFCURVE",
"64 487 CURVE",
"72 514 OFFCURVE",
"85 536 OFFCURVE",
"97 557 CURVE",
"82 532 OFFCURVE",
"71 504 OFFCURVE",
"63 472 CURVE",
"62 465 OFFCURVE",
"61 459 OFFCURVE",
"61 455 CURVE",
"49 419 OFFCURVE",
"38 384 OFFCURVE",
"31 347 CURVE SMOOTH",
"15 276 OFFCURVE",
"17 198 OFFCURVE",
"46 138 CURVE SMOOTH",
"54 122 OFFCURVE",
"64 107 OFFCURVE",
"75 94 CURVE",
"78 91 OFFCURVE",
"82 88 OFFCURVE",
"85 85 CURVE SMOOTH",
"88 82 OFFCURVE",
"91 79 OFFCURVE",
"94 76 CURVE SMOOTH",
"98 72 OFFCURVE",
"101 69 OFFCURVE",
"104 67 CURVE",
"115 59 LINE",
"118 56 OFFCURVE",
"122 54 OFFCURVE",
"126 52 CURVE",
"129 50 OFFCURVE",
"133 48 OFFCURVE",
"137 45 CURVE SMOOTH",
"148 37 LINE",
"160 31 LINE",
"172 25 LINE",
"178 22 LINE",
"184 20 LINE",
"210 9 LINE",
"245 -4 OFFCURVE",
"281 -11 OFFCURVE",
"320 -18 CURVE",
"329 -19 OFFCURVE",
"339 -19 OFFCURVE",
"349 -20 CURVE SMOOTH",
"358 -21 OFFCURVE",
"368 -22 OFFCURVE",
"378 -22 CURVE SMOOTH",
"393 -22 LINE",
"400 -22 LINE",
"408 -22 LINE",
"411 -21 OFFCURVE",
"414 -21 OFFCURVE",
"417 -21 CURVE SMOOTH",
"419 -21 OFFCURVE",
"421 -21 OFFCURVE",
"424 -21 CURVE",
"438 -20 LINE",
"446 -20 OFFCURVE",
"453 -19 OFFCURVE",
"461 -18 CURVE SMOOTH",
"472 -17 LINE",
"477 -16 OFFCURVE",
"481 -15 OFFCURVE",
"483 -15 CURVE",
"506 -11 LINE SMOOTH",
"512 -10 OFFCURVE",
"519 -9 OFFCURVE",
"528 -6 CURVE",
"539 -4 LINE",
"551 -1 LINE",
"573 6 LINE",
"595 13 LINE",
"606 17 LINE",
"617 21 LINE",
"638 30 LINE",
"641 31 OFFCURVE",
"645 33 OFFCURVE",
"649 35 CURVE",
"652 37 OFFCURVE",
"656 39 OFFCURVE",
"659 40 CURVE",
"669 46 LINE",
"672 47 OFFCURVE",
"675 48 OFFCURVE",
"679 51 CURVE",
"700 63 LINE SMOOTH",
"755 95 OFFCURVE",
"804 135 OFFCURVE",
"845 186 CURVE",
"850 191 OFFCURVE",
"852 196 OFFCURVE",
"852 199 CURVE",
"851 202 OFFCURVE",
"850 204 OFFCURVE",
"847 205 CURVE",
"858 219 LINE",
"863 227 LINE",
"869 235 LINE",
"868 233 LINE",
"867 232 OFFCURVE",
"866 231 OFFCURVE",
"866 230 CURVE SMOOTH",
"866 229 OFFCURVE",
"866 227 OFFCURVE",
"865 226 CURVE",
"865 222 LINE SMOOTH",
"865 217 OFFCURVE",
"867 215 OFFCURVE",
"875 218 CURVE",
"878 221 OFFCURVE",
"880 224 OFFCURVE",
"883 229 CURVE",
"888 236 OFFCURVE",
"892 241 OFFCURVE",
"896 248 CURVE",
"903 257 LINE",
"906 262 OFFCURVE",
"908 266 OFFCURVE",
"909 268 CURVE SMOOTH",
"921 291 LINE",
"927 302 LINE",
"928 303 OFFCURVE",
"928 304 OFFCURVE",
"929 305 CURVE",
"929 305 OFFCURVE",
"929 306 OFFCURVE",
"930 307 CURVE",
"933 313 LINE",
"936 320 OFFCURVE",
"940 328 OFFCURVE",
"943 336 CURVE SMOOTH",
"946 344 OFFCURVE",
"949 352 OFFCURVE",
"952 360 CURVE",
"967 407 LINE",
"969 413 LINE",
"969 414 OFFCURVE",
"969 415 OFFCURVE",
"970 416 CURVE",
"970 417 OFFCURVE",
"970 418 OFFCURVE",
"970 419 CURVE",
"973 431 LINE",
"978 455 LINE",
"980 463 OFFCURVE",
"981 471 OFFCURVE",
"982 479 CURVE SMOOTH",
"983 487 OFFCURVE",
"984 495 OFFCURVE",
"985 503 CURVE",
"989 527 LINE",
"989 539 LINE",
"988 550 LINE"
);
},
{
closed = 1;
nodes = (
"631 450 LINE",
"630 448 OFFCURVE",
"630 446 OFFCURVE",
"629 444 CURVE SMOOTH",
"628 442 OFFCURVE",
"627 440 OFFCURVE",
"626 438 CURVE",
"623 435 OFFCURVE",
"621 432 OFFCURVE",
"618 430 CURVE",
"615 427 OFFCURVE",
"613 425 OFFCURVE",
"610 422 CURVE SMOOTH",
"609 421 OFFCURVE",
"607 420 OFFCURVE",
"603 417 CURVE",
"602 416 LINE",
"601 415 LINE",
"599 413 LINE",
"594 409 LINE",
"591 406 LINE",
"587 403 LINE",
"586 402 OFFCURVE",
"585 401 OFFCURVE",
"584 400 CURVE SMOOTH",
"583 399 OFFCURVE",
"582 397 OFFCURVE",
"581 396 CURVE",
"579 395 OFFCURVE",
"577 393 OFFCURVE",
"574 390 CURVE",
"570 387 OFFCURVE",
"564 382 OFFCURVE",
"560 378 CURVE SMOOTH",
"558 376 OFFCURVE",
"555 374 OFFCURVE",
"552 373 CURVE",
"547 368 OFFCURVE",
"542 364 OFFCURVE",
"537 363 CURVE",
"500 342 OFFCURVE",
"451 327 OFFCURVE",
"408 326 CURVE",
"404 325 LINE",
"399 325 LINE",
"399 326 LINE",
"397 326 LINE",
"392 329 OFFCURVE",
"390 329 OFFCURVE",
"386 330 CURVE",
"384 330 OFFCURVE",
"382 331 OFFCURVE",
"381 332 CURVE",
"381 333 OFFCURVE",
"381 334 OFFCURVE",
"382 335 CURVE",
"382 336 OFFCURVE",
"382 337 OFFCURVE",
"382 338 CURVE SMOOTH",
"382 339 OFFCURVE",
"382 340 OFFCURVE",
"383 341 CURVE",
"383 342 OFFCURVE",
"383 342 OFFCURVE",
"383 343 CURVE",
"384 345 OFFCURVE",
"386 346 OFFCURVE",
"387 347 CURVE SMOOTH",
"388 348 OFFCURVE",
"390 348 OFFCURVE",
"391 349 CURVE",
"391 350 OFFCURVE",
"391 350 OFFCURVE",
"392 350 CURVE",
"392 351 LINE",
"392 350 OFFCURVE",
"392 350 OFFCURVE",
"393 352 CURVE",
"393 354 OFFCURVE",
"394 356 OFFCURVE",
"395 358 CURVE",
"403 383 OFFCURVE",
"418 414 OFFCURVE",
"437 450 CURVE SMOOTH",
"446 468 OFFCURVE",
"456 486 OFFCURVE",
"465 504 CURVE",
"466 507 OFFCURVE",
"468 509 OFFCURVE",
"469 512 CURVE",
"470 514 OFFCURVE",
"471 516 OFFCURVE",
"472 519 CURVE",
"477 521 OFFCURVE",
"482 523 OFFCURVE",
"487 525 CURVE",
"492 526 OFFCURVE",
"496 528 OFFCURVE",
"501 530 CURVE",
"511 532 LINE",
"513 533 LINE",
"515 534 LINE",
"519 535 LINE",
"522 536 LINE",
"525 536 LINE",
"531 538 LINE SMOOTH",
"534 539 OFFCURVE",
"538 540 OFFCURVE",
"542 541 CURVE",
"546 541 OFFCURVE",
"550 542 OFFCURVE",
"553 543 CURVE",
"558 543 OFFCURVE",
"562 543 OFFCURVE",
"567 543 CURVE",
"575 542 OFFCURVE",
"585 541 OFFCURVE",
"593 541 CURVE SMOOTH",
"597 541 OFFCURVE",
"601 540 OFFCURVE",
"606 539 CURVE",
"614 534 OFFCURVE",
"623 528 OFFCURVE",
"628 520 CURVE",
"641 504 OFFCURVE",
"641 484 OFFCURVE",
"634 463 CURVE",
"633 457 LINE"
);
}
);
width = 1006;
}
);
note = six;
unicode = 0036;
},
{
glyphname = seven;
lastChange = "2017-07-24 05:49:16 +0000";
layers = (
{
layerId = "6CFB2232-83DA-4DC4-BCB5-DDBFA820FE35";
paths = (
{
closed = 1;
nodes = (
"898 943 LINE",
"901 948 LINE",
"905 955 LINE",
"907 959 LINE",
"910 964 LINE SMOOTH",
"913 969 OFFCURVE",
"914 973 OFFCURVE",
"917 980 CURVE",
"918 982 LINE",
"920 986 LINE",
"921 989 OFFCURVE",
"922 991 OFFCURVE",
"922 993 CURVE",
"924 996 LINE",
"924 999 LINE",
"926 1005 LINE",
"927 1008 LINE",
"928 1012 LINE SMOOTH",
"931 1023 OFFCURVE",
"932 1028 OFFCURVE",
"932 1035 CURVE",
"933 1040 LINE",
"933 1041 OFFCURVE",
"933 1042 OFFCURVE",
"934 1043 CURVE",
"934 1044 OFFCURVE",
"934 1045 OFFCURVE",
"934 1046 CURVE SMOOTH",
"934 1049 OFFCURVE",
"934 1051 OFFCURVE",
"935 1053 CURVE",
"935 1055 OFFCURVE",
"935 1057 OFFCURVE",
"935 1059 CURVE SMOOTH",
"935 1064 OFFCURVE",
"935 1068 OFFCURVE",
"934 1071 CURVE",
"934 1077 LINE",
"934 1081 LINE",
"933 1082 OFFCURVE",
"933 1083 OFFCURVE",
"933 1084 CURVE SMOOTH",
"933 1085 OFFCURVE",
"933 1086 OFFCURVE",
"932 1087 CURVE",
"930 1106 OFFCURVE",
"926 1124 OFFCURVE",
"919 1140 CURVE",
"916 1146 LINE",
"915 1149 LINE",
"913 1154 LINE",
"909 1161 OFFCURVE",
"905 1167 OFFCURVE",
"900 1174 CURVE",
"892 1189 OFFCURVE",
"881 1200 OFFCURVE",
"869 1211 CURVE",
"866 1214 OFFCURVE",
"864 1216 OFFCURVE",
"861 1219 CURVE",
"858 1221 OFFCURVE",
"854 1223 OFFCURVE",
"851 1226 CURVE SMOOTH",
"850 1227 OFFCURVE",
"850 1227 OFFCURVE",
"849 1228 CURVE",
"848 1228 OFFCURVE",
"848 1228 OFFCURVE",
"847 1229 CURVE",
"842 1231 LINE",
"839 1234 OFFCURVE",
"836 1236 OFFCURVE",
"834 1237 CURVE SMOOTH",
"821 1244 OFFCURVE",
"808 1250 OFFCURVE",
"795 1254 CURVE SMOOTH",
"792 1255 OFFCURVE",
"788 1256 OFFCURVE",
"785 1257 CURVE SMOOTH",
"782 1258 OFFCURVE",
"778 1259 OFFCURVE",
"775 1260 CURVE",
"773 1261 OFFCURVE",
"770 1261 OFFCURVE",
"765 1261 CURVE",
"760 1262 LINE",
"758 1263 LINE",
"755 1263 OFFCURVE",
"751 1263 OFFCURVE",
"748 1264 CURVE",
"744 1264 OFFCURVE",
"740 1264 OFFCURVE",
"737 1264 CURVE SMOOTH",
"734 1264 OFFCURVE",
"730 1264 OFFCURVE",
"727 1264 CURVE SMOOTH",
"723 1264 OFFCURVE",
"719 1264 OFFCURVE",
"716 1263 CURVE",
"706 1263 LINE",
"701 1262 LINE",
"698 1261 LINE SMOOTH",
"695 1260 OFFCURVE",
"692 1260 OFFCURVE",
"689 1260 CURVE",
"686 1259 OFFCURVE",
"682 1258 OFFCURVE",
"679 1257 CURVE",
"678 1257 OFFCURVE",
"676 1257 OFFCURVE",
"675 1256 CURVE SMOOTH",
"674 1255 OFFCURVE",
"672 1255 OFFCURVE",
"670 1255 CURVE",
"669 1254 LINE",
"668 1255 LINE",
"666 1255 LINE",
"661 1255 LINE",
"653 1256 OFFCURVE",
"642 1257 OFFCURVE",
"631 1257 CURVE",
"620 1258 OFFCURVE",
"608 1259 OFFCURVE",
"595 1259 CURVE SMOOTH",
"589 1259 OFFCURVE",
"583 1259 OFFCURVE",
"577 1260 CURVE",
"570 1260 OFFCURVE",
"564 1260 OFFCURVE",
"557 1260 CURVE",
"531 1261 OFFCURVE",
"504 1261 OFFCURVE",
"477 1261 CURVE SMOOTH",
"449 1261 OFFCURVE",
"421 1261 OFFCURVE",
"393 1262 CURVE",
"392 1266 OFFCURVE",
"389 1268 OFFCURVE",
"386 1268 CURVE",
"379 1267 OFFCURVE",
"372 1266 OFFCURVE",
"365 1266 CURVE",
"358 1265 OFFCURVE",
"352 1264 OFFCURVE",
"345 1263 CURVE",
"274 1276 OFFCURVE",
"206 1289 OFFCURVE",
"134 1286 CURVE",
"125 1285 OFFCURVE",
"126 1273 OFFCURVE",
"133 1270 CURVE",
"162 1263 OFFCURVE",
"192 1259 OFFCURVE",
"223 1256 CURVE",
"216 1255 OFFCURVE",
"208 1254 OFFCURVE",
"201 1251 CURVE",
"200 1251 OFFCURVE",
"199 1251 OFFCURVE",
"199 1250 CURVE",
"194 1249 OFFCURVE",
"189 1249 OFFCURVE",
"185 1249 CURVE SMOOTH",
"176 1249 OFFCURVE",
"164 1251 OFFCURVE",
"164 1241 CURVE SMOOTH",
"164 1236 OFFCURVE",
"166 1233 OFFCURVE",
"170 1233 CURVE",
"242 1222 OFFCURVE",
"310 1217 OFFCURVE",
"382 1210 CURVE",
"276 1204 LINE",
"197 1215 OFFCURVE",
"118 1222 OFFCURVE",
"38 1219 CURVE",
"34 1219 OFFCURVE",
"30 1219 OFFCURVE",
"27 1219 CURVE",
"23 1218 OFFCURVE",
"19 1218 OFFCURVE",
"16 1218 CURVE SMOOTH",
"9 1218 OFFCURVE",
"7 1206 OFFCURVE",
"14 1203 CURVE",
"29 1199 OFFCURVE",
"42 1195 OFFCURVE",
"55 1190 CURVE",
"5 1188 LINE",
"1 1187 OFFCURVE",
"-1 1184 OFFCURVE",
"-1 1180 CURVE SMOOTH",
"-1 1175 OFFCURVE",
"1 1172 OFFCURVE",
"5 1172 CURVE",
"15 1171 OFFCURVE",
"25 1170 OFFCURVE",
"35 1170 CURVE SMOOTH",
"45 1170 OFFCURVE",
"55 1170 OFFCURVE",
"64 1169 CURVE SMOOTH",
"97 1166 LINE",
"98 1165 OFFCURVE",
"99 1165 OFFCURVE",
"101 1165 CURVE",
"120 1161 OFFCURVE",
"139 1158 OFFCURVE",
"158 1157 CURVE",
"155 1156 OFFCURVE",
"152 1156 OFFCURVE",
"149 1156 CURVE SMOOTH",
"146 1156 OFFCURVE",
"143 1156 OFFCURVE",
"140 1156 CURVE",
"129 1155 OFFCURVE",
"132 1141 OFFCURVE",
"139 1140 CURVE",
"140 1140 LINE",
"136 1135 OFFCURVE",
"137 1127 OFFCURVE",
"144 1126 CURVE SMOOTH",
"167 1122 LINE",
"154 1123 OFFCURVE",
"141 1125 OFFCURVE",
"128 1126 CURVE SMOOTH",
"115 1127 OFFCURVE",
"103 1129 OFFCURVE",
"90 1130 CURVE SMOOTH",
"81 1131 OFFCURVE",
"78 1115 OFFCURVE",
"87 1115 CURVE",
"103 1113 OFFCURVE",
"119 1111 OFFCURVE",
"136 1109 CURVE",
"152 1106 OFFCURVE",
"168 1104 OFFCURVE",
"184 1102 CURVE",
"165 1099 OFFCURVE",
"149 1096 OFFCURVE",
"130 1092 CURVE",
"91 1095 OFFCURVE",
"54 1092 OFFCURVE",
"15 1089 CURVE SMOOTH",
"6 1088 OFFCURVE",
"7 1074 OFFCURVE",
"15 1073 CURVE",
"54 1066 OFFCURVE",
"89 1063 OFFCURVE",
"128 1060 CURVE",
"125 1055 OFFCURVE",
"127 1051 OFFCURVE",
"134 1050 CURVE SMOOTH",
"181 1042 OFFCURVE",
"228 1037 OFFCURVE",
"276 1033 CURVE SMOOTH",
"291 1032 LINE",
"249 1029 OFFCURVE",
"207 1025 OFFCURVE",
"166 1021 CURVE SMOOTH",
"124 1017 OFFCURVE",
"82 1017 OFFCURVE",
"40 1021 CURVE",
"-10 1028 LINE",
"-21 1029 OFFCURVE",
"-23 1015 OFFCURVE",
"-12 1012 CURVE",
"-4 1011 OFFCURVE",
"4 1010 OFFCURVE",
"12 1009 CURVE SMOOTH",
"20 1008 OFFCURVE",
"29 1006 OFFCURVE",
"38 1005 CURVE SMOOTH",
"62 1002 OFFCURVE",
"86 999 OFFCURVE",
"110 996 CURVE SMOOTH",
"134 993 OFFCURVE",
"158 989 OFFCURVE",
"183 986 CURVE",
"180 985 OFFCURVE",
"177 984 OFFCURVE",
"175 984 CURVE",
"173 983 OFFCURVE",
"170 982 OFFCURVE",
"167 981 CURVE SMOOTH",
"164 980 OFFCURVE",
"160 978 OFFCURVE",
"156 977 CURVE SMOOTH",
"152 976 OFFCURVE",
"148 974 OFFCURVE",
"144 973 CURVE",
"139 970 OFFCURVE",
"138 962 OFFCURVE",
"142 959 CURVE",
"159 944 OFFCURVE",
"179 945 OFFCURVE",
"199 944 CURVE",
"271 919 OFFCURVE",
"341 909 OFFCURVE",
"416 906 CURVE",
"413 901 OFFCURVE",
"410 896 OFFCURVE",
"407 891 CURVE SMOOTH",
"404 886 OFFCURVE",
"400 881 OFFCURVE",
"397 876 CURVE SMOOTH",
"358 813 OFFCURVE",
"322 750 OFFCURVE",
"289 683 CURVE",
"285 672 OFFCURVE",
"300 665 OFFCURVE",
"304 676 CURVE",
"343 756 OFFCURVE",
"387 832 OFFCURVE",
"434 905 CURVE",
"436 905 LINE",
"438 904 OFFCURVE",
"440 904 OFFCURVE",
"442 904 CURVE SMOOTH",
"444 904 OFFCURVE",
"446 904 OFFCURVE",
"448 903 CURVE",
"401 832 OFFCURVE",
"356 762 OFFCURVE",
"313 686 CURVE SMOOTH",
"309 679 OFFCURVE",
"313 676 OFFCURVE",
"318 675 CURVE",
"315 671 OFFCURVE",
"313 666 OFFCURVE",
"311 659 CURVE",
"311 661 LINE SMOOTH",
"311 670 OFFCURVE",
"300 673 OFFCURVE",
"296 665 CURVE",
"244 581 OFFCURVE",
"207 490 OFFCURVE",
"178 390 CURVE",
"155 334 OFFCURVE",
"136 275 OFFCURVE",
"121 212 CURVE SMOOTH",
"108 148 OFFCURVE",
"99 82 OFFCURVE",
"102 14 CURVE",
"102 3 OFFCURVE",
"117 0 OFFCURVE",
"118 11 CURVE",
"119 16 OFFCURVE",
"119 21 OFFCURVE",
"120 26 CURVE SMOOTH",
"121 31 OFFCURVE",
"121 36 OFFCURVE",
"122 41 CURVE",
"121 35 OFFCURVE",
"121 29 OFFCURVE",
"121 24 CURVE SMOOTH",
"121 18 OFFCURVE",
"121 12 OFFCURVE",
"121 7 CURVE SMOOTH",
"121 -6 OFFCURVE",
"138 -5 OFFCURVE",
"137 7 CURVE",
"136 60 OFFCURVE",
"143 111 OFFCURVE",
"155 160 CURVE SMOOTH",
"166 209 OFFCURVE",
"181 254 OFFCURVE",
"197 301 CURVE",
"195 288 LINE",
"179 244 OFFCURVE",
"165 198 OFFCURVE",
"154 149 CURVE SMOOTH",
"143 102 OFFCURVE",
"138 51 OFFCURVE",
"141 0 CURVE",
"141 -6 OFFCURVE",
"144 -9 OFFCURVE",
"150 -9 CURVE SMOOTH",
"155 -9 OFFCURVE",
"158 -6 OFFCURVE",
"157 0 CURVE",
"153 68 OFFCURVE",
"164 132 OFFCURVE",
"181 193 CURVE",
"180 182 OFFCURVE",
"178 170 OFFCURVE",
"177 159 CURVE SMOOTH",
"176 147 OFFCURVE",
"174 135 OFFCURVE",
"173 124 CURVE",
"169 100 OFFCURVE",
"167 75 OFFCURVE",
"167 50 CURVE SMOOTH",
"167 45 OFFCURVE",
"170 42 OFFCURVE",
"175 42 CURVE SMOOTH",
"180 42 OFFCURVE",
"182 45 OFFCURVE",
"182 50 CURVE",
"183 62 OFFCURVE",
"185 74 OFFCURVE",
"186 87 CURVE SMOOTH",
"187 99 OFFCURVE",
"188 111 OFFCURVE",
"189 123 CURVE",
"196 162 OFFCURVE",
"203 199 OFFCURVE",
"214 235 CURVE",
"210 207 OFFCURVE",
"208 179 OFFCURVE",
"212 151 CURVE",
"207 120 OFFCURVE",
"205 92 OFFCURVE",
"205 63 CURVE SMOOTH",
"205 52 OFFCURVE",
"218 49 OFFCURVE",
"221 60 CURVE",
"222 65 OFFCURVE",
"224 69 OFFCURVE",
"225 72 CURVE",
"224 67 OFFCURVE",
"224 62 OFFCURVE",
"224 57 CURVE SMOOTH",
"224 52 OFFCURVE",
"224 47 OFFCURVE",
"224 42 CURVE SMOOTH",
"224 33 OFFCURVE",
"237 31 OFFCURVE",
"240 39 CURVE",
"245 55 OFFCURVE",
"250 71 OFFCURVE",
"255 86 CURVE",
"259 101 OFFCURVE",
"263 117 OFFCURVE",
"268 132 CURVE",
"267 125 OFFCURVE",
"267 118 OFFCURVE",
"267 112 CURVE",
"266 105 OFFCURVE",
"266 99 OFFCURVE",
"265 92 CURVE",
"264 81 OFFCURVE",
"280 80 OFFCURVE",
"281 91 CURVE SMOOTH",
"285 143 OFFCURVE",
"294 194 OFFCURVE",
"309 243 CURVE",
"311 248 LINE",
"310 239 OFFCURVE",
"309 230 OFFCURVE",
"308 221 CURVE SMOOTH",
"307 212 OFFCURVE",
"305 203 OFFCURVE",
"304 194 CURVE",
"303 189 OFFCURVE",
"306 186 OFFCURVE",
"310 185 CURVE SMOOTH",
"314 184 OFFCURVE",
"318 186 OFFCURVE",
"319 191 CURVE",
"322 200 OFFCURVE",
"324 209 OFFCURVE",
"327 218 CURVE",
"330 226 OFFCURVE",
"332 234 OFFCURVE",
"335 243 CURVE",
"332 234 OFFCURVE",
"330 224 OFFCURVE",
"328 215 CURVE SMOOTH",
"326 205 OFFCURVE",
"324 195 OFFCURVE",
"322 186 CURVE",
"309 141 OFFCURVE",
"301 94 OFFCURVE",
"301 47 CURVE SMOOTH",
"301 38 OFFCURVE",
"314 36 OFFCURVE",
"317 44 CURVE",
"332 89 OFFCURVE",
"344 130 OFFCURVE",
"356 173 CURVE",
"357 168 OFFCURVE",
"357 162 OFFCURVE",
"358 157 CURVE SMOOTH",
"359 151 OFFCURVE",
"360 145 OFFCURVE",
"361 140 CURVE",
"355 108 OFFCURVE",
"352 77 OFFCURVE",
"352 46 CURVE SMOOTH",
"352 37 OFFCURVE",
"365 35 OFFCURVE",
"368 43 CURVE",
"380 85 LINE",
"380 80 OFFCURVE",
"380 76 OFFCURVE",
"380 73 CURVE",
"379 69 OFFCURVE",
"379 65 OFFCURVE",
"379 61 CURVE",
"378 54 OFFCURVE",
"392 51 OFFCURVE",
"395 59 CURVE",
"395 61 LINE",
"399 82 OFFCURVE",
"403 103 OFFCURVE",
"408 124 CURVE",
"411 124 OFFCURVE",
"412 125 OFFCURVE",
"413 128 CURVE SMOOTH",
"425 163 OFFCURVE",
"436 197 OFFCURVE",
"447 233 CURVE",
"458 254 OFFCURVE",
"465 276 OFFCURVE",
"473 299 CURVE",
"506 351 OFFCURVE",
"533 407 OFFCURVE",
"560 463 CURVE",
"592 502 OFFCURVE",
"620 543 OFFCURVE",
"647 584 CURVE",
"703 657 OFFCURVE",
"752 734 OFFCURVE",
"801 814 CURVE",
"817 832 OFFCURVE",
"831 850 OFFCURVE",
"842 868 CURVE",
"845 872 OFFCURVE",
"849 876 OFFCURVE",
"853 881 CURVE",
"860 889 OFFCURVE",
"866 898 OFFCURVE",
"873 907 CURVE SMOOTH",
"876 911 OFFCURVE",
"880 915 OFFCURVE",
"883 920 CURVE",
"885 923 OFFCURVE",
"887 926 OFFCURVE",
"889 929 CURVE",
"891 931 OFFCURVE",
"893 934 OFFCURVE",
"895 937 CURVE"
);
}
);
width = 977;
}
);
note = seven;
unicode = 0037;
},
